STARTFONT 2.1
COMMENT
COMMENT Converted from OpenType font "Montserrat-SemiBold.otf" by "otf2bdf 3.0".
COMMENT
FONT -FreeType-Montserrat SemiBold-Medium-R-Normal--25-180-100-100-P-144-ISO10646-1
SIZE 18 100 100
FONTBOUNDINGBOX 63 34 -22 -7
STARTPROPERTIES 19
FOUNDRY "FreeType"
FAMILY_NAME "Montserrat SemiBold"
WEIGHT_NAME "Medium"
SLANT "R"
SETWIDTH_NAME "Normal"
ADD_STYLE_NAME ""
PIXEL_SIZE 25
POINT_SIZE 180
RESOLUTION_X 100
RESOLUTION_Y 100
SPACING "P"
AVERAGE_WIDTH 144
CHARSET_REGISTRY "ISO10646"
CHARSET_ENCODING "1"
FONT_ASCENT 24
FONT_DESCENT 6
COPYRIGHT "Copyright 2011 The Montserrat Project Authors (https://github.com/JulietaUla/Montserrat)"
_OTF_FONTFILE "Montserrat-SemiBold.otf"
_OTF_PSNAME "Montserrat-SemiBold"
ENDPROPERTIES
CHARS 969
STARTCHAR 0000
ENCODING 0
SWIDTH 0 0
DWIDTH 0 0
BBX 0 0 0 0
BITMAP
ENDCHAR
STARTCHAR 000D
ENCODING 13
SWIDTH 280 0
DWIDTH 7 0
BBX 0 0 0 0
BITMAP
ENDCHAR
STARTCHAR 0020
ENCODING 32
SWIDTH 280 0
DWIDTH 7 0
BBX 0 0 0 0
BITMAP
ENDCHAR
STARTCHAR 0021
ENCODING 33
SWIDTH 280 0
DWIDTH 7 0
BBX 3 18 2 0
BITMAP
E0
E0
E0
E0
E0
E0
E0
E0
E0
E0
E0
E0
00
00
E0
E0
E0
E0
ENDCHAR
STARTCHAR 0022
ENCODING 34
SWIDTH 400 0
DWIDTH 10 0
BBX 8 7 1 11
BITMAP
E7
E7
E7
E7
67
67
67
ENDCHAR
STARTCHAR 0023
ENCODING 35
SWIDTH 720 0
DWIDTH 18 0
BBX 16 18 1 0
BITMAP
0618
0E18
0E18
0C18
0C18
FFFF
FFFF
0C30
0C30
1C30
1C30
FFFE
FFFE
1870
1870
1860
1860
3860
ENDCHAR
STARTCHAR 0024
ENCODING 36
SWIDTH 640 0
DWIDTH 16 0
BBX 14 24 1 -3
BITMAP
0300
0300
0300
0FE0
3FF8
7FF8
7310
F300
F300
F300
7F00
3FE0
1FF0
03F8
033C
031C
031C
E33C
FFF8
7FF0
1FC0
0300
0300
0300
ENDCHAR
STARTCHAR 0025
ENCODING 37
SWIDTH 880 0
DWIDTH 22 0
BBX 20 18 1 0
BITMAP
3C0380
7E0700
C30600
C30E00
C30C00
C31800
C33800
E73000
7E6380
18E7C0
00CC60
018C70
039830
031830
061C70
0E0C60
0C0FE0
180780
ENDCHAR
STARTCHAR 0026
ENCODING 38
SWIDTH 720 0
DWIDTH 18 0
BBX 16 18 1 0
BITMAP
07C0
1FE0
3CF0
3870
3870
3CF0
1DE0
0FC0
1F00
3F84
79E6
F0FE
E07E
E03C
F03E
7FFF
3FE7
1F82
ENDCHAR
STARTCHAR 0027
ENCODING 39
SWIDTH 240 0
DWIDTH 6 0
BBX 3 7 1 11
BITMAP
E0
E0
E0
E0
60
60
60
ENDCHAR
STARTCHAR 0028
ENCODING 40
SWIDTH 360 0
DWIDTH 9 0
BBX 6 24 2 -5
BITMAP
1C
38
38
38
70
70
70
F0
E0
E0
E0
E0
E0
E0
E0
E0
F0
70
70
70
78
38
38
1C
ENDCHAR
STARTCHAR 0029
ENCODING 41
SWIDTH 360 0
DWIDTH 9 0
BBX 6 24 1 -5
BITMAP
E0
E0
70
70
78
38
38
38
38
38
3C
1C
1C
1C
38
38
38
38
38
78
70
70
E0
E0
ENDCHAR
STARTCHAR 002A
ENCODING 42
SWIDTH 400 0
DWIDTH 10 0
BBX 9 10 1 9
BITMAP
1800
1800
9900
FB80
7F00
7E00
FF80
D900
1800
1800
ENDCHAR
STARTCHAR 002B
ENCODING 43
SWIDTH 600 0
DWIDTH 15 0
BBX 11 11 2 3
BITMAP
0E00
0E00
0E00
0E00
FFE0
FFE0
0FE0
0E00
0E00
0E00
0E00
ENDCHAR
STARTCHAR 002C
ENCODING 44
SWIDTH 240 0
DWIDTH 6 0
BBX 4 8 1 -4
BITMAP
60
F0
F0
70
60
60
60
C0
ENDCHAR
STARTCHAR 002D
ENCODING 45
SWIDTH 400 0
DWIDTH 10 0
BBX 7 3 1 5
BITMAP
FE
FE
FE
ENDCHAR
STARTCHAR 002E
ENCODING 46
SWIDTH 240 0
DWIDTH 6 0
BBX 4 4 1 0
BITMAP
70
F0
F0
60
ENDCHAR
STARTCHAR 002F
ENCODING 47
SWIDTH 360 0
DWIDTH 9 0
BBX 11 24 -1 -3
BITMAP
00E0
00E0
00E0
01C0
01C0
01C0
0380
0380
0300
0700
0700
0600
0E00
0E00
0C00
1C00
1C00
1800
3800
3800
7000
7000
7000
E000
ENDCHAR
STARTCHAR 0030
ENCODING 48
SWIDTH 680 0
DWIDTH 17 0
BBX 15 18 1 0
BITMAP
07C0
1FF0
3FF8
7878
703C
701C
F01E
E01E
E01E
E01E
E01E
F01E
701C
703C
7838
3FF8
1FF0
07C0
ENDCHAR
STARTCHAR 0031
ENCODING 49
SWIDTH 400 0
DWIDTH 10 0
BBX 7 18 0 0
BITMAP
FE
FE
FE
0E
0E
0E
0E
0E
0E
0E
0E
0E
0E
0E
0E
0E
0E
0E
ENDCHAR
STARTCHAR 0032
ENCODING 50
SWIDTH 600 0
DWIDTH 15 0
BBX 14 18 0 0
BITMAP
0FC0
3FF0
FFF0
7078
2038
0038
0038
0078
00F0
01E0
03C0
0780
0F00
1E00
3C00
7FFC
7FFC
7FFC
ENDCHAR
STARTCHAR 0033
ENCODING 51
SWIDTH 600 0
DWIDTH 15 0
BBX 14 18 0 0
BITMAP
7FF8
7FF8
7FF8
00F0
01E0
01C0
0380
0780
07F0
07F8
0078
0038
003C
4038
6078
FFF8
7FF0
1FC0
ENDCHAR
STARTCHAR 0034
ENCODING 52
SWIDTH 680 0
DWIDTH 17 0
BBX 16 18 1 0
BITMAP
00F0
01E0
01C0
0380
0780
0F00
0E00
1C38
3C38
7838
7038
FFFF
FFFF
FFFF
0078
0078
0078
0078
ENDCHAR
STARTCHAR 0035
ENCODING 53
SWIDTH 600 0
DWIDTH 15 0
BBX 13 18 1 0
BITMAP
7FF0
7FF0
7FF0
7000
7000
7000
7000
7F80
7FE0
7FF0
0078
0078
0038
0078
E070
FFF0
FFE0
3F80
ENDCHAR
STARTCHAR 0036
ENCODING 54
SWIDTH 640 0
DWIDTH 16 0
BBX 14 18 1 0
BITMAP
03F0
0FF8
3FF8
3C00
7800
7000
F000
E7E0
EFF0
FFF8
F83C
F01C
F01C
701C
783C
3FF8
1FF0
07C0
ENDCHAR
STARTCHAR 0037
ENCODING 55
SWIDTH 600 0
DWIDTH 15 0
BBX 13 18 1 0
BITMAP
FFF8
FFF8
FFF8
E078
E070
E0F0
00E0
00E0
01E0
01C0
03C0
0380
0780
0700
0700
0F00
0E00
1E00
ENDCHAR
STARTCHAR 0038
ENCODING 56
SWIDTH 640 0
DWIDTH 16 0
BBX 14 18 1 0
BITMAP
0FC0
3FF0
7FF8
7038
703C
703C
7038
7C78
3FF0
3FF8
783C
F01C
E01C
E01C
F03C
7FF8
3FF0
0FC0
ENDCHAR
STARTCHAR 0039
ENCODING 57
SWIDTH 640 0
DWIDTH 16 0
BBX 14 18 1 0
BITMAP
1F80
3FE0
7FF0
F078
E038
E038
E038
F07C
FFFC
7FFC
1F38
0038
0038
0078
00F0
7FE0
7FC0
3F00
ENDCHAR
STARTCHAR 003A
ENCODING 58
SWIDTH 240 0
DWIDTH 6 0
BBX 4 14 1 0
BITMAP
60
F0
F0
70
00
00
00
00
00
00
70
F0
F0
60
ENDCHAR
STARTCHAR 003B
ENCODING 59
SWIDTH 240 0
DWIDTH 6 0
BBX 4 17 1 -3
BITMAP
60
F0
F0
70
00
00
00
00
00
00
F0
F0
F0
70
60
60
E0
ENDCHAR
STARTCHAR 003C
ENCODING 60
SWIDTH 600 0
DWIDTH 15 0
BBX 11 11 2 2
BITMAP
0020
01E0
07E0
3F80
FC00
E000
F000
FE00
1FC0
03E0
00E0
ENDCHAR
STARTCHAR 003D
ENCODING 61
SWIDTH 600 0
DWIDTH 15 0
BBX 11 8 2 5
BITMAP
FFE0
FFE0
FFE0
0000
0000
0000
FFE0
FFE0
ENDCHAR
STARTCHAR 003E
ENCODING 62
SWIDTH 600 0
DWIDTH 15 0
BBX 11 11 2 2
BITMAP
8000
E000
FC00
3F80
07E0
01E0
03E0
0FC0
7F00
F800
E000
ENDCHAR
STARTCHAR 003F
ENCODING 63
SWIDTH 600 0
DWIDTH 15 0
BBX 13 18 0 0
BITMAP
0FC0
3FF0
FFF8
7078
2038
0038
0078
00F0
01E0
03C0
0380
0380
0000
0000
0300
0780
0780
0300
ENDCHAR
STARTCHAR 0040
ENCODING 64
SWIDTH 1040 0
DWIDTH 26 0
BBX 24 23 1 -5
BITMAP
00FF00
03FFC0
0F81F0
1C0038
38001C
307DCC
71FFC6
61EFC6
E383C7
E381C3
C701C3
C700C3
C701C3
E381C7
E383C6
63EFEE
71FEFC
307C78
380000
1E0000
0F8180
03FF80
00FF00
ENDCHAR
STARTCHAR 0041
ENCODING 65
SWIDTH 760 0
DWIDTH 19 0
BBX 19 18 0 0
BITMAP
00E000
01F000
01F000
03F000
03B800
073800
071C00
0F1C00
0E0E00
0E0E00
1C0F00
1FFF00
3FFF00
3FFF80
780380
7003C0
7001C0
E001E0
ENDCHAR
STARTCHAR 0042
ENCODING 66
SWIDTH 760 0
DWIDTH 19 0
BBX 16 18 2 0
BITMAP
FFF0
FFFC
FFFE
F01E
F00E
F00E
F01E
FFFC
FFF8
FFFE
F01E
F00F
F007
F007
F00F
FFFE
FFFC
FFF8
ENDCHAR
STARTCHAR 0043
ENCODING 67
SWIDTH 720 0
DWIDTH 18 0
BBX 16 18 1 0
BITMAP
03F8
0FFE
1FFF
3E0F
7802
7000
F000
F000
E000
E000
F000
F000
7000
7802
3E0F
1FFF
0FFE
03F8
ENDCHAR
STARTCHAR 0044
ENCODING 68
SWIDTH 840 0
DWIDTH 21 0
BBX 18 18 2 0
BITMAP
FFE000
FFFC00
FFFE00
F01F00
F00780
F00780
F00380
F00380
F003C0
F003C0
F00380
F00380
F00780
F00700
F01F00
FFFE00
FFFC00
FFE000
ENDCHAR
STARTCHAR 0045
ENCODING 69
SWIDTH 680 0
DWIDTH 17 0
BBX 13 18 2 0
BITMAP
FFF8
FFF8
FFF8
F000
F000
F000
F000
FFF0
FFF0
FFF0
F000
F000
F000
F000
F000
FFF8
FFF8
FFF8
ENDCHAR
STARTCHAR 0046
ENCODING 70
SWIDTH 640 0
DWIDTH 16 0
BBX 13 18 2 0
BITMAP
FFF8
FFF8
FFF8
F000
F000
F000
F000
F000
FFF0
FFF0
FFF0
F000
F000
F000
F000
F000
F000
F000
ENDCHAR
STARTCHAR 0047
ENCODING 71
SWIDTH 760 0
DWIDTH 19 0
BBX 16 18 1 0
BITMAP
03F8
0FFE
1FFF
3E07
7802
7000
F000
F000
E000
E007
F007
F007
7007
7807
3E07
1FFF
0FFE
03F8
ENDCHAR
STARTCHAR 0048
ENCODING 72
SWIDTH 800 0
DWIDTH 20 0
BBX 16 18 2 0
BITMAP
F007
F007
F007
F007
F007
F007
F007
FFFF
FFFF
FFFF
F007
F007
F007
F007
F007
F007
F007
F007
ENDCHAR
STARTCHAR 0049
ENCODING 73
SWIDTH 320 0
DWIDTH 8 0
BBX 4 18 2 0
BITMAP
F0
F0
F0
F0
F0
F0
F0
F0
F0
F0
F0
F0
F0
F0
F0
F0
F0
F0
ENDCHAR
STARTCHAR 004A
ENCODING 74
SWIDTH 520 0
DWIDTH 13 0
BBX 11 18 0 0
BITMAP
7FE0
7FE0
7FE0
00E0
00E0
00E0
00E0
00E0
00E0
00E0
00E0
00E0
00E0
40E0
E1E0
FFC0
7F80
3F00
ENDCHAR
STARTCHAR 004B
ENCODING 75
SWIDTH 720 0
DWIDTH 18 0
BBX 16 18 2 0
BITMAP
F00E
F01E
F03C
F078
F0F0
F1E0
F3C0
F780
FF80
FFC0
FFC0
F9E0
F0F0
F078
F03C
F03C
F01E
F00F
ENDCHAR
STARTCHAR 004C
ENCODING 76
SWIDTH 600 0
DWIDTH 15 0
BBX 13 18 2 0
BITMAP
F000
F000
F000
F000
F000
F000
F000
F000
F000
F000
F000
F000
F000
F000
F000
FFF8
FFF8
FFF8
ENDCHAR
STARTCHAR 004D
ENCODING 77
SWIDTH 960 0
DWIDTH 24 0
BBX 19 18 2 0
BITMAP
E000E0
F000E0
F001E0
F801E0
FC03E0
FC03E0
EE07E0
EE07E0
E70EE0
E79CE0
E39CE0
E1F8E0
E1F8E0
E0F0E0
E0E0E0
E060E0
E000E0
E000E0
ENDCHAR
STARTCHAR 004E
ENCODING 78
SWIDTH 800 0
DWIDTH 20 0
BBX 16 18 2 0
BITMAP
E007
F007
F807
FC07
FE07
FE07
FF07
F787
F3C7
F3E7
F1E7
F0F7
F07F
F03F
F03F
F01F
F00F
F007
ENDCHAR
STARTCHAR 004F
ENCODING 79
SWIDTH 840 0
DWIDTH 21 0
BBX 19 18 1 0
BITMAP
03F800
0FFE00
1FFF00
3E0F80
7803C0
7001C0
F001E0
F001E0
E000E0
E000E0
F000E0
F001E0
7001C0
7803C0
3E0F80
1FFF00
0FFE00
03F800
ENDCHAR
STARTCHAR 0050
ENCODING 80
SWIDTH 720 0
DWIDTH 18 0
BBX 15 18 2 0
BITMAP
FFE0
FFF8
FFFC
F03C
F01E
F00E
F00E
F00E
F01E
F03C
FFFC
FFF0
FF80
F000
F000
F000
F000
F000
ENDCHAR
STARTCHAR 0051
ENCODING 81
SWIDTH 840 0
DWIDTH 21 0
BBX 19 22 1 -4
BITMAP
03F800
0FFE00
1FFF00
3E0F80
7803C0
7001C0
F001E0
F001E0
E000E0
E000E0
F000E0
F001E0
7001C0
7803C0
3C0780
1FFF80
0FFE00
07FC00
007820
003FE0
001FE0
0007C0
ENDCHAR
STARTCHAR 0052
ENCODING 82
SWIDTH 720 0
DWIDTH 18 0
BBX 15 18 2 0
BITMAP
FFE0
FFF8
FFFC
F03C
F01E
F00E
F00E
F00E
F01E
F03C
FFFC
FFF0
FFF0
F070
F078
F03C
F01C
F01E
ENDCHAR
STARTCHAR 0053
ENCODING 83
SWIDTH 640 0
DWIDTH 16 0
BBX 14 18 1 0
BITMAP
0FE0
3FF8
7FF8
7010
F000
F000
F000
7C00
7FC0
1FF0
03F8
007C
003C
001C
603C
FFF8
7FF0
1FC0
ENDCHAR
STARTCHAR 0054
ENCODING 84
SWIDTH 600 0
DWIDTH 15 0
BBX 15 18 0 0
BITMAP
FFFE
FFFE
FFFE
0380
0380
0380
0380
0380
0380
0380
0380
0380
0380
0380
0380
0380
0380
0380
ENDCHAR
STARTCHAR 0055
ENCODING 85
SWIDTH 800 0
DWIDTH 20 0
BBX 16 18 2 0
BITMAP
E00F
E00F
E00F
E00F
E00F
E00F
E00F
E00F
E00F
E00F
E00F
F00E
F00E
700E
781E
3FFC
1FF8
07E0
ENDCHAR
STARTCHAR 0056
ENCODING 86
SWIDTH 720 0
DWIDTH 18 0
BBX 18 18 0 0
BITMAP
F001C0
7003C0
700380
780380
380700
3C0700
1C0F00
1E0E00
1E1E00
0E1C00
0F1C00
073800
07B800
03F800
03F000
03F000
01E000
01E000
ENDCHAR
STARTCHAR 0057
ENCODING 87
SWIDTH 1160 0
DWIDTH 29 0
BBX 27 18 1 0
BITMAP
E00E00E0
F01E01C0
F01F01C0
701F01C0
703F0380
783B8380
383B8380
38738700
3C71C700
1C71C700
1CE1CF00
1EE0EE00
0EE0EE00
0FC0FE00
0FC07C00
07C07C00
07807C00
07807800
ENDCHAR
STARTCHAR 0058
ENCODING 88
SWIDTH 680 0
DWIDTH 17 0
BBX 16 18 1 0
BITMAP
F00E
701E
783C
3C38
1C70
1EF0
0FE0
07C0
07C0
07C0
07E0
0EF0
1E70
3C78
383C
781C
F01E
E00F
ENDCHAR
STARTCHAR 0059
ENCODING 89
SWIDTH 680 0
DWIDTH 17 0
BBX 16 18 0 0
BITMAP
F007
7007
780E
381E
3C1C
1C3C
0E38
0F70
0770
07E0
03E0
01C0
01C0
01C0
01C0
01C0
01C0
01C0
ENDCHAR
STARTCHAR 005A
ENCODING 90
SWIDTH 680 0
DWIDTH 17 0
BBX 15 18 1 0
BITMAP
FFFE
FFFE
FFFC
003C
0078
00F0
01E0
01C0
03C0
0780
0F00
1E00
1C00
3C00
7800
FFFE
FFFE
FFFE
ENDCHAR
STARTCHAR 005B
ENCODING 91
SWIDTH 360 0
DWIDTH 9 0
BBX 6 24 2 -5
BITMAP
FC
FC
FC
E0
E0
E0
E0
E0
E0
E0
E0
E0
E0
E0
E0
E0
E0
E0
E0
E0
E0
E0
FC
FC
ENDCHAR
STARTCHAR 005C
ENCODING 92
SWIDTH 360 0
DWIDTH 9 0
BBX 11 24 -1 -3
BITMAP
E000
E000
7000
7000
7000
3800
3800
3800
1C00
1C00
1C00
0E00
0E00
0600
0700
0700
0300
0380
0380
0180
01C0
01C0
00E0
00E0
ENDCHAR
STARTCHAR 005D
ENCODING 93
SWIDTH 360 0
DWIDTH 9 0
BBX 6 24 0 -5
BITMAP
FC
FC
1C
1C
1C
1C
1C
1C
1C
1C
1C
1C
1C
1C
1C
1C
1C
1C
1C
1C
1C
1C
FC
FC
ENDCHAR
STARTCHAR 005E
ENCODING 94
SWIDTH 600 0
DWIDTH 15 0
BBX 11 10 2 4
BITMAP
0E00
1E00
1F00
1B00
3B80
3180
7180
61C0
E0C0
C0E0
ENDCHAR
STARTCHAR 005F
ENCODING 95
SWIDTH 520 0
DWIDTH 13 0
BBX 12 2 0 -2
BITMAP
FFF0
FFF0
ENDCHAR
STARTCHAR 0060
ENCODING 96
SWIDTH 600 0
DWIDTH 15 0
BBX 6 3 3 16
BITMAP
F0
78
1C
ENDCHAR
STARTCHAR 0061
ENCODING 97
SWIDTH 600 0
DWIDTH 15 0
BBX 12 14 1 0
BITMAP
1F80
7FE0
7FF0
40F0
0070
0070
3FF0
7FF0
F070
E070
E070
F1F0
7FF0
1F70
ENDCHAR
STARTCHAR 0062
ENCODING 98
SWIDTH 680 0
DWIDTH 17 0
BBX 14 19 2 0
BITMAP
E000
E000
E000
E000
E000
E7C0
FFF0
FFF8
F87C
F03C
E01C
E01C
E01C
E01C
F03C
F838
FFF8
FFF0
E7C0
ENDCHAR
STARTCHAR 0063
ENCODING 99
SWIDTH 600 0
DWIDTH 15 0
BBX 13 14 1 0
BITMAP
0FC0
1FF0
7FF8
7830
F020
E000
E000
E000
E000
F020
7830
7FF0
3FF0
0FC0
ENDCHAR
STARTCHAR 0064
ENCODING 100
SWIDTH 680 0
DWIDTH 17 0
BBX 14 19 1 0
BITMAP
001C
001C
001C
001C
001C
0F9C
3FFC
7FFC
787C
F03C
E01C
E01C
E01C
E01C
F03C
783C
7FFC
3FFC
0F9C
ENDCHAR
STARTCHAR 0065
ENCODING 101
SWIDTH 640 0
DWIDTH 16 0
BBX 14 14 1 0
BITMAP
0FC0
3FE0
7FF0
7078
F038
E018
FFFC
FFFC
E000
F000
7830
7FF0
3FF0
0FC0
ENDCHAR
STARTCHAR 0066
ENCODING 102
SWIDTH 360 0
DWIDTH 9 0
BBX 10 19 0 0
BITMAP
07C0
0FC0
1F80
1C00
3C00
3800
FF80
FF80
3C00
3C00
3C00
3C00
3C00
3C00
3C00
3C00
3C00
3C00
3C00
ENDCHAR
STARTCHAR 0067
ENCODING 103
SWIDTH 680 0
DWIDTH 17 0
BBX 14 19 1 -5
BITMAP
0F9C
3FFC
7FFC
783C
F01C
E01C
E01C
E01C
F01C
783C
7FFC
3FFC
0F9C
001C
001C
603C
7FF8
7FF0
1FC0
ENDCHAR
STARTCHAR 0068
ENCODING 104
SWIDTH 680 0
DWIDTH 17 0
BBX 13 19 2 0
BITMAP
E000
E000
E000
E000
E000
E7C0
FFF0
FFF0
F878
F038
E038
E038
E038
E038
E038
E038
E038
E038
E038
ENDCHAR
STARTCHAR 0069
ENCODING 105
SWIDTH 280 0
DWIDTH 7 0
BBX 4 20 2 0
BITMAP
E0
F0
E0
60
00
00
E0
E0
E0
E0
E0
E0
E0
E0
E0
E0
E0
E0
E0
E0
ENDCHAR
STARTCHAR 006A
ENCODING 106
SWIDTH 280 0
DWIDTH 7 0
BBX 8 25 -2 -5
BITMAP
0E
0F
0F
06
00
00
0E
0E
0E
0E
0E
0E
0E
0E
0E
0E
0E
0E
0E
0E
0E
0E
FE
FC
F8
ENDCHAR
STARTCHAR 006B
ENCODING 107
SWIDTH 640 0
DWIDTH 16 0
BBX 14 19 2 0
BITMAP
E000
E000
E000
E000
E000
E078
E0F0
E1E0
E3C0
E780
EF00
FF00
FF80
FBC0
F1E0
E1E0
E0F0
E078
E03C
ENDCHAR
STARTCHAR 006C
ENCODING 108
SWIDTH 280 0
DWIDTH 7 0
BBX 3 19 2 0
BITMAP
E0
E0
E0
E0
E0
E0
E0
E0
E0
E0
E0
E0
E0
E0
E0
E0
E0
E0
E0
ENDCHAR
STARTCHAR 006D
ENCODING 109
SWIDTH 1040 0
DWIDTH 26 0
BBX 22 14 2 0
BITMAP
E7C3E0
FFE7F8
FFFFFC
F07C3C
F0781C
E0381C
E0381C
E0381C
E0381C
E0381C
E0381C
E0381C
E0381C
E0381C
ENDCHAR
STARTCHAR 006E
ENCODING 110
SWIDTH 680 0
DWIDTH 17 0
BBX 13 14 2 0
BITMAP
E7C0
FFF0
FFF0
F878
F038
E038
E038
E038
E038
E038
E038
E038
E038
E038
ENDCHAR
STARTCHAR 006F
ENCODING 111
SWIDTH 640 0
DWIDTH 16 0
BBX 14 14 1 0
BITMAP
0FC0
1FF0
7FF8
7878
F03C
E01C
E01C
E01C
E01C
F03C
7838
7FF8
3FF0
0FC0
ENDCHAR
STARTCHAR 0070
ENCODING 112
SWIDTH 680 0
DWIDTH 17 0
BBX 14 19 2 -5
BITMAP
E7C0
FFF0
FFF8
F87C
F03C
E01C
E01C
E01C
E01C
F03C
F838
FFF8
FFF0
E7C0
E000
E000
E000
E000
E000
ENDCHAR
STARTCHAR 0071
ENCODING 113
SWIDTH 680 0
DWIDTH 17 0
BBX 14 19 1 -5
BITMAP
0F9C
3FFC
7FFC
787C
F03C
E01C
E01C
E01C
E01C
F03C
783C
7FFC
3FFC
0F9C
001C
001C
001C
001C
001C
ENDCHAR
STARTCHAR 0072
ENCODING 114
SWIDTH 440 0
DWIDTH 11 0
BBX 8 14 2 0
BITMAP
E7
FF
FF
F8
F0
E0
E0
E0
E0
E0
E0
E0
E0
E0
ENDCHAR
STARTCHAR 0073
ENCODING 115
SWIDTH 520 0
DWIDTH 13 0
BBX 11 14 1 0
BITMAP
1F80
7FE0
FFC0
E040
E000
F000
7F80
3FC0
03E0
00E0
00E0
FFE0
FFC0
3F00
ENDCHAR
STARTCHAR 0074
ENCODING 116
SWIDTH 440 0
DWIDTH 11 0
BBX 10 17 0 0
BITMAP
3C00
3C00
3C00
3C00
FF80
FF80
3C00
3C00
3C00
3C00
3C00
3C00
3C00
1C00
1F80
1FC0
0780
ENDCHAR
STARTCHAR 0075
ENCODING 117
SWIDTH 680 0
DWIDTH 17 0
BBX 13 14 2 0
BITMAP
E038
E038
E038
E038
E038
E038
E038
E038
E038
E078
F078
7FF8
7FF8
1F38
ENDCHAR
STARTCHAR 0076
ENCODING 118
SWIDTH 560 0
DWIDTH 14 0
BBX 14 14 0 0
BITMAP
E01C
F01C
701C
7838
3838
3870
1C70
1CE0
1EE0
0EE0
0FC0
07C0
0780
0780
ENDCHAR
STARTCHAR 0077
ENCODING 119
SWIDTH 920 0
DWIDTH 23 0
BBX 23 14 0 0
BITMAP
E0380E
70380C
707C1C
707C1C
387C18
38EE38
38EE38
1CC630
1DC770
1DC770
0F83E0
0F83E0
0F83C0
0701C0
ENDCHAR
STARTCHAR 0078
ENCODING 120
SWIDTH 560 0
DWIDTH 14 0
BBX 13 14 1 0
BITMAP
E070
70F0
78E0
39C0
1FC0
1F80
0F00
0F00
1F80
1FC0
39E0
70E0
F0F0
E078
ENDCHAR
STARTCHAR 0079
ENCODING 121
SWIDTH 560 0
DWIDTH 14 0
BBX 14 19 0 -5
BITMAP
E01C
F01C
7018
7838
3838
3870
1C70
1CE0
1EE0
0EE0
0FC0
07C0
0780
0780
0780
0700
FF00
FE00
7800
ENDCHAR
STARTCHAR 007A
ENCODING 122
SWIDTH 520 0
DWIDTH 13 0
BBX 11 14 1 0
BITMAP
FFE0
FFE0
01E0
03C0
0380
0780
0F00
1E00
1C00
3800
7800
F000
FFE0
FFE0
ENDCHAR
STARTCHAR 007B
ENCODING 123
SWIDTH 360 0
DWIDTH 9 0
BBX 8 24 1 -5
BITMAP
0F
1F
1F
3C
38
38
38
38
38
38
F8
F0
F8
38
38
38
38
38
38
38
3C
1E
1F
0F
ENDCHAR
STARTCHAR 007C
ENCODING 124
SWIDTH 320 0
DWIDTH 8 0
BBX 3 24 2 -5
BITMAP
E0
E0
E0
E0
E0
E0
E0
E0
E0
E0
E0
E0
E0
E0
E0
E0
E0
E0
E0
E0
E0
E0
E0
E0
ENDCHAR
STARTCHAR 007D
ENCODING 125
SWIDTH 360 0
DWIDTH 9 0
BBX 8 24 0 -5
BITMAP
F0
F8
7C
1C
1C
1C
1C
1C
1C
1C
1F
0F
1F
1C
1C
1C
1C
1C
1C
1C
1C
7C
F8
F0
ENDCHAR
STARTCHAR 007E
ENCODING 126
SWIDTH 600 0
DWIDTH 15 0
BBX 12 4 1 7
BITMAP
3C30
7F30
67F0
E3E0
ENDCHAR
STARTCHAR 00A0
ENCODING 160
SWIDTH 280 0
DWIDTH 7 0
BBX 0 0 0 0
BITMAP
ENDCHAR
STARTCHAR 00A1
ENCODING 161
SWIDTH 280 0
DWIDTH 7 0
BBX 3 17 2 -3
BITMAP
E0
E0
E0
E0
00
00
E0
E0
E0
E0
E0
E0
E0
E0
E0
E0
E0
ENDCHAR
STARTCHAR 00A2
ENCODING 162
SWIDTH 600 0
DWIDTH 15 0
BBX 13 19 1 -3
BITMAP
0300
0300
0300
1FE0
3FF0
7B78
7320
E300
E300
E300
E300
F300
7330
7FF8
3FF0
0FC0
0300
0300
0300
ENDCHAR
STARTCHAR 00A3
ENCODING 163
SWIDTH 640 0
DWIDTH 16 0
BBX 15 18 1 0
BITMAP
01FC
07FE
0FFE
1E04
1C00
3C00
3C00
3C00
FFF0
FFF0
3C00
3C00
3C00
3C00
3C00
FFFE
FFFE
FFFE
ENDCHAR
STARTCHAR 00A4
ENCODING 164
SWIDTH 720 0
DWIDTH 18 0
BBX 16 15 1 0
BITMAP
400E
E7FF
7FFE
3FFC
381C
701C
700C
700C
700C
301C
3C38
7FFC
FFFE
E10F
4006
ENDCHAR
STARTCHAR 00A5
ENCODING 165
SWIDTH 720 0
DWIDTH 18 0
BBX 18 18 0 0
BITMAP
F001C0
700380
780780
3C0700
1C0E00
1E1E00
0F1C00
073800
03F000
03F000
3FFF00
3FFF00
01E000
01E000
3FFF00
3FFF00
01E000
01E000
ENDCHAR
STARTCHAR 00A6
ENCODING 166
SWIDTH 320 0
DWIDTH 8 0
BBX 3 24 2 -5
BITMAP
E0
E0
E0
E0
E0
E0
E0
E0
E0
00
00
00
00
00
00
E0
E0
E0
E0
E0
E0
E0
E0
E0
ENDCHAR
STARTCHAR 00A7
ENCODING 167
SWIDTH 520 0
DWIDTH 13 0
BBX 11 21 1 -3
BITMAP
1FC0
3FE0
7DE0
E000
E000
F000
7E00
7F80
F7C0
E0E0
E0E0
E0E0
FDE0
7FC0
0FC0
01C0
00C0
80C0
F7C0
FF80
3F00
ENDCHAR
STARTCHAR 00A8
ENCODING 168
SWIDTH 600 0
DWIDTH 15 0
BBX 7 3 4 15
BITMAP
C6
EE
C6
ENDCHAR
STARTCHAR 00A9
ENCODING 169
SWIDTH 800 0
DWIDTH 20 0
BBX 18 18 1 0
BITMAP
03F000
0F3C00
180600
300300
61F180
47F880
C61880
CE00C0
CC00C0
CC00C0
CE00C0
CF1880
47F880
61F180
300300
180600
0F3C00
03F000
ENDCHAR
STARTCHAR 00AA
ENCODING 170
SWIDTH 400 0
DWIDTH 10 0
BBX 8 8 1 11
BITMAP
7C
FE
07
03
7F
C3
C7
FF
ENDCHAR
STARTCHAR 00AB
ENCODING 171
SWIDTH 520 0
DWIDTH 13 0
BBX 12 10 1 2
BITMAP
1C70
1CE0
39C0
7380
6380
E700
7380
39C0
38E0
1CE0
ENDCHAR
STARTCHAR 00AC
ENCODING 172
SWIDTH 600 0
DWIDTH 15 0
BBX 11 7 2 3
BITMAP
FFE0
FFE0
00E0
00E0
00E0
00E0
00E0
ENDCHAR
STARTCHAR 00AD
ENCODING 173
SWIDTH 400 0
DWIDTH 10 0
BBX 7 3 1 5
BITMAP
FE
FE
FE
ENDCHAR
STARTCHAR 00AE
ENCODING 174
SWIDTH 800 0
DWIDTH 20 0
BBX 18 18 1 0
BITMAP
03F000
0F3C00
180600
300300
67F180
47F880
C61880
C618C0
C618C0
C7F8C0
C7F0C0
C63080
461880
661980
300300
180600
0F3C00
03F000
ENDCHAR
STARTCHAR 00AF
ENCODING 175
SWIDTH 600 0
DWIDTH 15 0
BBX 9 2 3 16
BITMAP
FF80
FF80
ENDCHAR
STARTCHAR 00B0
ENCODING 176
SWIDTH 400 0
DWIDTH 10 0
BBX 8 9 1 9
BITMAP
3C
7F
C3
C1
C1
C1
63
7E
18
ENDCHAR
STARTCHAR 00B1
ENCODING 177
SWIDTH 600 0
DWIDTH 15 0
BBX 11 16 2 0
BITMAP
0E00
0E00
0E00
0E00
0E00
FFE0
FFE0
0E00
0E00
0E00
0E00
0000
0000
0000
FFE0
FFE0
ENDCHAR
STARTCHAR 00B2
ENCODING 178
SWIDTH 440 0
DWIDTH 11 0
BBX 9 11 1 8
BITMAP
7C00
FF00
C300
0300
0700
0E00
1C00
3800
7000
FF80
FF80
ENDCHAR
STARTCHAR 00B3
ENCODING 179
SWIDTH 440 0
DWIDTH 11 0
BBX 9 11 1 8
BITMAP
FF00
FF00
0600
0E00
1C00
1E00
1F00
0380
8380
FF00
7E00
ENDCHAR
STARTCHAR 00B4
ENCODING 180
SWIDTH 600 0
DWIDTH 15 0
BBX 6 3 6 16
BITMAP
3C
78
E0
ENDCHAR
STARTCHAR 00B5
ENCODING 181
SWIDTH 680 0
DWIDTH 17 0
BBX 13 19 2 -5
BITMAP
E038
E038
E038
E038
E038
E038
E038
E038
E038
F078
F078
FFF8
FFF8
EFB8
E000
E000
E000
E000
E000
ENDCHAR
STARTCHAR 00B6
ENCODING 182
SWIDTH 680 0
DWIDTH 17 0
BBX 14 22 0 -3
BITMAP
1FFC
3FFC
7F0C
7F0C
FF0C
FF0C
7F0C
7F0C
3F0C
070C
030C
030C
030C
030C
030C
030C
030C
030C
030C
030C
030C
030C
ENDCHAR
STARTCHAR 00B7
ENCODING 183
SWIDTH 280 0
DWIDTH 7 0
BBX 4 4 2 5
BITMAP
E0
F0
F0
E0
ENDCHAR
STARTCHAR 00B8
ENCODING 184
SWIDTH 600 0
DWIDTH 15 0
BBX 5 6 5 -6
BITMAP
20
60
78
18
F8
60
ENDCHAR
STARTCHAR 00B9
ENCODING 185
SWIDTH 440 0
DWIDTH 11 0
BBX 7 11 2 8
BITMAP
F8
F8
18
18
18
18
18
18
18
FE
FE
ENDCHAR
STARTCHAR 00BA
ENCODING 186
SWIDTH 440 0
DWIDTH 11 0
BBX 9 8 1 11
BITMAP
3E00
7F00
C380
C180
C180
C380
7F00
3E00
ENDCHAR
STARTCHAR 00BB
ENCODING 187
SWIDTH 520 0
DWIDTH 13 0
BBX 11 10 1 2
BITMAP
E700
6380
7380
39C0
1CE0
1CE0
39C0
31C0
7380
E700
ENDCHAR
STARTCHAR 00BC
ENCODING 188
SWIDTH 1040 0
DWIDTH 26 0
BBX 23 18 2 0
BITMAP
F801C0
F80180
180300
180700
180600
180E00
181C00
181838
183830
FE7070
FE60E0
00E0C0
01C18C
01838C
0383FE
0703FE
06001C
0E001C
ENDCHAR
STARTCHAR 00BD
ENCODING 189
SWIDTH 1040 0
DWIDTH 26 0
BBX 23 18 2 0
BITMAP
F801C0
F80180
180300
180700
180600
180E00
181C00
1818F0
183BFC
FE730C
FE600C
00E00C
01C01C
018038
038070
0700C0
0603FE
0E03FE
ENDCHAR
STARTCHAR 00BE
ENCODING 190
SWIDTH 1040 0
DWIDTH 26 0
BBX 24 18 1 0
BITMAP
FF00E0
FF00C0
060180
0C0380
1C0300
1F0700
038E00
038C1C
C39C18
FF3830
7C3070
007060
00E0C6
00C1C6
01C1FF
0381FF
03000E
07000E
ENDCHAR
STARTCHAR 00BF
ENCODING 191
SWIDTH 600 0
DWIDTH 15 0
BBX 12 18 2 -4
BITMAP
0E00
1E00
1E00
0C00
0000
0000
0E00
1E00
1C00
3800
7000
E000
E000
E000
F070
FFF0
7FE0
1F80
ENDCHAR
STARTCHAR 00C0
ENCODING 192
SWIDTH 760 0
DWIDTH 19 0
BBX 19 23 0 0
BITMAP
078000
03C000
00E000
000000
000000
00E000
01F000
01F000
03F000
03B800
073800
071C00
0F1C00
0E0E00
0E0E00
1C0F00
1FFF00
3FFF00
3FFF80
780380
7003C0
7001C0
E001E0
ENDCHAR
STARTCHAR 00C1
ENCODING 193
SWIDTH 760 0
DWIDTH 19 0
BBX 19 23 0 0
BITMAP
003C00
007000
00E000
000000
000000
00E000
01F000
01F000
03F000
03B800
073800
071C00
0F1C00
0E0E00
0E0E00
1C0F00
1FFF00
3FFF00
3FFF80
780380
7003C0
7001C0
E001E0
ENDCHAR
STARTCHAR 00C2
ENCODING 194
SWIDTH 760 0
DWIDTH 19 0
BBX 19 23 0 0
BITMAP
01E000
03F000
073800
000400
000000
00E000
01F000
01F000
03F000
03B800
073800
071C00
0F1C00
0E0E00
0E0E00
1C0F00
1FFF00
3FFF00
3FFF80
780380
7003C0
7001C0
E001E0
ENDCHAR
STARTCHAR 00C3
ENCODING 195
SWIDTH 760 0
DWIDTH 19 0
BBX 19 23 0 0
BITMAP
030000
07CC00
067800
001000
000000
00E000
01F000
01F000
03F000
03B800
073800
071C00
0F1C00
0E0E00
0E0E00
1C0F00
1FFF00
3FFF00
3FFF80
780380
7003C0
7001C0
E001E0
ENDCHAR
STARTCHAR 00C4
ENCODING 196
SWIDTH 760 0
DWIDTH 19 0
BBX 19 23 0 0
BITMAP
031800
073800
031800
000000
000000
00E000
01F000
01F000
03F000
03B800
073800
071C00
0F1C00
0E0E00
0E0E00
1C0F00
1FFF00
3FFF00
3FFF80
780380
7003C0
7001C0
E001E0
ENDCHAR
STARTCHAR 00C5
ENCODING 197
SWIDTH 760 0
DWIDTH 19 0
BBX 19 25 0 0
BITMAP
01E000
013000
031000
011000
01E000
000000
000000
00E000
01F000
01F000
03F000
03B800
073800
071C00
0F1C00
0E0E00
0E0E00
1C0F00
1FFF00
3FFF00
3FFF80
780380
7003C0
7001C0
E001E0
ENDCHAR
STARTCHAR 00C6
ENCODING 198
SWIDTH 1080 0
DWIDTH 27 0
BBX 25 18 0 0
BITMAP
003FFF80
007FFF80
007FFF80
00EE0000
01EE0000
01CE0000
03CE0000
038FFF00
078FFF00
070FFF00
0E0E0000
0FFE0000
1FFE0000
3FFE0000
380E0000
780FFF80
700FFF80
F00FFF80
ENDCHAR
STARTCHAR 00C7
ENCODING 199
SWIDTH 720 0
DWIDTH 18 0
BBX 16 24 1 -6
BITMAP
03F8
0FFE
1FFF
3E0F
7802
7000
F000
F000
E000
E000
F000
F000
7000
7802
3E0F
1FFF
0FFE
03F8
00C0
00E0
0070
0070
03E0
0180
ENDCHAR
STARTCHAR 00C8
ENCODING 200
SWIDTH 680 0
DWIDTH 17 0
BBX 13 23 2 0
BITMAP
3C00
0E00
0700
0000
0000
FFF8
FFF8
FFF8
F000
F000
F000
F000
FFF0
FFF0
FFF0
F000
F000
F000
F000
F000
FFF8
FFF8
FFF8
ENDCHAR
STARTCHAR 00C9
ENCODING 201
SWIDTH 680 0
DWIDTH 17 0
BBX 13 23 2 0
BITMAP
00E0
01C0
0380
0400
0000
FFF8
FFF8
FFF8
F000
F000
F000
F000
FFF0
FFF0
FFF0
F000
F000
F000
F000
F000
FFF8
FFF8
FFF8
ENDCHAR
STARTCHAR 00CA
ENCODING 202
SWIDTH 680 0
DWIDTH 17 0
BBX 13 23 2 0
BITMAP
0780
0FC0
1CE0
2000
0000
FFF8
FFF8
FFF8
F000
F000
F000
F000
FFF0
FFF0
FFF0
F000
F000
F000
F000
F000
FFF8
FFF8
FFF8
ENDCHAR
STARTCHAR 00CB
ENCODING 203
SWIDTH 680 0
DWIDTH 17 0
BBX 13 23 2 0
BITMAP
18C0
1CE0
18C0
0000
0000
FFF8
FFF8
FFF8
F000
F000
F000
F000
FFF0
FFF0
FFF0
F000
F000
F000
F000
F000
FFF8
FFF8
FFF8
ENDCHAR
STARTCHAR 00CC
ENCODING 204
SWIDTH 320 0
DWIDTH 8 0
BBX 6 23 0 0
BITMAP
E0
70
38
04
00
3C
3C
3C
3C
3C
3C
3C
3C
3C
3C
3C
3C
3C
3C
3C
3C
3C
3C
ENDCHAR
STARTCHAR 00CD
ENCODING 205
SWIDTH 320 0
DWIDTH 8 0
BBX 6 23 2 0
BITMAP
1C
38
70
80
00
F0
F0
F0
F0
F0
F0
F0
F0
F0
F0
F0
F0
F0
F0
F0
F0
F0
F0
ENDCHAR
STARTCHAR 00CE
ENCODING 206
SWIDTH 320 0
DWIDTH 8 0
BBX 8 23 0 0
BITMAP
3C
7E
E7
00
00
3C
3C
3C
3C
3C
3C
3C
3C
3C
3C
3C
3C
3C
3C
3C
3C
3C
3C
ENDCHAR
STARTCHAR 00CF
ENCODING 207
SWIDTH 320 0
DWIDTH 8 0
BBX 8 23 0 0
BITMAP
E7
E7
E7
00
00
3C
3C
3C
3C
3C
3C
3C
3C
3C
3C
3C
3C
3C
3C
3C
3C
3C
3C
ENDCHAR
STARTCHAR 00D0
ENCODING 208
SWIDTH 840 0
DWIDTH 21 0
BBX 20 18 0 0
BITMAP
1FFC00
1FFF00
1FFF80
1C07C0
1C01E0
1C00E0
1C00F0
1C00F0
FFE0F0
FFE070
1C00F0
1C00E0
1C00E0
1C01E0
1C03C0
1FFF80
1FFF00
1FFC00
ENDCHAR
STARTCHAR 00D1
ENCODING 209
SWIDTH 800 0
DWIDTH 20 0
BBX 16 23 2 0
BITMAP
0600
0F98
0CF0
0060
0000
E007
F007
F807
FC07
FE07
FE07
FF07
F787
F3C7
F3E7
F1E7
F0F7
F07F
F03F
F03F
F01F
F00F
F007
ENDCHAR
STARTCHAR 00D2
ENCODING 210
SWIDTH 840 0
DWIDTH 21 0
BBX 19 22 1 0
BITMAP
078000
01C000
00E000
000000
03F800
0FFE00
1FFF00
3E0F80
7803C0
7001C0
F001E0
F001E0
E000E0
E000E0
F000E0
F001E0
7001C0
7803C0
3E0F80
1FFF00
0FFE00
03F800
ENDCHAR
STARTCHAR 00D3
ENCODING 211
SWIDTH 840 0
DWIDTH 21 0
BBX 19 22 1 0
BITMAP
003C00
007000
00E000
000000
03F800
0FFE00
1FFF00
3E0F80
7803C0
7001C0
F001E0
F001E0
E000E0
E000E0
F000E0
F001E0
7001C0
7803C0
3E0F80
1FFF00
0FFE00
03F800
ENDCHAR
STARTCHAR 00D4
ENCODING 212
SWIDTH 840 0
DWIDTH 21 0
BBX 19 22 1 0
BITMAP
01F000
03B800
071C00
000000
03F800
0FFE00
1FFF00
3E0F80
7803C0
7001C0
F001E0
F001E0
E000E0
E000E0
F000E0
F001E0
7001C0
7803C0
3E0F80
1FFF00
0FFE00
03F800
ENDCHAR
STARTCHAR 00D5
ENCODING 213
SWIDTH 840 0
DWIDTH 21 0
BBX 19 23 1 0
BITMAP
010000
03CC00
067C00
063800
000000
03F800
0FFE00
1FFF00
3E0F80
7803C0
7001C0
F001E0
F001E0
E000E0
E000E0
F000E0
F001E0
7001C0
7803C0
3E0F80
1FFF00
0FFE00
03F800
ENDCHAR
STARTCHAR 00D6
ENCODING 214
SWIDTH 840 0
DWIDTH 21 0
BBX 19 22 1 0
BITMAP
031800
03B800
031800
000000
03F800
0FFE00
1FFF00
3E0F80
7803C0
7001C0
F001E0
F001E0
E000E0
E000E0
F000E0
F001E0
7001C0
7803C0
3E0F80
1FFF00
0FFE00
03F800
ENDCHAR
STARTCHAR 00D7
ENCODING 215
SWIDTH 600 0
DWIDTH 15 0
BBX 9 10 3 4
BITMAP
4100
E380
F780
7F00
3E00
3E00
7F00
F780
E380
4100
ENDCHAR
STARTCHAR 00D8
ENCODING 216
SWIDTH 840 0
DWIDTH 21 0
BBX 19 20 1 -1
BITMAP
0001C0
03FB80
0FFF00
1FFF00
3E0F80
780FC0
7019C0
F031E0
F071E0
E060E0
E0C0E0
F1C0E0
F181E0
7301C0
7E03C0
3E0F80
1FFF00
1FFE00
3BF800
300000
ENDCHAR
STARTCHAR 00D9
ENCODING 217
SWIDTH 800 0
DWIDTH 20 0
BBX 16 23 2 0
BITMAP
0E00
0700
0380
0000
0000
E00F
E00F
E00F
E00F
E00F
E00F
E00F
E00F
E00F
E00F
E00F
F00E
F00E
700E
781E
3FFC
1FF8
07E0
ENDCHAR
STARTCHAR 00DA
ENCODING 218
SWIDTH 800 0
DWIDTH 20 0
BBX 16 23 2 0
BITMAP
0070
00E0
01C0
0200
0000
E00F
E00F
E00F
E00F
E00F
E00F
E00F
E00F
E00F
E00F
E00F
F00E
F00E
700E
781E
3FFC
1FF8
07E0
ENDCHAR
STARTCHAR 00DB
ENCODING 219
SWIDTH 800 0
DWIDTH 20 0
BBX 16 23 2 0
BITMAP
03C0
07E0
0E70
0000
0000
E00F
E00F
E00F
E00F
E00F
E00F
E00F
E00F
E00F
E00F
E00F
F00E
F00E
700E
781E
3FFC
1FF8
07E0
ENDCHAR
STARTCHAR 00DC
ENCODING 220
SWIDTH 800 0
DWIDTH 20 0
BBX 16 23 2 0
BITMAP
0E60
0E70
0E60
0000
0000
E00F
E00F
E00F
E00F
E00F
E00F
E00F
E00F
E00F
E00F
E00F
F00E
F00E
700E
781E
3FFC
1FF8
07E0
ENDCHAR
STARTCHAR 00DD
ENCODING 221
SWIDTH 680 0
DWIDTH 17 0
BBX 16 23 0 0
BITMAP
0078
00E0
01C0
0000
0000
F007
7007
780E
381E
3C1C
1C3C
0E38
0F70
0770
07E0
03E0
01C0
01C0
01C0
01C0
01C0
01C0
01C0
ENDCHAR
STARTCHAR 00DE
ENCODING 222
SWIDTH 720 0
DWIDTH 18 0
BBX 15 18 2 0
BITMAP
F000
F000
FFE0
FFF8
FFFC
F03C
F01E
F00E
F00E
F00E
F01E
F03C
FFFC
FFF0
FF80
F000
F000
F000
ENDCHAR
STARTCHAR 00DF
ENCODING 223
SWIDTH 680 0
DWIDTH 17 0
BBX 14 19 2 0
BITMAP
0F80
3FE0
7FF0
7070
E038
E038
E070
E070
E3E0
E3F0
E3F8
E03C
E01C
E01C
E01C
E03C
E7F8
E7F8
E7E0
ENDCHAR
STARTCHAR 00E0
ENCODING 224
SWIDTH 600 0
DWIDTH 15 0
BBX 12 19 1 0
BITMAP
3C00
1E00
0700
0000
0000
1F80
7FE0
7FF0
40F0
0070
0070
3FF0
7FF0
F070
E070
E070
F1F0
7FF0
1F70
ENDCHAR
STARTCHAR 00E1
ENCODING 225
SWIDTH 600 0
DWIDTH 15 0
BBX 12 19 1 0
BITMAP
01E0
0380
0700
0000
0000
1F80
7FE0
7FF0
40F0
0070
0070
3FF0
7FF0
F070
E070
E070
F1F0
7FF0
1F70
ENDCHAR
STARTCHAR 00E2
ENCODING 226
SWIDTH 600 0
DWIDTH 15 0
BBX 12 19 1 0
BITMAP
0F00
0F80
19C0
2020
0000
1F80
7FE0
7FF0
40F0
0070
0070
3FF0
7FF0
F070
E070
E070
F1F0
7FF0
1F70
ENDCHAR
STARTCHAR 00E3
ENCODING 227
SWIDTH 600 0
DWIDTH 15 0
BBX 12 19 1 0
BITMAP
1800
3E60
33C0
0000
0000
1F80
7FE0
7FF0
40F0
0070
0070
3FF0
7FF0
F070
E070
E070
F1F0
7FF0
1F70
ENDCHAR
STARTCHAR 00E4
ENCODING 228
SWIDTH 600 0
DWIDTH 15 0
BBX 12 19 1 0
BITMAP
18C0
39C0
18C0
0000
0000
1F80
7FE0
7FF0
40F0
0070
0070
3FF0
7FF0
F070
E070
E070
F1F0
7FF0
1F70
ENDCHAR
STARTCHAR 00E5
ENCODING 229
SWIDTH 600 0
DWIDTH 15 0
BBX 12 21 1 0
BITMAP
0700
0D80
0880
0880
0D80
0700
0000
1F80
7FE0
7FF0
40F0
0070
0070
3FF0
7FF0
F070
E070
E070
F1F0
7FF0
1F70
ENDCHAR
STARTCHAR 00E6
ENCODING 230
SWIDTH 1000 0
DWIDTH 25 0
BBX 23 14 1 0
BITMAP
1F87E0
7FEFF8
7FFFF8
40F81C
00781E
00700E
3FFFFE
7FFFFE
F07000
E07800
E07C18
F9FFFC
7FCFF8
1F07E0
ENDCHAR
STARTCHAR 00E7
ENCODING 231
SWIDTH 600 0
DWIDTH 15 0
BBX 13 20 1 -6
BITMAP
0FC0
1FF0
7FF8
7830
F020
E000
E000
E000
E000
F020
7830
7FF0
3FF0
0FC0
0200
0700
0180
0180
0F80
0600
ENDCHAR
STARTCHAR 00E8
ENCODING 232
SWIDTH 640 0
DWIDTH 16 0
BBX 14 19 1 0
BITMAP
3C00
0E00
0700
0000
0000
0FC0
3FE0
7FF0
7078
F038
E018
FFFC
FFFC
E000
F000
7830
7FF0
3FF0
0FC0
ENDCHAR
STARTCHAR 00E9
ENCODING 233
SWIDTH 640 0
DWIDTH 16 0
BBX 14 19 1 0
BITMAP
00E0
01C0
0380
0400
0000
0FC0
3FE0
7FF0
7078
F038
E018
FFFC
FFFC
E000
F000
7830
7FF0
3FF0
0FC0
ENDCHAR
STARTCHAR 00EA
ENCODING 234
SWIDTH 640 0
DWIDTH 16 0
BBX 14 19 1 0
BITMAP
0780
0FC0
1CE0
2000
0000
0FC0
3FE0
7FF0
7078
F038
E018
FFFC
FFFC
E000
F000
7830
7FF0
3FF0
0FC0
ENDCHAR
STARTCHAR 00EB
ENCODING 235
SWIDTH 640 0
DWIDTH 16 0
BBX 14 19 1 0
BITMAP
18C0
1CE0
18C0
0000
0000
0FC0
3FE0
7FF0
7078
F038
E018
FFFC
FFFC
E000
F000
7830
7FF0
3FF0
0FC0
ENDCHAR
STARTCHAR 00EC
ENCODING 236
SWIDTH 280 0
DWIDTH 7 0
BBX 6 19 -1 0
BITMAP
F0
38
1C
00
00
1C
1C
1C
1C
1C
1C
1C
1C
1C
1C
1C
1C
1C
1C
ENDCHAR
STARTCHAR 00ED
ENCODING 237
SWIDTH 280 0
DWIDTH 7 0
BBX 6 19 2 0
BITMAP
3C
78
E0
00
00
E0
E0
E0
E0
E0
E0
E0
E0
E0
E0
E0
E0
E0
E0
ENDCHAR
STARTCHAR 00EE
ENCODING 238
SWIDTH 280 0
DWIDTH 7 0
BBX 7 19 0 0
BITMAP
38
7C
EE
00
00
38
38
38
38
38
38
38
38
38
38
38
38
38
38
ENDCHAR
STARTCHAR 00EF
ENCODING 239
SWIDTH 280 0
DWIDTH 7 0
BBX 7 19 0 0
BITMAP
6E
EE
6E
00
00
38
38
38
38
38
38
38
38
38
38
38
38
38
38
ENDCHAR
STARTCHAR 00F0
ENCODING 240
SWIDTH 640 0
DWIDTH 16 0
BBX 14 18 1 1
BITMAP
7FC8
7FF8
21F8
07F8
1F38
383C
001C
0F9C
3FFC
7FFC
F07C
E03C
E03C
E03C
F038
7FF0
3FE0
0F80
ENDCHAR
STARTCHAR 00F1
ENCODING 241
SWIDTH 680 0
DWIDTH 17 0
BBX 13 19 2 0
BITMAP
1800
1E60
33E0
0000
0000
E7C0
FFF0
FFF0
F878
F038
E038
E038
E038
E038
E038
E038
E038
E038
E038
ENDCHAR
STARTCHAR 00F2
ENCODING 242
SWIDTH 640 0
DWIDTH 16 0
BBX 14 19 1 0
BITMAP
1C00
0E00
0700
0080
0000
0FC0
1FF0
7FF8
7878
F03C
E01C
E01C
E01C
E01C
F03C
7838
7FF8
3FF0
0FC0
ENDCHAR
STARTCHAR 00F3
ENCODING 243
SWIDTH 640 0
DWIDTH 16 0
BBX 14 19 1 0
BITMAP
00E0
01C0
0380
0400
0000
0FC0
1FF0
7FF8
7878
F03C
E01C
E01C
E01C
E01C
F03C
7838
7FF8
3FF0
0FC0
ENDCHAR
STARTCHAR 00F4
ENCODING 244
SWIDTH 640 0
DWIDTH 16 0
BBX 14 19 1 0
BITMAP
0780
0FC0
1CE0
0000
0000
0FC0
1FF0
7FF8
7878
F03C
E01C
E01C
E01C
E01C
F03C
7838
7FF8
3FF0
0FC0
ENDCHAR
STARTCHAR 00F5
ENCODING 245
SWIDTH 640 0
DWIDTH 16 0
BBX 14 19 1 0
BITMAP
0C00
1F20
13E0
00C0
0000
0FC0
1FF0
7FF8
7878
F03C
E01C
E01C
E01C
E01C
F03C
7838
7FF8
3FF0
0FC0
ENDCHAR
STARTCHAR 00F6
ENCODING 246
SWIDTH 640 0
DWIDTH 16 0
BBX 14 19 1 0
BITMAP
1CE0
1CE0
1CE0
0000
0000
0FC0
1FF0
7FF8
7878
F03C
E01C
E01C
E01C
E01C
F03C
7838
7FF8
3FF0
0FC0
ENDCHAR
STARTCHAR 00F7
ENCODING 247
SWIDTH 600 0
DWIDTH 15 0
BBX 11 14 2 2
BITMAP
0400
0E00
0E00
0E00
0000
0000
FFE0
FFE0
FFE0
0000
0400
0E00
0E00
0E00
ENDCHAR
STARTCHAR 00F8
ENCODING 248
SWIDTH 640 0
DWIDTH 16 0
BBX 14 17 1 -2
BITMAP
0018
0FF0
1FF0
7FF8
78F8
F0BC
E19C
E31C
E31C
E61C
F43C
7C38
7FF8
3FF0
3FC0
6000
4000
ENDCHAR
STARTCHAR 00F9
ENCODING 249
SWIDTH 680 0
DWIDTH 17 0
BBX 13 19 2 0
BITMAP
3C00
1E00
0700
0000
0000
E038
E038
E038
E038
E038
E038
E038
E038
E038
E078
F078
7FF8
7FF8
1F38
ENDCHAR
STARTCHAR 00FA
ENCODING 250
SWIDTH 680 0
DWIDTH 17 0
BBX 13 19 2 0
BITMAP
01E0
0380
0700
0000
0000
E038
E038
E038
E038
E038
E038
E038
E038
E038
E078
F078
7FF8
7FF8
1F38
ENDCHAR
STARTCHAR 00FB
ENCODING 251
SWIDTH 680 0
DWIDTH 17 0
BBX 13 19 2 0
BITMAP
0700
0F80
18C0
2020
0000
E038
E038
E038
E038
E038
E038
E038
E038
E038
E078
F078
7FF8
7FF8
1F38
ENDCHAR
STARTCHAR 00FC
ENCODING 252
SWIDTH 680 0
DWIDTH 17 0
BBX 13 19 2 0
BITMAP
18C0
1DC0
18C0
0000
0000
E038
E038
E038
E038
E038
E038
E038
E038
E038
E078
F078
7FF8
7FF8
1F38
ENDCHAR
STARTCHAR 00FD
ENCODING 253
SWIDTH 560 0
DWIDTH 14 0
BBX 14 24 0 -5
BITMAP
00E0
01C0
0380
0400
0000
E01C
F01C
7018
7838
3838
3870
1C70
1CE0
1EE0
0EE0
0FC0
07C0
0780
0780
0780
0700
FF00
FE00
7800
ENDCHAR
STARTCHAR 00FE
ENCODING 254
SWIDTH 680 0
DWIDTH 17 0
BBX 14 24 2 -5
BITMAP
E000
E000
E000
E000
E000
E7C0
FFF0
FFF8
F87C
F03C
E01C
E01C
E01C
E01C
F03C
F838
FFF8
FFF0
E7C0
E000
E000
E000
E000
E000
ENDCHAR
STARTCHAR 00FF
ENCODING 255
SWIDTH 560 0
DWIDTH 14 0
BBX 14 24 0 -5
BITMAP
1CC0
1CE0
1CC0
0000
0000
E01C
F01C
7018
7838
3838
3870
1C70
1CE0
1EE0
0EE0
0FC0
07C0
0780
0780
0780
0700
FF00
FE00
7800
ENDCHAR
STARTCHAR 0100
ENCODING 256
SWIDTH 760 0
DWIDTH 19 0
BBX 19 22 0 0
BITMAP
07FC00
07FC00
000000
000000
00E000
01F000
01F000
03F000
03B800
073800
071C00
0F1C00
0E0E00
0E0E00
1C0F00
1FFF00
3FFF00
3FFF80
780380
7003C0
7001C0
E001E0
ENDCHAR
STARTCHAR 0101
ENCODING 257
SWIDTH 600 0
DWIDTH 15 0
BBX 12 18 1 0
BITMAP
3FE0
3FE0
0000
0000
1F80
7FE0
7FF0
40F0
0070
0070
3FF0
7FF0
F070
E070
E070
F1F0
7FF0
1F70
ENDCHAR
STARTCHAR 0102
ENCODING 258
SWIDTH 760 0
DWIDTH 19 0
BBX 19 23 0 0
BITMAP
060C00
071800
03F800
00E000
000000
00E000
01F000
01F000
03F000
03B800
073800
071C00
0F1C00
0E0E00
0E0E00
1C0F00
1FFF00
3FFF00
3FFF80
780380
7003C0
7001C0
E001E0
ENDCHAR
STARTCHAR 0103
ENCODING 259
SWIDTH 600 0
DWIDTH 15 0
BBX 12 19 1 0
BITMAP
3060
38C0
1FC0
0200
0000
1F80
7FE0
7FF0
40F0
0070
0070
3FF0
7FF0
F070
E070
E070
F1F0
7FF0
1F70
ENDCHAR
STARTCHAR 0104
ENCODING 260
SWIDTH 760 0
DWIDTH 19 0
BBX 19 24 0 -6
BITMAP
00E000
01F000
01F000
03F000
03B800
073800
071C00
0F1C00
0E0E00
0E0E00
1C0F00
1FFF00
3FFF00
3FFF80
780380
7003C0
7001C0
E001E0
0001C0
000300
000300
000300
0003E0
0000C0
ENDCHAR
STARTCHAR 0105
ENCODING 261
SWIDTH 600 0
DWIDTH 15 0
BBX 13 20 1 -6
BITMAP
1F80
7FE0
7FF0
40F0
0070
0070
3FF0
7FF0
F070
E070
E070
F1F0
7FF0
3F70
00E0
00C0
0180
01C0
00F8
0060
ENDCHAR
STARTCHAR 0106
ENCODING 262
SWIDTH 720 0
DWIDTH 18 0
BBX 16 22 1 0
BITMAP
003C
0070
00E0
0000
03F8
0FFE
1FFF
3E0F
7802
7000
F000
F000
E000
E000
F000
F000
7000
7802
3E0F
1FFF
0FFE
03F8
ENDCHAR
STARTCHAR 0107
ENCODING 263
SWIDTH 600 0
DWIDTH 15 0
BBX 13 19 1 0
BITMAP
01E0
03C0
0700
0000
0000
0FC0
1FF0
7FF8
7830
F020
E000
E000
E000
E000
F020
7830
7FF0
3FF0
0FC0
ENDCHAR
STARTCHAR 0108
ENCODING 264
SWIDTH 720 0
DWIDTH 18 0
BBX 16 22 1 0
BITMAP
01F0
03B8
071C
0000
03F8
0FFE
1FFF
3E0F
7802
7000
F000
F000
E000
E000
F000
F000
7000
7802
3E0F
1FFF
0FFE
03F8
ENDCHAR
STARTCHAR 0109
ENCODING 265
SWIDTH 600 0
DWIDTH 15 0
BBX 13 19 1 0
BITMAP
0780
0FC0
1CE0
2000
0000
0FC0
1FF0
7FF8
7830
F020
E000
E000
E000
E000
F020
7830
7FF0
3FF0
0FC0
ENDCHAR
STARTCHAR 010A
ENCODING 266
SWIDTH 720 0
DWIDTH 18 0
BBX 16 23 1 0
BITMAP
00E0
00E0
00E0
0040
0000
03F8
0FFE
1FFF
3E0F
7802
7000
F000
F000
E000
E000
F000
F000
7000
7802
3E0F
1FFF
0FFE
03F8
ENDCHAR
STARTCHAR 010B
ENCODING 267
SWIDTH 600 0
DWIDTH 15 0
BBX 13 20 1 0
BITMAP
0200
0700
0700
0700
0000
0000
0FC0
1FF0
7FF8
7830
F020
E000
E000
E000
E000
F020
7830
7FF0
3FF0
0FC0
ENDCHAR
STARTCHAR 010C
ENCODING 268
SWIDTH 720 0
DWIDTH 18 0
BBX 16 22 1 0
BITMAP
073C
03F0
01E0
0000
03F8
0FFE
1FFF
3E0F
7802
7000
F000
F000
E000
E000
F000
F000
7000
7802
3E0F
1FFF
0FFE
03F8
ENDCHAR
STARTCHAR 010D
ENCODING 269
SWIDTH 600 0
DWIDTH 15 0
BBX 13 19 1 0
BITMAP
38E0
1DC0
0F80
0000
0000
0FC0
1FF0
7FF8
7830
F020
E000
E000
E000
E000
F020
7830
7FF0
3FF0
0FC0
ENDCHAR
STARTCHAR 010E
ENCODING 270
SWIDTH 840 0
DWIDTH 21 0
BBX 18 23 2 0
BITMAP
1C7000
0EE000
07C000
000000
000000
FFE000
FFFC00
FFFE00
F01F00
F00780
F00780
F00380
F00380
F003C0
F003C0
F00380
F00380
F00780
F00700
F01F00
FFFE00
FFFC00
FFE000
ENDCHAR
STARTCHAR 010F
ENCODING 271
SWIDTH 680 0
DWIDTH 17 0
BBX 19 20 1 0
BITMAP
0000E0
001CE0
001CE0
001CC0
001CC0
001C00
0F9C00
3FFC00
7FFC00
787C00
F03C00
E01C00
E01C00
E01C00
E01C00
F03C00
783C00
7FFC00
3FFC00
0F9C00
ENDCHAR
STARTCHAR 0110
ENCODING 272
SWIDTH 840 0
DWIDTH 21 0
BBX 20 18 0 0
BITMAP
1FFC00
1FFF00
1FFF80
1C07C0
1C01E0
1C00E0
1C00F0
1C00F0
FFE0F0
FFE070
1C00F0
1C00E0
1C00E0
1C01E0
1C03C0
1FFF80
1FFF00
1FFC00
ENDCHAR
STARTCHAR 0111
ENCODING 273
SWIDTH 680 0
DWIDTH 17 0
BBX 16 19 1 0
BITMAP
001C
001C
03FF
03FF
001C
0F9C
3FFC
7FFC
787C
F03C
E01C
E01C
E01C
E01C
F03C
783C
7FFC
3FFC
0F9C
ENDCHAR
STARTCHAR 0112
ENCODING 274
SWIDTH 680 0
DWIDTH 17 0
BBX 13 22 2 0
BITMAP
3FE0
3FE0
0000
0000
FFF8
FFF8
FFF8
F000
F000
F000
F000
FFF0
FFF0
FFF0
F000
F000
F000
F000
F000
FFF8
FFF8
FFF8
ENDCHAR
STARTCHAR 0113
ENCODING 275
SWIDTH 640 0
DWIDTH 16 0
BBX 14 18 1 0
BITMAP
3FE0
3FE0
0000
0000
0FC0
3FE0
7FF0
7078
F038
E018
FFFC
FFFC
E000
F000
7830
7FF0
3FF0
0FC0
ENDCHAR
STARTCHAR 0114
ENCODING 276
SWIDTH 680 0
DWIDTH 17 0
BBX 13 23 2 0
BITMAP
3860
18E0
1FC0
0700
0000
FFF8
FFF8
FFF8
F000
F000
F000
F000
FFF0
FFF0
FFF0
F000
F000
F000
F000
F000
FFF8
FFF8
FFF8
ENDCHAR
STARTCHAR 0115
ENCODING 277
SWIDTH 640 0
DWIDTH 16 0
BBX 14 19 1 0
BITMAP
3860
18E0
0FC0
0200
0000
0FC0
3FE0
7FF0
7078
F038
E018
FFFC
FFFC
E000
F000
7830
7FF0
3FF0
0FC0
ENDCHAR
STARTCHAR 0116
ENCODING 278
SWIDTH 680 0
DWIDTH 17 0
BBX 13 23 2 0
BITMAP
0300
0780
0700
0200
0000
FFF8
FFF8
FFF8
F000
F000
F000
F000
FFF0
FFF0
FFF0
F000
F000
F000
F000
F000
FFF8
FFF8
FFF8
ENDCHAR
STARTCHAR 0117
ENCODING 279
SWIDTH 640 0
DWIDTH 16 0
BBX 14 19 1 1
BITMAP
0700
0780
0700
0000
0000
0FC0
3FE0
7FF0
7078
F038
E018
FFFC
FFFC
E000
F000
7830
7FF0
3FF0
0FC0
ENDCHAR
STARTCHAR 0118
ENCODING 280
SWIDTH 680 0
DWIDTH 17 0
BBX 14 24 2 -6
BITMAP
FFF8
FFF8
FFF8
F000
F000
F000
F000
FFF0
FFF0
FFF0
F000
F000
F000
F000
F000
FFF8
FFF8
FFF8
0030
0060
00E0
00E0
007C
0038
ENDCHAR
STARTCHAR 0119
ENCODING 281
SWIDTH 640 0
DWIDTH 16 0
BBX 14 20 1 -6
BITMAP
0FC0
3FE0
7FF0
7078
F038
E018
FFFC
FFFC
E000
F000
7830
7FF0
3FF0
0FE0
00C0
0180
0180
0180
01F0
0060
ENDCHAR
STARTCHAR 011A
ENCODING 282
SWIDTH 680 0
DWIDTH 17 0
BBX 13 23 2 0
BITMAP
38E0
1DC0
0F80
0000
0000
FFF8
FFF8
FFF8
F000
F000
F000
F000
FFF0
FFF0
FFF0
F000
F000
F000
F000
F000
FFF8
FFF8
FFF8
ENDCHAR
STARTCHAR 011B
ENCODING 283
SWIDTH 640 0
DWIDTH 16 0
BBX 14 19 1 0
BITMAP
38E0
1DC0
0F80
0000
0000
0FC0
3FE0
7FF0
7078
F038
E018
FFFC
FFFC
E000
F000
7830
7FF0
3FF0
0FC0
ENDCHAR
STARTCHAR 011C
ENCODING 284
SWIDTH 760 0
DWIDTH 19 0
BBX 16 22 1 0
BITMAP
01F0
03B8
071C
0000
03F8
0FFE
1FFF
3E07
7802
7000
F000
F000
E000
E007
F007
F007
7007
7807
3E07
1FFF
0FFE
03F8
ENDCHAR
STARTCHAR 011D
ENCODING 285
SWIDTH 680 0
DWIDTH 17 0
BBX 14 24 1 -5
BITMAP
0780
0FC0
1CE0
0010
0000
0F9C
3FFC
7FFC
783C
F01C
E01C
E01C
E01C
F01C
783C
7FFC
3FFC
0F9C
001C
001C
603C
7FF8
7FF0
1FC0
ENDCHAR
STARTCHAR 011E
ENCODING 286
SWIDTH 760 0
DWIDTH 19 0
BBX 16 23 1 0
BITMAP
060C
0718
03F8
01F0
0000
03F8
0FFE
1FFF
3E07
7802
7000
F000
F000
E000
E007
F007
F007
7007
7807
3E07
1FFF
0FFE
03F8
ENDCHAR
STARTCHAR 011F
ENCODING 287
SWIDTH 680 0
DWIDTH 17 0
BBX 14 24 1 -5
BITMAP
1830
1C60
0FE0
0100
0000
0F9C
3FFC
7FFC
783C
F01C
E01C
E01C
E01C
F01C
783C
7FFC
3FFC
0F9C
001C
001C
603C
7FF8
7FF0
1FC0
ENDCHAR
STARTCHAR 0120
ENCODING 288
SWIDTH 760 0
DWIDTH 19 0
BBX 16 23 1 0
BITMAP
00E0
00E0
00E0
0040
0000
03F8
0FFE
1FFF
3E07
7802
7000
F000
F000
E000
E007
F007
F007
7007
7807
3E07
1FFF
0FFE
03F8
ENDCHAR
STARTCHAR 0121
ENCODING 289
SWIDTH 680 0
DWIDTH 17 0
BBX 14 25 1 -5
BITMAP
0100
0380
0380
0380
0000
0000
0F9C
3FFC
7FFC
783C
F01C
E01C
E01C
E01C
F01C
783C
7FFC
3FFC
0F9C
001C
001C
603C
7FF8
7FF0
1FC0
ENDCHAR
STARTCHAR 0122
ENCODING 290
SWIDTH 760 0
DWIDTH 19 0
BBX 16 25 1 -7
BITMAP
03F8
0FFE
1FFF
3E07
7802
7000
F000
F000
E000
E007
F007
F007
7007
7807
3E07
1FFF
0FFE
03F8
0000
0000
00C0
00E0
00C0
00C0
0080
ENDCHAR
STARTCHAR 0123
ENCODING 291
SWIDTH 680 0
DWIDTH 17 0
BBX 14 26 1 -5
BITMAP
0180
0100
0300
0380
0380
0000
0000
0F9C
3FFC
7FFC
783C
F01C
E01C
E01C
E01C
F01C
783C
7FFC
3FFC
0F9C
001C
001C
603C
7FF8
7FF0
1FC0
ENDCHAR
STARTCHAR 0124
ENCODING 292
SWIDTH 800 0
DWIDTH 20 0
BBX 16 23 2 0
BITMAP
03C0
07E0
0E70
0000
0000
F007
F007
F007
F007
F007
F007
F007
FFFF
FFFF
FFFF
F007
F007
F007
F007
F007
F007
F007
F007
ENDCHAR
STARTCHAR 0125
ENCODING 293
SWIDTH 680 0
DWIDTH 17 0
BBX 16 24 -1 0
BITMAP
1E00
3F00
7300
8080
0000
1C00
1C00
1C00
1C00
1C00
1CF8
1FFE
1FFE
1F0F
1E07
1C07
1C07
1C07
1C07
1C07
1C07
1C07
1C07
1C07
ENDCHAR
STARTCHAR 0126
ENCODING 294
SWIDTH 840 0
DWIDTH 21 0
BBX 21 18 0 0
BITMAP
1C01C0
1C01C0
1C01C0
FFFFF8
FFFFF8
1C01C0
1C01C0
1C01C0
1FFFC0
1FFFC0
1FFFC0
1C01C0
1C01C0
1C01C0
1C01C0
1C01C0
1C01C0
1C01C0
ENDCHAR
STARTCHAR 0127
ENCODING 295
SWIDTH 680 0
DWIDTH 17 0
BBX 15 19 0 0
BITMAP
3800
3800
FFC0
FFC0
3800
39F0
3FFC
3FFC
3E1E
3C0E
380E
380E
380E
380E
380E
380E
380E
380E
380E
ENDCHAR
STARTCHAR 0128
ENCODING 296
SWIDTH 320 0
DWIDTH 8 0
BBX 8 23 0 0
BITMAP
60
F9
9F
0E
00
3C
3C
3C
3C
3C
3C
3C
3C
3C
3C
3C
3C
3C
3C
3C
3C
3C
3C
ENDCHAR
STARTCHAR 0129
ENCODING 297
SWIDTH 280 0
DWIDTH 7 0
BBX 7 19 0 0
BITMAP
60
F2
DE
0C
00
38
38
38
38
38
38
38
38
38
38
38
38
38
38
ENDCHAR
STARTCHAR 012A
ENCODING 298
SWIDTH 320 0
DWIDTH 8 0
BBX 7 22 0 0
BITMAP
FE
FE
00
00
3C
3C
3C
3C
3C
3C
3C
3C
3C
3C
3C
3C
3C
3C
3C
3C
3C
3C
ENDCHAR
STARTCHAR 012B
ENCODING 299
SWIDTH 280 0
DWIDTH 7 0
BBX 7 18 0 0
BITMAP
FE
FE
00
00
38
38
38
38
38
38
38
38
38
38
38
38
38
38
ENDCHAR
STARTCHAR 012C
ENCODING 300
SWIDTH 320 0
DWIDTH 8 0
BBX 8 23 0 0
BITMAP
C3
C3
7E
38
00
3C
3C
3C
3C
3C
3C
3C
3C
3C
3C
3C
3C
3C
3C
3C
3C
3C
3C
ENDCHAR
STARTCHAR 012D
ENCODING 301
SWIDTH 280 0
DWIDTH 7 0
BBX 7 19 0 0
BITMAP
C6
C6
7C
10
00
38
38
38
38
38
38
38
38
38
38
38
38
38
38
ENDCHAR
STARTCHAR 012E
ENCODING 302
SWIDTH 320 0
DWIDTH 8 0
BBX 4 24 2 -6
BITMAP
F0
F0
F0
F0
F0
F0
F0
F0
F0
F0
F0
F0
F0
F0
F0
F0
F0
F0
60
C0
C0
C0
F0
20
ENDCHAR
STARTCHAR 012F
ENCODING 303
SWIDTH 280 0
DWIDTH 7 0
BBX 4 26 2 -6
BITMAP
E0
F0
E0
60
00
00
E0
E0
E0
E0
E0
E0
E0
E0
E0
E0
E0
E0
E0
E0
60
C0
C0
C0
F0
60
ENDCHAR
STARTCHAR 0130
ENCODING 304
SWIDTH 320 0
DWIDTH 8 0
BBX 4 23 2 0
BITMAP
60
F0
F0
00
00
F0
F0
F0
F0
F0
F0
F0
F0
F0
F0
F0
F0
F0
F0
F0
F0
F0
F0
ENDCHAR
STARTCHAR 0131
ENCODING 305
SWIDTH 280 0
DWIDTH 7 0
BBX 3 14 2 0
BITMAP
E0
E0
E0
E0
E0
E0
E0
E0
E0
E0
E0
E0
E0
E0
ENDCHAR
STARTCHAR 0132
ENCODING 306
SWIDTH 720 0
DWIDTH 18 0
BBX 14 18 2 0
BITMAP
E01C
E01C
E01C
E01C
E01C
E01C
E01C
E01C
E01C
E01C
001C
001C
003C
0038
6078
FFF0
FFE0
1F80
ENDCHAR
STARTCHAR 0133
ENCODING 307
SWIDTH 600 0
DWIDTH 15 0
BBX 11 25 2 -5
BITMAP
E0C0
F1E0
E1E0
60C0
0000
0000
E1E0
E1E0
E1E0
E1E0
E1E0
E1E0
E1E0
E1E0
E1E0
E1E0
E1E0
E1E0
E1E0
E1E0
01E0
01C0
0FC0
1FC0
1F00
ENDCHAR
STARTCHAR 0134
ENCODING 308
SWIDTH 520 0
DWIDTH 13 0
BBX 11 23 0 0
BITMAP
0F00
1F80
39C0
0020
0000
7FE0
7FE0
7FE0
00E0
00E0
00E0
00E0
00E0
00E0
00E0
00E0
00E0
00E0
40E0
E1E0
FFC0
7F80
3F00
ENDCHAR
STARTCHAR 0135
ENCODING 309
SWIDTH 280 0
DWIDTH 7 0
BBX 9 24 -2 -5
BITMAP
0F00
1F00
3980
0000
0000
0E00
0E00
0E00
0E00
0E00
0E00
0E00
0E00
0E00
0E00
0E00
0E00
0E00
0E00
0E00
0E00
FE00
FC00
F800
ENDCHAR
STARTCHAR 0136
ENCODING 310
SWIDTH 720 0
DWIDTH 18 0
BBX 16 25 2 -7
BITMAP
F00E
F01E
F03C
F078
F0F0
F1E0
F3C0
F780
FF80
FFC0
FFC0
F9E0
F0F0
F078
F03C
F03C
F01E
F00F
0000
0000
0380
0380
0180
0300
0300
ENDCHAR
STARTCHAR 0137
ENCODING 311
SWIDTH 640 0
DWIDTH 16 0
BBX 14 26 2 -7
BITMAP
E000
E000
E000
E000
E000
E078
E0F0
E1E0
E3C0
E780
EF00
FF00
FF80
FBC0
F1E0
E1E0
E0F0
E078
E03C
0000
0000
0600
0E00
0600
0600
0400
ENDCHAR
STARTCHAR 0138
ENCODING 312
SWIDTH 640 0
DWIDTH 16 0
BBX 14 14 2 0
BITMAP
E078
E0F0
E1E0
E3C0
E780
EF00
FF00
FF80
FBC0
F1E0
E1E0
E0F0
E078
E03C
ENDCHAR
STARTCHAR 0139
ENCODING 313
SWIDTH 600 0
DWIDTH 15 0
BBX 13 23 2 0
BITMAP
1C00
3800
7000
8000
0000
F000
F000
F000
F000
F000
F000
F000
F000
F000
F000
F000
F000
F000
F000
F000
FFF8
FFF8
FFF8
ENDCHAR
STARTCHAR 013A
ENCODING 314
SWIDTH 280 0
DWIDTH 7 0
BBX 6 24 2 0
BITMAP
3C
70
E0
00
00
E0
E0
E0
E0
E0
E0
E0
E0
E0
E0
E0
E0
E0
E0
E0
E0
E0
E0
E0
ENDCHAR
STARTCHAR 013B
ENCODING 315
SWIDTH 600 0
DWIDTH 15 0
BBX 13 25 2 -7
BITMAP
F000
F000
F000
F000
F000
F000
F000
F000
F000
F000
F000
F000
F000
F000
F000
FFF8
FFF8
FFF8
0000
0000
0300
0700
0300
0300
0200
ENDCHAR
STARTCHAR 013C
ENCODING 316
SWIDTH 280 0
DWIDTH 7 0
BBX 3 26 2 -7
BITMAP
E0
E0
E0
E0
E0
E0
E0
E0
E0
E0
E0
E0
E0
E0
E0
E0
E0
E0
E0
00
00
E0
E0
60
40
C0
ENDCHAR
STARTCHAR 013D
ENCODING 317
SWIDTH 600 0
DWIDTH 15 0
BBX 13 19 2 0
BITMAP
0060
F060
F060
F060
F060
F000
F000
F000
F000
F000
F000
F000
F000
F000
F000
F000
FFF8
FFF8
FFF8
ENDCHAR
STARTCHAR 013E
ENCODING 318
SWIDTH 280 0
DWIDTH 7 0
BBX 8 20 2 0
BITMAP
07
E7
E7
E6
E6
E0
E0
E0
E0
E0
E0
E0
E0
E0
E0
E0
E0
E0
E0
E0
ENDCHAR
STARTCHAR 013F
ENCODING 319
SWIDTH 600 0
DWIDTH 15 0
BBX 13 18 2 0
BITMAP
F000
F000
F000
F000
F000
F000
F0E0
F0E0
F0E0
F040
F000
F000
F000
F000
F000
FFF8
FFF8
FFF8
ENDCHAR
STARTCHAR 0140
ENCODING 320
SWIDTH 400 0
DWIDTH 10 0
BBX 8 19 2 0
BITMAP
E0
E0
E0
E0
E0
E0
E0
E0
E7
E7
E7
E0
E0
E0
E0
E0
E0
E0
E0
ENDCHAR
STARTCHAR 0141
ENCODING 321
SWIDTH 600 0
DWIDTH 15 0
BBX 15 18 0 0
BITMAP
1C00
1C00
1C00
1C00
1D80
1FC0
1F00
1E00
3C00
7C00
FC00
5C00
1C00
1C00
1C00
1FFE
1FFE
1FFE
ENDCHAR
STARTCHAR 0142
ENCODING 322
SWIDTH 320 0
DWIDTH 8 0
BBX 8 19 0 0
BITMAP
38
38
38
38
38
38
3A
3F
3E
3C
78
F8
F8
38
38
38
38
38
38
ENDCHAR
STARTCHAR 0143
ENCODING 323
SWIDTH 800 0
DWIDTH 20 0
BBX 16 23 2 0
BITMAP
0070
00E0
01C0
0000
0000
E007
F007
F807
FC07
FE07
FE07
FF07
F787
F3C7
F3E7
F1E7
F0F7
F07F
F03F
F03F
F01F
F00F
F007
ENDCHAR
STARTCHAR 0144
ENCODING 324
SWIDTH 680 0
DWIDTH 17 0
BBX 13 19 2 0
BITMAP
01E0
03C0
0700
0000
0000
E7C0
FFF0
FFF0
F878
F038
E038
E038
E038
E038
E038
E038
E038
E038
E038
ENDCHAR
STARTCHAR 0145
ENCODING 325
SWIDTH 800 0
DWIDTH 20 0
BBX 16 25 2 -7
BITMAP
E007
F007
F807
FC07
FE07
FE07
FF07
F787
F3C7
F3E7
F1E7
F0F7
F07F
F03F
F03F
F01F
F00F
F007
0000
0000
0180
01C0
0180
0180
0100
ENDCHAR
STARTCHAR 0146
ENCODING 326
SWIDTH 680 0
DWIDTH 17 0
BBX 13 21 2 -7
BITMAP
E7C0
FFF0
FFF0
F878
F038
E038
E038
E038
E038
E038
E038
E038
E038
E038
0000
0000
0700
0700
0300
0200
0600
ENDCHAR
STARTCHAR 0147
ENCODING 327
SWIDTH 800 0
DWIDTH 20 0
BBX 16 23 2 0
BITMAP
0E30
0760
03C0
0000
0000
E007
F007
F807
FC07
FE07
FE07
FF07
F787
F3C7
F3E7
F1E7
F0F7
F07F
F03F
F03F
F01F
F00F
F007
ENDCHAR
STARTCHAR 0148
ENCODING 328
SWIDTH 680 0
DWIDTH 17 0
BBX 13 19 2 0
BITMAP
38E0
1DC0
0F80
0000
0000
E7C0
FFF0
FFF0
F878
F038
E038
E038
E038
E038
E038
E038
E038
E038
E038
ENDCHAR
STARTCHAR 0149
ENCODING 329
SWIDTH 800 0
DWIDTH 20 0
BBX 17 18 1 0
BITMAP
C00000
C00000
C00000
C00000
CE7C00
CFFE00
0FFF00
0F0780
0E0780
0E0380
0E0380
0E0380
0E0380
0E0380
0E0380
0E0380
0E0380
0E0380
ENDCHAR
STARTCHAR 014A
ENCODING 330
SWIDTH 800 0
DWIDTH 20 0
BBX 16 23 2 -5
BITMAP
E007
F007
F807
FC07
FE07
FE07
FF07
F787
F3C7
F3E7
F1E7
F0F7
F07F
F03F
F03F
F01F
F00F
F007
0007
010F
03FE
03FC
01F8
ENDCHAR
STARTCHAR 014B
ENCODING 331
SWIDTH 680 0
DWIDTH 17 0
BBX 13 19 2 -5
BITMAP
E7C0
FFF0
FFF0
F878
F038
E038
E038
E038
E038
E038
E038
E038
E038
E038
0038
0038
03F8
03F0
03E0
ENDCHAR
STARTCHAR 014C
ENCODING 332
SWIDTH 840 0
DWIDTH 21 0
BBX 19 22 1 0
BITMAP
07FC00
07FC00
000000
000000
03F800
0FFE00
1FFF00
3E0F80
7803C0
7001C0
F001E0
F001E0
E000E0
E000E0
F000E0
F001E0
7001C0
7803C0
3E0F80
1FFF00
0FFE00
03F800
ENDCHAR
STARTCHAR 014D
ENCODING 333
SWIDTH 640 0
DWIDTH 16 0
BBX 14 18 1 0
BITMAP
1FE0
1FE0
0000
0000
0FC0
1FF0
7FF8
7878
F03C
E01C
E01C
E01C
E01C
F03C
7838
7FF8
3FF0
0FC0
ENDCHAR
STARTCHAR 014E
ENCODING 334
SWIDTH 840 0
DWIDTH 21 0
BBX 19 23 1 0
BITMAP
060C00
071C00
03F800
01F000
000000
03F800
0FFE00
1FFF00
3E0F80
7803C0
7001C0
F001E0
F001E0
E000E0
E000E0
F000E0
F001E0
7001C0
7803C0
3E0F80
1FFF00
0FFE00
03F800
ENDCHAR
STARTCHAR 014F
ENCODING 335
SWIDTH 640 0
DWIDTH 16 0
BBX 14 19 1 0
BITMAP
1860
1C60
0FC0
0300
0000
0FC0
1FF0
7FF8
7878
F03C
E01C
E01C
E01C
E01C
F03C
7838
7FF8
3FF0
0FC0
ENDCHAR
STARTCHAR 0150
ENCODING 336
SWIDTH 840 0
DWIDTH 21 0
BBX 19 22 1 0
BITMAP
01EE00
01CC00
039800
000000
03F800
0FFE00
1FFF00
3E0F80
7803C0
7001C0
F001E0
F001E0
E000E0
E000E0
F000E0
F001E0
7001C0
7803C0
3E0F80
1FFF00
0FFE00
03F800
ENDCHAR
STARTCHAR 0151
ENCODING 337
SWIDTH 640 0
DWIDTH 16 0
BBX 14 19 1 0
BITMAP
0738
0670
0E60
0000
0000
0FC0
1FF0
7FF8
7878
F03C
E01C
E01C
E01C
E01C
F03C
7838
7FF8
3FF0
0FC0
ENDCHAR
STARTCHAR 0152
ENCODING 338
SWIDTH 1120 0
DWIDTH 28 0
BBX 26 18 1 0
BITMAP
03FFFFC0
0FFFFFC0
1FFFFFC0
3C070000
78070000
70070000
F0070000
F007FF80
E007FF80
E007FF80
F0070000
F0070000
70070000
78070000
3E070000
1FFFFFC0
0FFFFFC0
03FFFFC0
ENDCHAR
STARTCHAR 0153
ENCODING 339
SWIDTH 1080 0
DWIDTH 27 0
BBX 25 14 1 0
BITMAP
0FC1F800
1FF3FC00
7FF7FE00
787E0F00
F03E0700
E01C0380
E01FFF80
E01FFF80
E01C0000
F03E0000
783F0600
7FF7FF00
3FF3FE00
0FC1F800
ENDCHAR
STARTCHAR 0154
ENCODING 340
SWIDTH 720 0
DWIDTH 18 0
BBX 15 23 2 0
BITMAP
00F0
01C0
0380
0000
0000
FFE0
FFF8
FFFC
F03C
F01E
F00E
F00E
F00E
F01E
F03C
FFFC
FFF0
FFF0
F070
F078
F03C
F01C
F01E
ENDCHAR
STARTCHAR 0155
ENCODING 341
SWIDTH 440 0
DWIDTH 11 0
BBX 8 19 2 0
BITMAP
07
0E
1C
20
00
E7
FF
FF
F8
F0
E0
E0
E0
E0
E0
E0
E0
E0
E0
ENDCHAR
STARTCHAR 0156
ENCODING 342
SWIDTH 720 0
DWIDTH 18 0
BBX 15 25 2 -7
BITMAP
FFE0
FFF8
FFFC
F03C
F01E
F00E
F00E
F00E
F01E
F03C
FFFC
FFF0
FFF0
F070
F078
F03C
F01C
F01E
0000
0000
0380
0380
0180
0300
0300
ENDCHAR
STARTCHAR 0157
ENCODING 343
SWIDTH 440 0
DWIDTH 11 0
BBX 8 21 2 -7
BITMAP
E7
FF
FF
F8
F0
E0
E0
E0
E0
E0
E0
E0
E0
E0
00
00
E0
E0
60
40
C0
ENDCHAR
STARTCHAR 0158
ENCODING 344
SWIDTH 720 0
DWIDTH 18 0
BBX 15 23 2 0
BITMAP
1C70
0EE0
07C0
0000
0000
FFE0
FFF8
FFFC
F03C
F01E
F00E
F00E
F00E
F01E
F03C
FFFC
FFF0
FFF0
F070
F078
F03C
F01C
F01E
ENDCHAR
STARTCHAR 0159
ENCODING 345
SWIDTH 440 0
DWIDTH 11 0
BBX 8 19 2 0
BITMAP
C7
6E
3C
00
00
E7
FF
FF
F8
F0
E0
E0
E0
E0
E0
E0
E0
E0
E0
ENDCHAR
STARTCHAR 015A
ENCODING 346
SWIDTH 640 0
DWIDTH 16 0
BBX 14 22 1 0
BITMAP
01E0
03C0
0700
0000
0FE0
3FF8
7FF8
7010
F000
F000
F000
7C00
7FC0
1FF0
03F8
007C
003C
001C
603C
FFF8
7FF0
1FC0
ENDCHAR
STARTCHAR 015B
ENCODING 347
SWIDTH 520 0
DWIDTH 13 0
BBX 11 19 1 0
BITMAP
03C0
0700
0E00
0000
0000
1F80
7FE0
FFC0
E040
E000
F000
7F80
3FC0
03E0
00E0
00E0
FFE0
FFC0
3F00
ENDCHAR
STARTCHAR 015C
ENCODING 348
SWIDTH 640 0
DWIDTH 16 0
BBX 14 22 1 0
BITMAP
0780
0FC0
1860
0000
0FE0
3FF8
7FF8
7010
F000
F000
F000
7C00
7FC0
1FF0
03F8
007C
003C
001C
603C
FFF8
7FF0
1FC0
ENDCHAR
STARTCHAR 015D
ENCODING 349
SWIDTH 520 0
DWIDTH 13 0
BBX 11 19 1 0
BITMAP
1E00
3F00
7380
0040
0000
1F80
7FE0
FFC0
E040
E000
F000
7F80
3FC0
03E0
00E0
00E0
FFE0
FFC0
3F00
ENDCHAR
STARTCHAR 015E
ENCODING 350
SWIDTH 640 0
DWIDTH 16 0
BBX 14 24 1 -6
BITMAP
0FE0
3FF8
7FF8
7010
F000
F000
F000
7C00
7FC0
1FF0
03F8
007C
003C
001C
603C
FFF8
7FF0
1FC0
0300
0380
01C0
00C0
0F80
0600
ENDCHAR
STARTCHAR 015F
ENCODING 351
SWIDTH 520 0
DWIDTH 13 0
BBX 11 20 1 -6
BITMAP
1F80
7FE0
FFC0
E040
E000
F000
7F80
3FC0
07E0
00E0
00E0
FFE0
FFC0
3F00
0C00
0E00
0300
0300
1F00
0800
ENDCHAR
STARTCHAR 0160
ENCODING 352
SWIDTH 640 0
DWIDTH 16 0
BBX 14 22 1 0
BITMAP
1CE0
0FC0
0780
0000
0FE0
3FF8
7FF8
7010
F000
F000
F000
7C00
7FC0
1FF0
03F8
007C
003C
001C
603C
FFF8
7FF0
1FC0
ENDCHAR
STARTCHAR 0161
ENCODING 353
SWIDTH 520 0
DWIDTH 13 0
BBX 11 19 1 0
BITMAP
71C0
3B80
1F00
0000
0000
1F80
7FE0
FFC0
E040
E000
F000
7F80
3FC0
03E0
00E0
00E0
FFE0
FFC0
3F00
ENDCHAR
STARTCHAR 0162
ENCODING 354
SWIDTH 600 0
DWIDTH 15 0
BBX 15 24 0 -6
BITMAP
FFFE
FFFE
FFFE
0380
0380
0380
0380
0380
0380
0380
0380
0380
0380
0380
0380
0380
0380
0380
0300
0380
00C0
00C0
07C0
0300
ENDCHAR
STARTCHAR 0163
ENCODING 355
SWIDTH 440 0
DWIDTH 11 0
BBX 10 23 0 -6
BITMAP
3C00
3C00
3C00
3C00
FF80
FF80
3C00
3C00
3C00
3C00
3C00
3C00
3C00
1C00
1F80
1FC0
0F80
0600
0700
0180
0180
0F80
0600
ENDCHAR
STARTCHAR 0164
ENCODING 356
SWIDTH 600 0
DWIDTH 15 0
BBX 15 23 0 0
BITMAP
1C70
0EE0
07C0
0000
0000
FFFE
FFFE
FFFE
0380
0380
0380
0380
0380
0380
0380
0380
0380
0380
0380
0380
0380
0380
0380
ENDCHAR
STARTCHAR 0165
ENCODING 357
SWIDTH 440 0
DWIDTH 11 0
BBX 10 19 0 0
BITMAP
01C0
01C0
3DC0
3DC0
3C00
3C00
FF80
FF80
3C00
3C00
3C00
3C00
3C00
3C00
3C00
1C00
1F80
1FC0
0780
ENDCHAR
STARTCHAR 0166
ENCODING 358
SWIDTH 600 0
DWIDTH 15 0
BBX 15 18 0 0
BITMAP
FFFE
FFFE
FFFE
0380
0380
0380
0380
0380
3FF8
3FF8
0380
0380
0380
0380
0380
0380
0380
0380
ENDCHAR
STARTCHAR 0167
ENCODING 359
SWIDTH 440 0
DWIDTH 11 0
BBX 10 17 0 0
BITMAP
1C00
1C00
1C00
1C00
FF80
FF80
1C00
1C00
1C00
7F80
7F80
1C00
1C00
1C00
1FC0
1FC0
07C0
ENDCHAR
STARTCHAR 0168
ENCODING 360
SWIDTH 800 0
DWIDTH 20 0
BBX 16 23 2 0
BITMAP
0600
0FB0
09F0
00E0
0000
E00F
E00F
E00F
E00F
E00F
E00F
E00F
E00F
E00F
E00F
E00F
F00E
F00E
700E
781E
3FFC
1FF8
07E0
ENDCHAR
STARTCHAR 0169
ENCODING 361
SWIDTH 680 0
DWIDTH 17 0
BBX 13 19 2 0
BITMAP
1800
3E60
33C0
0000
0000
E038
E038
E038
E038
E038
E038
E038
E038
E038
E078
F078
7FF8
7FF8
1F38
ENDCHAR
STARTCHAR 016A
ENCODING 362
SWIDTH 800 0
DWIDTH 20 0
BBX 16 22 2 0
BITMAP
0FF0
0FF0
0000
0000
E00F
E00F
E00F
E00F
E00F
E00F
E00F
E00F
E00F
E00F
E00F
F00E
F00E
700E
781E
3FFC
1FF8
07E0
ENDCHAR
STARTCHAR 016B
ENCODING 363
SWIDTH 680 0
DWIDTH 17 0
BBX 13 18 2 0
BITMAP
3FE0
3FE0
0000
0000
E038
E038
E038
E038
E038
E038
E038
E038
E038
E078
F078
7FF8
7FF8
1F38
ENDCHAR
STARTCHAR 016C
ENCODING 364
SWIDTH 800 0
DWIDTH 20 0
BBX 16 23 2 0
BITMAP
0C30
0C30
07E0
0380
0000
E00F
E00F
E00F
E00F
E00F
E00F
E00F
E00F
E00F
E00F
E00F
F00E
F00E
700E
781E
3FFC
1FF8
07E0
ENDCHAR
STARTCHAR 016D
ENCODING 365
SWIDTH 680 0
DWIDTH 17 0
BBX 13 19 2 0
BITMAP
3060
38C0
1FC0
0200
0000
E038
E038
E038
E038
E038
E038
E038
E038
E038
E078
F078
7FF8
7FF8
1F38
ENDCHAR
STARTCHAR 016E
ENCODING 366
SWIDTH 800 0
DWIDTH 20 0
BBX 16 25 2 0
BITMAP
03C0
0660
0460
0660
03C0
0000
0000
E00F
E00F
E00F
E00F
E00F
E00F
E00F
E00F
E00F
E00F
E00F
F00E
F00E
700E
781E
3FFC
1FF8
07E0
ENDCHAR
STARTCHAR 016F
ENCODING 367
SWIDTH 680 0
DWIDTH 17 0
BBX 13 21 2 0
BITMAP
0F00
0880
0880
0880
0F00
0000
0000
E038
E038
E038
E038
E038
E038
E038
E038
E038
E078
F078
7FF8
7FF8
1F38
ENDCHAR
STARTCHAR 0170
ENCODING 368
SWIDTH 800 0
DWIDTH 20 0
BBX 16 23 2 0
BITMAP
039C
0738
0730
0000
0000
E00F
E00F
E00F
E00F
E00F
E00F
E00F
E00F
E00F
E00F
E00F
F00E
F00E
700E
781E
3FFC
1FF8
07E0
ENDCHAR
STARTCHAR 0171
ENCODING 369
SWIDTH 680 0
DWIDTH 17 0
BBX 13 19 2 0
BITMAP
0770
0E70
1CE0
0000
0000
E038
E038
E038
E038
E038
E038
E038
E038
E038
E078
F078
7FF8
7FF8
1F38
ENDCHAR
STARTCHAR 0172
ENCODING 370
SWIDTH 800 0
DWIDTH 20 0
BBX 16 24 2 -6
BITMAP
E00F
E00F
E00F
E00F
E00F
E00F
E00F
E00F
E00F
E00F
E00F
F00E
F00E
700E
781E
3FFC
1FF8
07E0
0380
0300
0600
0700
03E0
0180
ENDCHAR
STARTCHAR 0173
ENCODING 371
SWIDTH 680 0
DWIDTH 17 0
BBX 13 20 2 -6
BITMAP
E038
E038
E038
E038
E038
E038
E038
E038
E038
E078
F078
7FF8
7FF8
1F38
0070
00E0
00C0
00C0
00F8
0030
ENDCHAR
STARTCHAR 0174
ENCODING 372
SWIDTH 1160 0
DWIDTH 29 0
BBX 27 23 1 0
BITMAP
001E0000
003F0000
00738000
00004000
00000000
E00E00E0
F01E01C0
F01F01C0
701F01C0
703F0380
783B8380
383B8380
38738700
3C71C700
1C71C700
1CE1CF00
1EE0EE00
0EE0EE00
0FC0FE00
0FC07C00
07C07C00
07807C00
07807800
ENDCHAR
STARTCHAR 0175
ENCODING 373
SWIDTH 920 0
DWIDTH 23 0
BBX 23 19 0 0
BITMAP
007800
007C00
00CE00
010100
000000
E0380E
70380C
707C1C
707C1C
387C18
38EE38
38EE38
1CC630
1DC770
1DC770
0F83E0
0F83E0
0F83C0
0701C0
ENDCHAR
STARTCHAR 0176
ENCODING 374
SWIDTH 680 0
DWIDTH 17 0
BBX 16 23 0 0
BITMAP
03C0
07E0
0E70
0008
0000
F007
7007
780E
381E
3C1C
1C3C
0E38
0F70
0770
07E0
03E0
01C0
01C0
01C0
01C0
01C0
01C0
01C0
ENDCHAR
STARTCHAR 0177
ENCODING 375
SWIDTH 560 0
DWIDTH 14 0
BBX 14 24 0 -5
BITMAP
0780
0FC0
1CE0
0000
0000
E01C
F01C
7018
7838
3838
3870
1C70
1CE0
1EE0
0EE0
0FC0
07C0
0780
0780
0780
0700
FF00
FE00
7800
ENDCHAR
STARTCHAR 0178
ENCODING 376
SWIDTH 680 0
DWIDTH 17 0
BBX 16 23 0 0
BITMAP
0630
0E70
0630
0000
0000
F007
7007
780E
381E
3C1C
1C3C
0E38
0F70
0770
07E0
03E0
01C0
01C0
01C0
01C0
01C0
01C0
01C0
ENDCHAR
STARTCHAR 0179
ENCODING 377
SWIDTH 680 0
DWIDTH 17 0
BBX 15 23 1 0
BITMAP
00F0
01E0
0380
0000
0000
FFFE
FFFE
FFFC
003C
0078
00F0
01E0
01C0
03C0
0780
0F00
1E00
1C00
3C00
7800
FFFE
FFFE
FFFE
ENDCHAR
STARTCHAR 017A
ENCODING 378
SWIDTH 520 0
DWIDTH 13 0
BBX 11 19 1 0
BITMAP
03C0
0380
0600
0800
0000
FFE0
FFE0
01E0
03C0
0380
0780
0F00
1E00
1C00
3800
7800
F000
FFE0
FFE0
ENDCHAR
STARTCHAR 017B
ENCODING 379
SWIDTH 680 0
DWIDTH 17 0
BBX 15 23 1 0
BITMAP
0380
0380
0380
0100
0000
FFFE
FFFE
FFFC
003C
0078
00F0
01E0
01C0
03C0
0780
0F00
1E00
1C00
3C00
7800
FFFE
FFFE
FFFE
ENDCHAR
STARTCHAR 017C
ENCODING 380
SWIDTH 520 0
DWIDTH 13 0
BBX 11 20 1 0
BITMAP
0400
0E00
0E00
0E00
0000
0000
FFE0
FFE0
01E0
03C0
0380
0780
0F00
1E00
1C00
3800
7800
F000
FFE0
FFE0
ENDCHAR
STARTCHAR 017D
ENCODING 381
SWIDTH 680 0
DWIDTH 17 0
BBX 15 23 1 0
BITMAP
1C70
0EE0
07C0
0000
0000
FFFE
FFFE
FFFC
003C
0078
00F0
01E0
01C0
03C0
0780
0F00
1E00
1C00
3C00
7800
FFFE
FFFE
FFFE
ENDCHAR
STARTCHAR 017E
ENCODING 382
SWIDTH 520 0
DWIDTH 13 0
BBX 11 19 1 0
BITMAP
71C0
3B80
1F00
0000
0000
FFE0
FFE0
01E0
03C0
0380
0780
0F00
1E00
1C00
3800
7800
F000
FFE0
FFE0
ENDCHAR
STARTCHAR 017F
ENCODING 383
SWIDTH 320 0
DWIDTH 8 0
BBX 9 19 1 0
BITMAP
0F80
1F80
3F80
3800
3800
3800
F800
F800
3800
3800
3800
3800
3800
3800
3800
3800
3800
3800
3800
ENDCHAR
STARTCHAR 018F
ENCODING 399
SWIDTH 800 0
DWIDTH 20 0
BBX 18 18 1 0
BITMAP
03F000
1FFC00
3FFF00
3C0F80
100780
0003C0
0001C0
0001C0
FFFFC0
FFFFC0
FFFFC0
F001C0
7003C0
780380
3C0F80
1FFF00
0FFC00
03F000
ENDCHAR
STARTCHAR 0192
ENCODING 402
SWIDTH 480 0
DWIDTH 12 0
BBX 14 24 -2 -5
BITMAP
007C
00FC
01FC
01C0
0380
0380
0FF8
0FF8
03F8
0380
0380
0380
0780
0700
0700
0700
0700
0700
0700
0700
0E00
FE00
FC00
F800
ENDCHAR
STARTCHAR 01A0
ENCODING 416
SWIDTH 840 0
DWIDTH 21 0
BBX 19 21 1 1
BITMAP
0000E0
000060
0000E0
03FFC0
0FFF80
1FFF00
3E0F80
7803C0
7001C0
F001E0
F001E0
E000E0
E000E0
F000E0
F001E0
7001C0
7803C0
3E0F80
1FFF00
0FFE00
03F800
ENDCHAR
STARTCHAR 01A1
ENCODING 417
SWIDTH 640 0
DWIDTH 16 0
BBX 14 17 1 1
BITMAP
000C
000C
000C
0FF8
1FF0
7FF8
7878
F03C
E01C
E01C
E01C
E01C
F03C
7838
7FF8
3FF0
0FC0
ENDCHAR
STARTCHAR 01AF
ENCODING 431
SWIDTH 800 0
DWIDTH 20 0
BBX 18 22 2 0
BITMAP
0000C0
0000C0
0000C0
0000C0
E00FC0
E00F80
E00F00
E00F00
E00F00
E00F00
E00F00
E00F00
E00F00
E00F00
E00F00
F00E00
F00E00
700E00
781E00
3FFC00
1FF800
07E000
ENDCHAR
STARTCHAR 01B0
ENCODING 432
SWIDTH 680 0
DWIDTH 17 0
BBX 15 18 2 0
BITMAP
0006
0006
0006
0006
E03E
E03C
E038
E038
E038
E038
E038
E038
E038
E078
F078
7FF8
7FF8
1F38
ENDCHAR
STARTCHAR 01B7
ENCODING 439
SWIDTH 640 0
DWIDTH 16 0
BBX 14 18 1 0
BITMAP
FFF8
FFF8
FFF8
00F0
01E0
03C0
0380
0780
07F0
07F8
0078
003C
003C
003C
E078
FFF8
FFF0
1FC0
ENDCHAR
STARTCHAR 01C4
ENCODING 452
SWIDTH 1440 0
DWIDTH 36 0
BBX 34 23 2 0
BITMAP
0000030C00
000001D800
000000F000
0000000000
0000000000
FFE01FFF80
FFFC1FFF80
FFFE1FFF80
F01F000F00
F007800E00
F007801E00
F003803C00
F003807800
F003C0F000
F003C0E000
F00381E000
F00383C000
F007878000
F0070F0000
F01F0F0000
FFFE1FFFC0
FFFC1FFFC0
FFE01FFFC0
ENDCHAR
STARTCHAR 01C5
ENCODING 453
SWIDTH 1360 0
DWIDTH 34 0
BBX 31 19 2 0
BITMAP
0000071C
FFF003B8
FFFC01F0
FFFE0000
F01F0000
F0078FFE
F0078FFE
F003801E
F003C03C
F003C078
F003C070
F00380E0
F00381E0
F00783C0
F0070380
F01F0700
FFFE0F00
FFFC0FFE
FFE00FFE
ENDCHAR
STARTCHAR 01C6
ENCODING 454
SWIDTH 1240 0
DWIDTH 31 0
BBX 28 19 1 0
BITMAP
001C38E0
001C1DC0
001C0F80
001C0000
001C0000
0F9C7FF0
3FFC7FF0
7FFC00F0
703C00E0
F03C01C0
E01C03C0
E01C0780
E01C0F00
E01C0E00
F03C1C00
783C3C00
7FFC7800
3FFC7FF0
0F9C7FF0
ENDCHAR
STARTCHAR 01C7
ENCODING 455
SWIDTH 1120 0
DWIDTH 28 0
BBX 24 18 2 0
BITMAP
F003FF
F003FF
F003FF
F00007
F00007
F00007
F00007
F00007
F00007
F00007
F00007
F00007
F00007
F00207
F0030F
FFFFFE
FFFBFC
FFF9F8
ENDCHAR
STARTCHAR 01C8
ENCODING 456
SWIDTH 880 0
DWIDTH 22 0
BBX 19 25 2 -5
BITMAP
0000C0
0001E0
F001E0
F001C0
F00000
F00000
F001C0
F001C0
F001C0
F001C0
F001C0
F001C0
F001C0
F001C0
F001C0
F001C0
F001C0
FFF9C0
FFF9C0
FFF9C0
0001C0
0001C0
001FC0
001F80
001F00
ENDCHAR
STARTCHAR 01C9
ENCODING 457
SWIDTH 600 0
DWIDTH 15 0
BBX 11 25 2 -5
BITMAP
00C0
E1E0
E1E0
E0C0
E000
E000
E1E0
E1E0
E1E0
E1E0
E1E0
E1E0
E1E0
E1E0
E1E0
E1E0
E1E0
E1E0
E1E0
E1E0
01E0
01C0
0FC0
1FC0
1F00
ENDCHAR
STARTCHAR 01CA
ENCODING 458
SWIDTH 1320 0
DWIDTH 33 0
BBX 29 18 2 0
BITMAP
E0070FF8
F0070FF8
F8070FF8
FC070038
FE070038
FE070038
FF070038
F7870038
F3C70038
F1E70038
F1E70038
F0F70038
F07F0038
F03F0038
F03F1878
F01F3FF0
F00F1FF0
F00707C0
ENDCHAR
STARTCHAR 01CB
ENCODING 459
SWIDTH 1120 0
DWIDTH 28 0
BBX 24 25 2 -5
BITMAP
000006
00000F
E0070F
F00706
F80700
FC0700
FE070F
FE070F
FF070F
F7870F
F3C70F
F1E70F
F1E70F
F0F70F
F07F0F
F03F0F
F03F0F
F01F0F
F00F0F
F0070F
00000F
00000E
00007E
0000FE
0000F8
ENDCHAR
STARTCHAR 01CC
ENCODING 460
SWIDTH 1000 0
DWIDTH 25 0
BBX 21 25 2 -5
BITMAP
000030
000078
000078
000070
000000
000000
E7C070
FFF070
FFF070
F87870
F03870
E03870
E03870
E03870
E03870
E03870
E03870
E03870
E03870
E03870
000070
000070
0007F0
0007E0
0007C0
ENDCHAR
STARTCHAR 01CD
ENCODING 461
SWIDTH 760 0
DWIDTH 19 0
BBX 19 23 0 0
BITMAP
071C00
03B800
01F000
000000
000000
00E000
01F000
01F000
03F000
03B800
073800
071C00
0F1C00
0E0E00
0E0E00
1C0F00
1FFF00
3FFF00
3FFF80
780380
7003C0
7001C0
E001E0
ENDCHAR
STARTCHAR 01CE
ENCODING 462
SWIDTH 600 0
DWIDTH 15 0
BBX 12 19 1 0
BITMAP
38E0
1DC0
0F80
0000
0000
1F80
7FE0
7FF0
40F0
0070
0070
3FF0
7FF0
F070
E070
E070
F1F0
7FF0
1F70
ENDCHAR
STARTCHAR 01D3
ENCODING 467
SWIDTH 800 0
DWIDTH 20 0
BBX 16 23 2 0
BITMAP
0C70
06E0
03C0
0000
0000
E00F
E00F
E00F
E00F
E00F
E00F
E00F
E00F
E00F
E00F
E00F
F00E
F00E
700E
781E
3FFC
1FF8
07E0
ENDCHAR
STARTCHAR 01D4
ENCODING 468
SWIDTH 680 0
DWIDTH 17 0
BBX 13 19 2 0
BITMAP
38E0
1DC0
0F80
0000
0000
E038
E038
E038
E038
E038
E038
E038
E038
E038
E078
F078
7FF8
7FF8
1F38
ENDCHAR
STARTCHAR 01E4
ENCODING 484
SWIDTH 800 0
DWIDTH 20 0
BBX 19 18 1 0
BITMAP
03F800
0FFE00
1FFF00
3E0700
780200
700000
F00000
F00000
E00000
E00700
F00700
F07FE0
707FE0
780700
3E0700
1FFF00
0FFE00
03F800
ENDCHAR
STARTCHAR 01E5
ENCODING 485
SWIDTH 720 0
DWIDTH 18 0
BBX 16 19 1 -5
BITMAP
0F9C
3FFC
7FFC
703C
E01C
E01C
E01C
E01C
F01C
787C
3FFC
1FDC
001C
03FF
03FF
603C
7FF8
7FF0
1FC0
ENDCHAR
STARTCHAR 01E6
ENCODING 486
SWIDTH 760 0
DWIDTH 19 0
BBX 16 22 1 0
BITMAP
073C
03F0
01E0
0000
03F8
0FFE
1FFF
3E07
7802
7000
F000
F000
E000
E007
F007
F007
7007
7807
3E07
1FFF
0FFE
03F8
ENDCHAR
STARTCHAR 01E7
ENCODING 487
SWIDTH 680 0
DWIDTH 17 0
BBX 14 24 1 -5
BITMAP
1C70
0EE0
07C0
0000
0000
0F9C
3FFC
7FFC
783C
F01C
E01C
E01C
E01C
F01C
783C
7FFC
3FFC
0F9C
001C
001C
603C
7FF8
7FF0
1FC0
ENDCHAR
STARTCHAR 01E8
ENCODING 488
SWIDTH 720 0
DWIDTH 18 0
BBX 16 23 2 0
BITMAP
1C70
0EE0
07C0
0000
0000
F00E
F01E
F03C
F078
F0F0
F1E0
F3C0
F780
FF80
FFC0
FFC0
F9E0
F0F0
F078
F03C
F03C
F01E
F00F
ENDCHAR
STARTCHAR 01E9
ENCODING 489
SWIDTH 640 0
DWIDTH 16 0
BBX 17 24 -1 0
BITMAP
F38000
3F0000
1E0000
000000
000000
1C0000
1C0000
1C0000
1C0000
1C0000
1C0F00
1C1E00
1C3C00
1C7800
1CF000
1DE000
1FE000
1FF000
1F7800
1E3C00
1C3C00
1C1E00
1C0F00
1C0780
ENDCHAR
STARTCHAR 01EA
ENCODING 490
SWIDTH 840 0
DWIDTH 21 0
BBX 19 24 1 -6
BITMAP
03F800
0FFE00
1FFF00
3E0F80
7803C0
7001C0
F001E0
F001E0
E000E0
E000E0
F000E0
F001E0
7001C0
7803C0
3E0780
1FFF00
0FFE00
03F800
00C000
018000
018000
018000
01F000
00E000
ENDCHAR
STARTCHAR 01EB
ENCODING 491
SWIDTH 640 0
DWIDTH 16 0
BBX 14 20 1 -6
BITMAP
0FC0
1FF0
7FF8
7878
F03C
E01C
E01C
E01C
E01C
F03C
7838
7FF8
3FF0
0FC0
0300
0600
0600
0600
07C0
0380
ENDCHAR
STARTCHAR 01EE
ENCODING 494
SWIDTH 640 0
DWIDTH 16 0
BBX 14 23 1 0
BITMAP
38E0
1DC0
0F80
0000
0000
FFF8
FFF8
FFF8
00F0
01E0
03C0
0380
0780
07F0
07F8
0078
003C
003C
003C
E078
FFF8
FFF0
1FC0
ENDCHAR
STARTCHAR 01EF
ENCODING 495
SWIDTH 560 0
DWIDTH 14 0
BBX 13 24 0 -5
BITMAP
31C0
1B80
1F00
0000
0000
FFF0
FFF0
FFF0
00E0
01C0
0380
0780
0700
0FC0
0FF0
01F0
0078
0078
0038
0078
E0F0
FFF0
FFE0
3F80
ENDCHAR
STARTCHAR 01FA
ENCODING 506
SWIDTH 760 0
DWIDTH 19 0
BBX 19 27 0 0
BITMAP
000C00
001C00
01F800
013000
031000
011000
01E000
000000
000000
00E000
01F000
01F000
03F000
03B800
073800
071C00
0F1C00
0E0E00
0E0E00
1C0F00
1FFF00
3FFF00
3FFF80
780380
7003C0
7001C0
E001E0
ENDCHAR
STARTCHAR 01FB
ENCODING 507
SWIDTH 600 0
DWIDTH 15 0
BBX 12 23 1 0
BITMAP
0040
0060
07C0
0D80
0880
0880
0D80
0700
0000
1F80
7FE0
7FF0
40F0
0070
0070
3FF0
7FF0
F070
E070
E070
F1F0
7FF0
1F70
ENDCHAR
STARTCHAR 01FC
ENCODING 508
SWIDTH 1080 0
DWIDTH 27 0
BBX 25 23 0 0
BITMAP
0001C000
00038000
00070000
00080000
00000000
003FFF80
007FFF80
007FFF80
00EE0000
01EE0000
01CE0000
03CE0000
038FFF00
078FFF00
070FFF00
0E0E0000
0FFE0000
1FFE0000
3FFE0000
380E0000
780FFF80
700FFF80
F00FFF80
ENDCHAR
STARTCHAR 01FD
ENCODING 509
SWIDTH 1000 0
DWIDTH 25 0
BBX 23 19 1 0
BITMAP
001E00
003C00
007000
000000
000000
1F87E0
7FEFF8
7FFFF8
40F81C
00781E
00700E
3FFFFE
7FFFFE
F07000
E07800
E07C18
F9FFFC
7FCFF8
1F07E0
ENDCHAR
STARTCHAR 01FE
ENCODING 510
SWIDTH 840 0
DWIDTH 21 0
BBX 19 23 1 -1
BITMAP
003C00
007000
00E000
0001C0
03FB80
0FFF00
1FFF00
3E0F80
780FC0
7019C0
F031E0
F071E0
E060E0
E0C0E0
F1C0E0
F181E0
7301C0
7E03C0
3E0F80
1FFF00
1FFE00
3BF800
300000
ENDCHAR
STARTCHAR 01FF
ENCODING 511
SWIDTH 640 0
DWIDTH 16 0
BBX 14 21 1 -2
BITMAP
00E0
01C0
0380
0400
0018
0FF0
1FF0
7FF8
78F8
F0BC
E19C
E31C
E31C
E61C
F43C
7C38
7FF8
3FF0
3FC0
6000
4000
ENDCHAR
STARTCHAR 0200
ENCODING 512
SWIDTH 760 0
DWIDTH 19 0
BBX 19 23 0 0
BITMAP
1EE000
0E7000
073000
000000
000000
00E000
01F000
01F000
03F000
03B800
073800
071C00
0F1C00
0E0E00
0E0E00
1C0F00
1FFF00
3FFF00
3FFF80
780380
7003C0
7001C0
E001E0
ENDCHAR
STARTCHAR 0201
ENCODING 513
SWIDTH 600 0
DWIDTH 15 0
BBX 12 19 1 0
BITMAP
7700
7380
3980
0000
0000
1F80
7FE0
7FF0
40F0
0070
0070
3FF0
7FF0
F070
E070
E070
F1F0
7FF0
1F70
ENDCHAR
STARTCHAR 0202
ENCODING 514
SWIDTH 760 0
DWIDTH 19 0
BBX 19 23 0 0
BITMAP
01F000
03F800
061800
060C00
000000
00E000
01F000
01F000
03F000
03B800
073800
071C00
0F1C00
0E0E00
0E0E00
1C0F00
1FFF00
3FFF00
3FFF80
780380
7003C0
7001C0
E001E0
ENDCHAR
STARTCHAR 0203
ENCODING 515
SWIDTH 600 0
DWIDTH 15 0
BBX 12 19 1 0
BITMAP
0F80
1FC0
38E0
0000
0000
1F80
7FE0
7FF0
40F0
0070
0070
3FF0
7FF0
F070
E070
E070
F1F0
7FF0
1F70
ENDCHAR
STARTCHAR 0204
ENCODING 516
SWIDTH 680 0
DWIDTH 17 0
BBX 13 23 2 0
BITMAP
7380
3B80
39C0
0000
0000
FFF8
FFF8
FFF8
F000
F000
F000
F000
FFF0
FFF0
FFF0
F000
F000
F000
F000
F000
FFF8
FFF8
FFF8
ENDCHAR
STARTCHAR 0205
ENCODING 517
SWIDTH 640 0
DWIDTH 16 0
BBX 14 19 1 0
BITMAP
7380
3B80
39C0
0000
0000
0FC0
3FE0
7FF0
7078
F038
E018
FFFC
FFFC
E000
F000
7830
7FF0
3FF0
0FC0
ENDCHAR
STARTCHAR 0206
ENCODING 518
SWIDTH 680 0
DWIDTH 17 0
BBX 13 23 2 0
BITMAP
0780
1FC0
1860
3860
0000
FFF8
FFF8
FFF8
F000
F000
F000
F000
FFF0
FFF0
FFF0
F000
F000
F000
F000
F000
FFF8
FFF8
FFF8
ENDCHAR
STARTCHAR 0207
ENCODING 519
SWIDTH 640 0
DWIDTH 16 0
BBX 14 19 1 0
BITMAP
0780
1FC0
1860
0000
0000
0FC0
3FE0
7FF0
7078
F038
E018
FFFC
FFFC
E000
F000
7830
7FF0
3FF0
0FC0
ENDCHAR
STARTCHAR 0208
ENCODING 520
SWIDTH 320 0
DWIDTH 8 0
BBX 9 23 -2 0
BITMAP
E700
7300
3380
0000
0000
0F00
0F00
0F00
0F00
0F00
0F00
0F00
0F00
0F00
0F00
0F00
0F00
0F00
0F00
0F00
0F00
0F00
0F00
ENDCHAR
STARTCHAR 0209
ENCODING 521
SWIDTH 280 0
DWIDTH 7 0
BBX 9 19 -2 0
BITMAP
EE00
6700
7380
0000
0000
0E00
0E00
0E00
0E00
0E00
0E00
0E00
0E00
0E00
0E00
0E00
0E00
0E00
0E00
ENDCHAR
STARTCHAR 020A
ENCODING 522
SWIDTH 320 0
DWIDTH 8 0
BBX 8 23 0 0
BITMAP
3C
FF
C3
C3
00
3C
3C
3C
3C
3C
3C
3C
3C
3C
3C
3C
3C
3C
3C
3C
3C
3C
3C
ENDCHAR
STARTCHAR 020B
ENCODING 523
SWIDTH 280 0
DWIDTH 7 0
BBX 7 19 0 0
BITMAP
3C
7E
C6
00
00
38
38
38
38
38
38
38
38
38
38
38
38
38
38
ENDCHAR
STARTCHAR 020C
ENCODING 524
SWIDTH 840 0
DWIDTH 21 0
BBX 19 22 1 0
BITMAP
0EF000
077000
033800
000000
03F800
0FFE00
1FFF00
3E0F80
7803C0
7001C0
F001E0
F001E0
E000E0
E000E0
F000E0
F001E0
7001C0
7803C0
3E0F80
1FFF00
0FFE00
03F800
ENDCHAR
STARTCHAR 020D
ENCODING 525
SWIDTH 640 0
DWIDTH 16 0
BBX 14 19 1 0
BITMAP
7380
3980
19C0
0000
0000
0FC0
1FF0
7FF8
7878
F03C
E01C
E01C
E01C
E01C
F03C
7838
7FF8
3FF0
0FC0
ENDCHAR
STARTCHAR 020E
ENCODING 526
SWIDTH 840 0
DWIDTH 21 0
BBX 19 23 1 0
BITMAP
00E000
03F800
031C00
060C00
000000
03F800
0FFE00
1FFF00
3E0F80
7803C0
7001C0
F001E0
F001E0
E000E0
E000E0
F000E0
F001E0
7001C0
7803C0
3E0F80
1FFF00
0FFE00
03F800
ENDCHAR
STARTCHAR 020F
ENCODING 527
SWIDTH 640 0
DWIDTH 16 0
BBX 14 19 1 0
BITMAP
0780
1FE0
1860
0000
0000
0FC0
1FF0
7FF8
7878
F03C
E01C
E01C
E01C
E01C
F03C
7838
7FF8
3FF0
0FC0
ENDCHAR
STARTCHAR 0210
ENCODING 528
SWIDTH 720 0
DWIDTH 18 0
BBX 15 23 2 0
BITMAP
7380
39C0
1CC0
0000
0000
FFE0
FFF8
FFFC
F03C
F01E
F00E
F00E
F00E
F01E
F03C
FFFC
FFF0
FFF0
F070
F078
F03C
F01C
F01E
ENDCHAR
STARTCHAR 0211
ENCODING 529
SWIDTH 440 0
DWIDTH 11 0
BBX 10 19 0 0
BITMAP
E700
7700
3380
0000
0000
39C0
3FC0
3FC0
3E00
3C00
3800
3800
3800
3800
3800
3800
3800
3800
3800
ENDCHAR
STARTCHAR 0212
ENCODING 530
SWIDTH 720 0
DWIDTH 18 0
BBX 15 23 2 0
BITMAP
07C0
0FE0
1860
1830
0000
FFE0
FFF8
FFFC
F03C
F01E
F00E
F00E
F00E
F01E
F03C
FFFC
FFF0
FFF0
F070
F078
F03C
F01C
F01E
ENDCHAR
STARTCHAR 0213
ENCODING 531
SWIDTH 440 0
DWIDTH 11 0
BBX 8 19 2 0
BITMAP
3C
FF
C3
00
00
E7
FF
FF
F8
F0
E0
E0
E0
E0
E0
E0
E0
E0
E0
ENDCHAR
STARTCHAR 0214
ENCODING 532
SWIDTH 800 0
DWIDTH 20 0
BBX 16 23 2 0
BITMAP
39C0
1DC0
0CE0
0000
0000
E00F
E00F
E00F
E00F
E00F
E00F
E00F
E00F
E00F
E00F
E00F
F00E
F00E
700E
781E
3FFC
1FF8
07E0
ENDCHAR
STARTCHAR 0215
ENCODING 533
SWIDTH 680 0
DWIDTH 17 0
BBX 13 19 2 0
BITMAP
7700
7380
3980
0040
0000
E038
E038
E038
E038
E038
E038
E038
E038
E038
E078
F078
7FF8
7FF8
1F38
ENDCHAR
STARTCHAR 0216
ENCODING 534
SWIDTH 800 0
DWIDTH 20 0
BBX 16 23 2 0
BITMAP
03C0
0FE0
0C30
0C30
0000
E00F
E00F
E00F
E00F
E00F
E00F
E00F
E00F
E00F
E00F
E00F
F00E
F00E
700E
781E
3FFC
1FF8
07E0
ENDCHAR
STARTCHAR 0217
ENCODING 535
SWIDTH 680 0
DWIDTH 17 0
BBX 13 19 2 0
BITMAP
0F80
1FC0
30E0
0000
0000
E038
E038
E038
E038
E038
E038
E038
E038
E038
E078
F078
7FF8
7FF8
1F38
ENDCHAR
STARTCHAR 0218
ENCODING 536
SWIDTH 640 0
DWIDTH 16 0
BBX 14 25 1 -7
BITMAP
0FE0
3FF8
7FF8
7010
F000
F000
F000
7C00
7FC0
1FF0
03F8
007C
003C
001C
603C
FFF8
7FF0
1FC0
0000
0000
0300
0380
0300
0300
0200
ENDCHAR
STARTCHAR 0219
ENCODING 537
SWIDTH 520 0
DWIDTH 13 0
BBX 11 21 1 -7
BITMAP
1F80
7FE0
FFC0
E040
E000
F000
7F80
3FC0
03E0
00E0
00E0
FFE0
FFC0
3F00
0000
0000
0E00
0E00
0600
0C00
0C00
ENDCHAR
STARTCHAR 021A
ENCODING 538
SWIDTH 600 0
DWIDTH 15 0
BBX 15 25 0 -7
BITMAP
FFFE
FFFE
FFFE
0380
0380
0380
0380
0380
0380
0380
0380
0380
0380
0380
0380
0380
0380
0380
0000
0000
0380
0380
0180
0100
0300
ENDCHAR
STARTCHAR 021B
ENCODING 539
SWIDTH 440 0
DWIDTH 11 0
BBX 10 24 0 -7
BITMAP
3C00
3C00
3C00
3C00
FF80
FF80
3C00
3C00
3C00
3C00
3C00
3C00
3C00
1C00
1F80
1FC0
0780
0000
0000
0700
0700
0300
0600
0600
ENDCHAR
STARTCHAR 021E
ENCODING 542
SWIDTH 800 0
DWIDTH 20 0
BBX 16 23 2 0
BITMAP
0E30
0760
03C0
0000
0000
F007
F007
F007
F007
F007
F007
F007
FFFF
FFFF
FFFF
F007
F007
F007
F007
F007
F007
F007
F007
ENDCHAR
STARTCHAR 021F
ENCODING 543
SWIDTH 680 0
DWIDTH 17 0
BBX 16 24 -1 0
BITMAP
F380
3F00
1E00
0000
0000
1C00
1C00
1C00
1C00
1C00
1CF8
1FFE
1FFE
1F0F
1E07
1C07
1C07
1C07
1C07
1C07
1C07
1C07
1C07
1C07
ENDCHAR
STARTCHAR 022A
ENCODING 554
SWIDTH 840 0
DWIDTH 21 0
BBX 19 25 1 0
BITMAP
07FC00
07FC00
000000
031800
03B800
031800
000000
03F800
0FFE00
1FFF00
3E0F80
7803C0
7001C0
F001E0
F001E0
E000E0
E000E0
F000E0
F001E0
7001C0
7803C0
3E0F80
1FFF00
0FFE00
03F800
ENDCHAR
STARTCHAR 022B
ENCODING 555
SWIDTH 640 0
DWIDTH 16 0
BBX 14 22 1 0
BITMAP
1FE0
1FE0
0000
0CC0
1CE0
0CC0
0000
0000
0FC0
1FF0
7FF8
7878
F03C
E01C
E01C
E01C
E01C
F03C
7838
7FF8
3FF0
0FC0
ENDCHAR
STARTCHAR 022C
ENCODING 556
SWIDTH 840 0
DWIDTH 21 0
BBX 19 25 1 0
BITMAP
07FC00
07FC00
000000
03CC00
07FC00
063000
000000
03F800
0FFE00
1FFF00
3E0F80
7803C0
7001C0
F001E0
F001E0
E000E0
E000E0
F000E0
F001E0
7001C0
7803C0
3E0F80
1FFF00
0FFE00
03F800
ENDCHAR
STARTCHAR 022D
ENCODING 557
SWIDTH 640 0
DWIDTH 16 0
BBX 14 22 1 0
BITMAP
1FE0
1FE0
0000
0E20
1FE0
11C0
0000
0000
0FC0
1FF0
7FF8
7878
F03C
E01C
E01C
E01C
E01C
F03C
7838
7FF8
3FF0
0FC0
ENDCHAR
STARTCHAR 0230
ENCODING 560
SWIDTH 840 0
DWIDTH 21 0
BBX 19 25 1 0
BITMAP
07FC00
07FC00
000000
00E000
00E000
00E000
000000
03F800
0FFE00
1FFF00
3E0F80
7803C0
7001C0
F001E0
F001E0
E000E0
E000E0
F000E0
F001E0
7001C0
7803C0
3E0F80
1FFF00
0FFE00
03F800
ENDCHAR
STARTCHAR 0231
ENCODING 561
SWIDTH 640 0
DWIDTH 16 0
BBX 14 22 1 0
BITMAP
1FE0
1FE0
0000
0300
0380
0300
0000
0000
0FC0
1FF0
7FF8
7878
F03C
E01C
E01C
E01C
E01C
F03C
7838
7FF8
3FF0
0FC0
ENDCHAR
STARTCHAR 0232
ENCODING 562
SWIDTH 680 0
DWIDTH 17 0
BBX 16 22 0 0
BITMAP
0FF8
0FF8
0000
0000
F007
7007
780E
381E
3C1C
1C3C
0E38
0F70
0770
07E0
03E0
01C0
01C0
01C0
01C0
01C0
01C0
01C0
ENDCHAR
STARTCHAR 0233
ENCODING 563
SWIDTH 560 0
DWIDTH 14 0
BBX 14 23 0 -5
BITMAP
1FE0
1FE0
0000
0000
E01C
F01C
7018
7838
3838
3870
1C70
1CE0
1EE0
0EE0
0FC0
07C0
0780
0780
0780
0700
FF00
FE00
7800
ENDCHAR
STARTCHAR 0237
ENCODING 567
SWIDTH 280 0
DWIDTH 7 0
BBX 7 19 -2 -5
BITMAP
0E
0E
0E
0E
0E
0E
0E
0E
0E
0E
0E
0E
0E
0E
0E
0E
FE
FC
F8
ENDCHAR
STARTCHAR 0259
ENCODING 601
SWIDTH 640 0
DWIDTH 16 0
BBX 14 14 1 0
BITMAP
1F80
3FE0
7FF0
2078
0038
0038
FFFC
FFFC
E038
E038
7078
7FF0
3FE0
0F80
ENDCHAR
STARTCHAR 0292
ENCODING 658
SWIDTH 560 0
DWIDTH 14 0
BBX 13 19 0 -5
BITMAP
FFF0
FFF0
FFF0
00E0
01C0
0380
0780
0700
0FC0
0FF0
01F0
0078
0078
0038
0078
E0F0
FFF0
FFE0
3F80
ENDCHAR
STARTCHAR 02B9
ENCODING 697
SWIDTH 240 0
DWIDTH 6 0
BBX 3 7 1 11
BITMAP
E0
E0
E0
E0
60
60
60
ENDCHAR
STARTCHAR 02BA
ENCODING 698
SWIDTH 400 0
DWIDTH 10 0
BBX 8 7 1 11
BITMAP
E7
E7
E7
E7
67
67
67
ENDCHAR
STARTCHAR 02BB
ENCODING 699
SWIDTH 280 0
DWIDTH 7 0
BBX 4 8 1 14
BITMAP
30
30
70
60
70
F0
70
60
ENDCHAR
STARTCHAR 02BC
ENCODING 700
SWIDTH 200 0
DWIDTH 5 0
BBX 2 7 1 11
BITMAP
C0
C0
C0
C0
C0
C0
C0
ENDCHAR
STARTCHAR 02BE
ENCODING 702
SWIDTH 600 0
DWIDTH 15 0
BBX 3 5 7 15
BITMAP
E0
20
20
20
E0
ENDCHAR
STARTCHAR 02BF
ENCODING 703
SWIDTH 600 0
DWIDTH 15 0
BBX 3 5 4 15
BITMAP
60
40
C0
40
60
ENDCHAR
STARTCHAR 02C6
ENCODING 710
SWIDTH 600 0
DWIDTH 15 0
BBX 9 3 3 16
BITMAP
1C00
3E00
E380
ENDCHAR
STARTCHAR 02C7
ENCODING 711
SWIDTH 600 0
DWIDTH 15 0
BBX 9 3 3 16
BITMAP
E380
7700
3E00
ENDCHAR
STARTCHAR 02C8
ENCODING 712
SWIDTH 160 0
DWIDTH 4 0
BBX 2 5 1 13
BITMAP
C0
C0
C0
C0
C0
ENDCHAR
STARTCHAR 02C9
ENCODING 713
SWIDTH 600 0
DWIDTH 15 0
BBX 9 2 3 16
BITMAP
FF80
FF80
ENDCHAR
STARTCHAR 02CA
ENCODING 714
SWIDTH 600 0
DWIDTH 15 0
BBX 6 3 6 16
BITMAP
3C
78
E0
ENDCHAR
STARTCHAR 02CB
ENCODING 715
SWIDTH 600 0
DWIDTH 15 0
BBX 6 3 3 16
BITMAP
F0
78
1C
ENDCHAR
STARTCHAR 02CC
ENCODING 716
SWIDTH 200 0
DWIDTH 5 0
BBX 2 5 1 -6
BITMAP
C0
C0
C0
C0
C0
ENDCHAR
STARTCHAR 02D8
ENCODING 728
SWIDTH 600 0
DWIDTH 15 0
BBX 9 4 3 15
BITMAP
C180
6300
7F00
0800
ENDCHAR
STARTCHAR 02D9
ENCODING 729
SWIDTH 600 0
DWIDTH 15 0
BBX 3 4 6 15
BITMAP
E0
E0
E0
40
ENDCHAR
STARTCHAR 02DA
ENCODING 730
SWIDTH 600 0
DWIDTH 15 0
BBX 5 5 5 15
BITMAP
78
88
88
88
F8
ENDCHAR
STARTCHAR 02DB
ENCODING 731
SWIDTH 600 0
DWIDTH 15 0
BBX 5 7 3 -6
BITMAP
30
60
C0
C0
C0
F8
70
ENDCHAR
STARTCHAR 02DC
ENCODING 732
SWIDTH 600 0
DWIDTH 15 0
BBX 9 4 3 15
BITMAP
6000
F980
CF80
0700
ENDCHAR
STARTCHAR 02DD
ENCODING 733
SWIDTH 600 0
DWIDTH 15 0
BBX 9 3 4 16
BITMAP
3B80
7380
E700
ENDCHAR
STARTCHAR 0300
ENCODING 768
SWIDTH 0 0
DWIDTH 0 0
BBX 6 3 -12 16
BITMAP
F0
78
1C
ENDCHAR
STARTCHAR 0301
ENCODING 769
SWIDTH 0 0
DWIDTH 0 0
BBX 6 3 -9 16
BITMAP
3C
78
E0
ENDCHAR
STARTCHAR 0302
ENCODING 770
SWIDTH 0 0
DWIDTH 0 0
BBX 9 3 -12 16
BITMAP
1C00
3E00
E380
ENDCHAR
STARTCHAR 0303
ENCODING 771
SWIDTH 0 0
DWIDTH 0 0
BBX 9 4 -12 15
BITMAP
6000
F980
CF80
0700
ENDCHAR
STARTCHAR 0304
ENCODING 772
SWIDTH 0 0
DWIDTH 0 0
BBX 9 2 -12 16
BITMAP
FF80
FF80
ENDCHAR
STARTCHAR 0306
ENCODING 774
SWIDTH 0 0
DWIDTH 0 0
BBX 9 4 -12 15
BITMAP
C180
6300
7F00
0800
ENDCHAR
STARTCHAR 0307
ENCODING 775
SWIDTH 0 0
DWIDTH 0 0
BBX 3 4 -9 15
BITMAP
E0
E0
E0
40
ENDCHAR
STARTCHAR 0308
ENCODING 776
SWIDTH 0 0
DWIDTH 0 0
BBX 7 3 -11 15
BITMAP
C6
EE
C6
ENDCHAR
STARTCHAR 0309
ENCODING 777
SWIDTH 0 0
DWIDTH 0 0
BBX 5 6 -10 15
BITMAP
70
F8
18
18
38
10
ENDCHAR
STARTCHAR 030A
ENCODING 778
SWIDTH 0 0
DWIDTH 0 0
BBX 5 5 -10 15
BITMAP
78
88
88
88
F8
ENDCHAR
STARTCHAR 030B
ENCODING 779
SWIDTH 0 0
DWIDTH 0 0
BBX 9 3 -11 16
BITMAP
3B80
7380
E700
ENDCHAR
STARTCHAR 030C
ENCODING 780
SWIDTH 0 0
DWIDTH 0 0
BBX 9 3 -12 16
BITMAP
E380
7700
3E00
ENDCHAR
STARTCHAR 030F
ENCODING 783
SWIDTH 0 0
DWIDTH 0 0
BBX 9 3 -13 16
BITMAP
EE00
E700
7380
ENDCHAR
STARTCHAR 0311
ENCODING 785
SWIDTH 0 0
DWIDTH 0 0
BBX 9 4 -12 15
BITMAP
3E00
7F00
E380
C180
ENDCHAR
STARTCHAR 0312
ENCODING 786
SWIDTH 0 0
DWIDTH 0 0
BBX 3 5 -9 15
BITMAP
60
60
C0
E0
E0
ENDCHAR
STARTCHAR 031B
ENCODING 795
SWIDTH 0 0
DWIDTH 0 0
BBX 4 6 -8 12
BITMAP
10
30
30
30
F0
E0
ENDCHAR
STARTCHAR 0323
ENCODING 803
SWIDTH 0 0
DWIDTH 0 0
BBX 3 3 -9 -5
BITMAP
E0
E0
E0
ENDCHAR
STARTCHAR 0324
ENCODING 804
SWIDTH 0 0
DWIDTH 0 0
BBX 7 3 -11 -5
BITMAP
C6
EE
C6
ENDCHAR
STARTCHAR 0326
ENCODING 806
SWIDTH 0 0
DWIDTH 0 0
BBX 3 5 -9 -7
BITMAP
E0
E0
60
40
C0
ENDCHAR
STARTCHAR 0327
ENCODING 807
SWIDTH 0 0
DWIDTH 0 0
BBX 5 6 -10 -6
BITMAP
20
60
78
18
F8
60
ENDCHAR
STARTCHAR 0328
ENCODING 808
SWIDTH 0 0
DWIDTH 0 0
BBX 5 7 -12 -6
BITMAP
30
60
C0
C0
C0
F8
70
ENDCHAR
STARTCHAR 032E
ENCODING 814
SWIDTH 0 0
DWIDTH 0 0
BBX 9 4 -12 -6
BITMAP
C180
E380
7F00
0800
ENDCHAR
STARTCHAR 0331
ENCODING 817
SWIDTH 0 0
DWIDTH 0 0
BBX 9 2 -12 -5
BITMAP
FF80
FF80
ENDCHAR
STARTCHAR 0335
ENCODING 821
SWIDTH 0 0
DWIDTH 0 0
BBX 11 2 -13 10
BITMAP
FFE0
FFE0
ENDCHAR
STARTCHAR 0336
ENCODING 822
SWIDTH 0 0
DWIDTH 0 0
BBX 21 2 -22 10
BITMAP
FFFFF8
FFFFF8
ENDCHAR
STARTCHAR 0337
ENCODING 823
SWIDTH 0 0
DWIDTH 0 0
BBX 8 7 -10 7
BITMAP
02
07
0E
1C
78
F0
C0
ENDCHAR
STARTCHAR 0338
ENCODING 824
SWIDTH 0 0
DWIDTH 0 0
BBX 12 17 -14 -2
BITMAP
0030
0030
0060
0040
00C0
0180
0100
0300
0600
0400
0C00
1800
1000
3000
6000
4000
C000
ENDCHAR
STARTCHAR 0394
ENCODING 916
SWIDTH 760 0
DWIDTH 19 0
BBX 19 18 0 0
BITMAP
00E000
01F000
01F000
03F000
03B800
073800
071C00
0F1C00
0E1E00
0E0E00
1C0F00
1C0700
380700
380380
780380
7FFFC0
7FFFC0
FFFFE0
ENDCHAR
STARTCHAR 03A9
ENCODING 937
SWIDTH 880 0
DWIDTH 22 0
BBX 22 18 0 0
BITMAP
00FC00
03FF80
0FFFC0
0F03E0
1E01F0
3C00F0
3C0070
380070
380078
380078
380070
3C0070
1C00F0
1E00E0
0F01E0
FF87FC
FF87FC
FF87FC
ENDCHAR
STARTCHAR 03BC
ENCODING 956
SWIDTH 680 0
DWIDTH 17 0
BBX 13 19 2 -5
BITMAP
E038
E038
E038
E038
E038
E038
E038
E038
E038
F078
F078
FFF8
FFF8
EFB8
E000
E000
E000
E000
E000
ENDCHAR
STARTCHAR 03C0
ENCODING 960
SWIDTH 720 0
DWIDTH 18 0
BBX 18 14 0 0
BITMAP
3FFFC0
7FFFC0
FF1C00
E71C00
C71C00
E71C00
E71C00
071C00
071C00
071C00
071C00
061C00
0E1C00
0E1C00
ENDCHAR
STARTCHAR 0400
ENCODING 1024
SWIDTH 680 0
DWIDTH 17 0
BBX 14 23 2 0
BITMAP
1C00
0E00
0700
0000
0000
FFF8
FFF8
FFF8
F000
F000
F000
F000
FFF0
FFF0
FFF0
F000
F000
F000
F000
F000
FFFC
FFFC
FFFC
ENDCHAR
STARTCHAR 0401
ENCODING 1025
SWIDTH 680 0
DWIDTH 17 0
BBX 14 23 2 0
BITMAP
1CC0
1CE0
1CC0
0000
0000
FFF8
FFF8
FFF8
F000
F000
F000
F000
FFF0
FFF0
FFF0
F000
F000
F000
F000
F000
FFFC
FFFC
FFFC
ENDCHAR
STARTCHAR 0402
ENCODING 1026
SWIDTH 840 0
DWIDTH 21 0
BBX 20 18 0 0
BITMAP
FFFF00
FFFF00
FFFF00
038000
038000
038000
038000
03BF80
03FFE0
03FFE0
03C0F0
038070
038070
038070
0380F0
038FE0
038FE0
038F80
ENDCHAR
STARTCHAR 0403
ENCODING 1027
SWIDTH 600 0
DWIDTH 15 0
BBX 12 23 2 0
BITMAP
01E0
0380
0700
0000
0000
FFF0
FFF0
FFF0
F000
F000
F000
F000
F000
F000
F000
F000
F000
F000
F000
F000
F000
F000
F000
ENDCHAR
STARTCHAR 0404
ENCODING 1028
SWIDTH 720 0
DWIDTH 18 0
BBX 16 18 1 0
BITMAP
03F0
0FFE
1FFF
3E0F
7802
7000
7000
F000
FFE0
FFE0
FFE0
F000
7000
7800
3E0F
1FFF
0FFE
03F0
ENDCHAR
STARTCHAR 0405
ENCODING 1029
SWIDTH 640 0
DWIDTH 16 0
BBX 14 18 1 0
BITMAP
0FE0
3FF8
7FF8
7818
7000
F000
7000
7C00
3FC0
1FF0
03F8
007C
001C
001C
603C
FFF8
7FF0
1FC0
ENDCHAR
STARTCHAR 0406
ENCODING 1030
SWIDTH 320 0
DWIDTH 8 0
BBX 4 18 2 0
BITMAP
F0
F0
F0
F0
F0
F0
F0
F0
F0
F0
F0
F0
F0
F0
F0
F0
F0
F0
ENDCHAR
STARTCHAR 0407
ENCODING 1031
SWIDTH 320 0
DWIDTH 8 0
BBX 8 23 0 0
BITMAP
E7
E7
E7
00
00
3C
3C
3C
3C
3C
3C
3C
3C
3C
3C
3C
3C
3C
3C
3C
3C
3C
3C
ENDCHAR
STARTCHAR 0408
ENCODING 1032
SWIDTH 560 0
DWIDTH 14 0
BBX 12 18 0 0
BITMAP
3FF0
3FF0
3FF0
00F0
00F0
00F0
00F0
00F0
00F0
00F0
00F0
00F0
00F0
00F0
70E0
FFE0
7FC0
1F80
ENDCHAR
STARTCHAR 0409
ENCODING 1033
SWIDTH 1200 0
DWIDTH 30 0
BBX 29 18 0 0
BITMAP
0FFF8000
0FFF8000
0FFF8000
0E038000
0E038000
0E038000
0E03FF80
0E03FFE0
0E0383F0
0E038070
0E038078
0E038038
0E038078
1E038078
1C038070
7C0383F0
F803FFE0
F003FF80
ENDCHAR
STARTCHAR 040A
ENCODING 1034
SWIDTH 1160 0
DWIDTH 29 0
BBX 27 18 2 0
BITMAP
F00F0000
F00F0000
F00F0000
F00F0000
F00F0000
F00F0000
F00F0000
FFFFFE00
FFFFFF80
FFFF0FC0
F00F01C0
F00F01E0
F00F01E0
F00F01C0
F00F01C0
F00F0FC0
F00FFF80
F00FFE00
ENDCHAR
STARTCHAR 040B
ENCODING 1035
SWIDTH 840 0
DWIDTH 21 0
BBX 20 18 0 0
BITMAP
FFFF00
FFFF00
FFFF00
038000
038000
038000
038000
039F00
03FFC0
03FFE0
03E1F0
0380F0
038070
038070
038070
038070
038070
038070
ENDCHAR
STARTCHAR 040C
ENCODING 1036
SWIDTH 720 0
DWIDTH 18 0
BBX 15 23 2 0
BITMAP
00F0
01C0
0380
0000
0000
F00E
F01C
F03C
F038
F070
F0F0
F1E0
FFC0
FFC0
FFC0
F1E0
F0F0
F0F0
F078
F038
F03C
F01E
F00E
ENDCHAR
STARTCHAR 040D
ENCODING 1037
SWIDTH 840 0
DWIDTH 21 0
BBX 16 23 2 0
BITMAP
0E00
0700
0380
0040
0000
F007
F00F
F01F
F03F
F03F
F07F
F0F7
F0E7
F1C7
F3C7
F787
F707
FF07
FE07
FC07
F807
F807
F007
ENDCHAR
STARTCHAR 040E
ENCODING 1038
SWIDTH 720 0
DWIDTH 18 0
BBX 16 23 1 0
BITMAP
1C30
1C70
0FE0
0380
0000
E007
F007
700E
781E
381C
3C3C
1C38
1E70
0E70
0FE0
07E0
07C0
03C0
0380
0780
7F00
7E00
7C00
ENDCHAR
STARTCHAR 040F
ENCODING 1039
SWIDTH 800 0
DWIDTH 20 0
BBX 16 22 2 -4
BITMAP
F00F
F00F
F00F
F00F
F00F
F00F
F00F
F00F
F00F
F00F
F00F
F00F
F00F
F00F
F00F
FFFF
FFFF
FFFF
01C0
01C0
01C0
01C0
ENDCHAR
STARTCHAR 0410
ENCODING 1040
SWIDTH 760 0
DWIDTH 19 0
BBX 19 18 0 0
BITMAP
00F000
01F000
01F000
01F800
03B800
039C00
071C00
071E00
0E0E00
0E0E00
1E0700
1FFF00
1FFF80
3FFF80
3803C0
7801C0
7001E0
F000E0
ENDCHAR
STARTCHAR 0411
ENCODING 1041
SWIDTH 720 0
DWIDTH 18 0
BBX 15 18 2 0
BITMAP
FFFC
FFFC
FFFC
F000
F000
F000
F000
FFF0
FFFC
F0FE
F01E
F00E
F00E
F00E
F01E
F0FC
FFFC
FFF0
ENDCHAR
STARTCHAR 0412
ENCODING 1042
SWIDTH 760 0
DWIDTH 19 0
BBX 15 18 2 0
BITMAP
FFF0
FFF8
F0FC
F01C
F01E
F01C
F01C
F078
FFF0
FFFC
F01E
F00E
F00E
F00E
F00E
F07E
FFFC
FFF0
ENDCHAR
STARTCHAR 0413
ENCODING 1043
SWIDTH 600 0
DWIDTH 15 0
BBX 12 18 2 0
BITMAP
FFF0
FFF0
FFF0
F000
F000
F000
F000
F000
F000
F000
F000
F000
F000
F000
F000
F000
F000
F000
ENDCHAR
STARTCHAR 0414
ENCODING 1044
SWIDTH 800 0
DWIDTH 20 0
BBX 20 22 0 -4
BITMAP
0FFF80
0FFF80
0FFF80
0E0380
0E0380
0E0380
0E0380
0E0380
0E0380
0E0380
0E0380
0E0380
0C0380
1C0380
1C0380
FFFFF0
FFFFF0
FFFFF0
E00070
E00070
E00070
E00070
ENDCHAR
STARTCHAR 0415
ENCODING 1045
SWIDTH 680 0
DWIDTH 17 0
BBX 14 18 2 0
BITMAP
FFF8
FFF8
FFF8
F000
F000
F000
F000
FFF0
FFF0
FFF0
F000
F000
F000
F000
F000
FFFC
FFFC
FFFC
ENDCHAR
STARTCHAR 0416
ENCODING 1046
SWIDTH 1040 0
DWIDTH 26 0
BBX 25 18 1 0
BITMAP
F01C0700
701C0F00
781C0E00
381C1C00
1C1C3C00
1C1C3800
0E1C7800
0FFFF000
07FFF000
0FFFF000
0E1C7800
1E1C3800
1C1C3C00
3C1C1C00
781C1E00
781C0E00
F01C0F00
E01C0780
ENDCHAR
STARTCHAR 0417
ENCODING 1047
SWIDTH 640 0
DWIDTH 16 0
BBX 14 18 1 0
BITMAP
1F80
FFE0
7FF8
4078
0038
0038
0038
1FF0
1FE0
1FF0
0078
003C
001C
003C
C07C
FFF8
FFF0
1FC0
ENDCHAR
STARTCHAR 0418
ENCODING 1048
SWIDTH 840 0
DWIDTH 21 0
BBX 16 18 2 0
BITMAP
F007
F00F
F01F
F03F
F03F
F07F
F0F7
F0E7
F1C7
F3C7
F787
F707
FF07
FE07
FC07
F807
F807
F007
ENDCHAR
STARTCHAR 0419
ENCODING 1049
SWIDTH 840 0
DWIDTH 21 0
BBX 16 23 2 0
BITMAP
0C18
0E38
07F0
03C0
0000
F007
F00F
F01F
F03F
F03F
F07F
F0F7
F0E7
F1C7
F3C7
F787
F707
FF07
FE07
FC07
F807
F807
F007
ENDCHAR
STARTCHAR 041A
ENCODING 1050
SWIDTH 720 0
DWIDTH 18 0
BBX 15 18 2 0
BITMAP
F00E
F01C
F03C
F038
F070
F0F0
F1E0
FFC0
FFC0
FFC0
F1E0
F0F0
F0F0
F078
F038
F03C
F01E
F00E
ENDCHAR
STARTCHAR 041B
ENCODING 1051
SWIDTH 800 0
DWIDTH 20 0
BBX 17 18 0 0
BITMAP
0FFF80
0FFF80
0FFF80
0E0380
0E0380
0E0380
0E0380
0E0380
0E0380
0E0380
0E0380
0E0380
0E0380
1E0380
1C0380
7C0380
F80380
F00380
ENDCHAR
STARTCHAR 041C
ENCODING 1052
SWIDTH 960 0
DWIDTH 24 0
BBX 20 18 2 0
BITMAP
E00070
F000F0
F801F0
F801F0
FC03F0
FC03F0
FE07F0
FF07F0
F70EF0
F79CF0
F39CF0
F1F8F0
F1F8F0
F0F0F0
F0F0F0
F060F0
F000F0
F000F0
ENDCHAR
STARTCHAR 041D
ENCODING 1053
SWIDTH 800 0
DWIDTH 20 0
BBX 16 18 2 0
BITMAP
F007
F007
F007
F007
F007
F007
F007
FFFF
FFFF
FFFF
F007
F007
F007
F007
F007
F007
F007
F007
ENDCHAR
STARTCHAR 041E
ENCODING 1054
SWIDTH 840 0
DWIDTH 21 0
BBX 19 18 1 0
BITMAP
03F800
0FFE00
1FFF00
3E0F80
7803C0
7001C0
F001E0
F000E0
E000E0
E000E0
F000E0
F001E0
7001C0
7803C0
3E0780
1FFF00
0FFE00
03F800
ENDCHAR
STARTCHAR 041F
ENCODING 1055
SWIDTH 800 0
DWIDTH 20 0
BBX 16 18 2 0
BITMAP
FFFF
FFFF
FFFF
F007
F007
F007
F007
F007
F007
F007
F007
F007
F007
F007
F007
F007
F007
F007
ENDCHAR
STARTCHAR 0420
ENCODING 1056
SWIDTH 720 0
DWIDTH 18 0
BBX 15 18 2 0
BITMAP
FFE0
FFF8
FFFC
F03E
F01E
F00E
F00E
F00E
F01E
F03C
FFFC
FFF0
FF80
F000
F000
F000
F000
F000
ENDCHAR
STARTCHAR 0421
ENCODING 1057
SWIDTH 720 0
DWIDTH 18 0
BBX 16 18 1 0
BITMAP
03F8
0FFE
1FFF
3E0F
7802
7000
7000
F000
E000
E000
F000
F000
7000
7802
3E07
1FFF
0FFE
03F8
ENDCHAR
STARTCHAR 0422
ENCODING 1058
SWIDTH 640 0
DWIDTH 16 0
BBX 15 18 0 0
BITMAP
FFFE
FFFE
FFFE
0380
0380
0380
0380
0380
0380
0380
0380
0380
0380
0380
0380
0380
0380
0380
ENDCHAR
STARTCHAR 0423
ENCODING 1059
SWIDTH 720 0
DWIDTH 18 0
BBX 16 18 1 0
BITMAP
E007
F007
700E
781E
381C
3C3C
1C38
1E70
0E70
0FE0
07E0
07C0
03C0
0380
0780
7F00
7E00
7C00
ENDCHAR
STARTCHAR 0424
ENCODING 1060
SWIDTH 920 0
DWIDTH 23 0
BBX 21 19 1 -1
BITMAP
007000
007800
0FFF80
1FFFE0
3E71F0
787078
F07038
E07038
E07038
E07038
E07038
F07038
707078
7C70F0
3FFFE0
1FFFC0
03FE00
007000
007000
ENDCHAR
STARTCHAR 0425
ENCODING 1061
SWIDTH 680 0
DWIDTH 17 0
BBX 16 18 1 0
BITMAP
F01E
781E
783C
3C78
1E70
1EF0
0FE0
07C0
07C0
07C0
0FE0
0FF0
1EF0
3C78
383C
783C
F01E
E00F
ENDCHAR
STARTCHAR 0426
ENCODING 1062
SWIDTH 840 0
DWIDTH 21 0
BBX 18 22 2 -4
BITMAP
F00F00
F00F00
F00F00
F00F00
F00F00
F00F00
F00F00
F00F00
F00F00
F00F00
F00F00
F00F00
F00F00
F00F00
F00F00
FFFFC0
FFFFC0
FFFFC0
0001C0
0001C0
0001C0
0001C0
ENDCHAR
STARTCHAR 0427
ENCODING 1063
SWIDTH 760 0
DWIDTH 19 0
BBX 15 18 1 0
BITMAP
E00E
E00E
E00E
E00E
E00E
E00E
F00E
F00E
781E
7FFE
3FFE
0FEE
000E
000E
000E
000E
000E
000E
ENDCHAR
STARTCHAR 0428
ENCODING 1064
SWIDTH 1080 0
DWIDTH 27 0
BBX 23 18 2 0
BITMAP
F0380E
F0380E
F0380E
F0380E
F0380E
F0380E
F0380E
F0380E
F0380E
F0380E
F0380E
F0380E
F0380E
F0380E
F0380E
FFFFFE
FFFFFE
FFFFFE
ENDCHAR
STARTCHAR 0429
ENCODING 1065
SWIDTH 1120 0
DWIDTH 28 0
BBX 25 22 2 -4
BITMAP
F0380E00
F0380E00
F0380E00
F0380E00
F0380E00
F0380E00
F0380E00
F0380E00
F0380E00
F0380E00
F0380E00
F0380E00
F0380E00
F0380E00
F0380E00
FFFFFF80
FFFFFF80
FFFFFF80
00000380
00000380
00000380
00000380
ENDCHAR
STARTCHAR 042A
ENCODING 1066
SWIDTH 840 0
DWIDTH 21 0
BBX 20 18 0 0
BITMAP
FF8000
FF8000
FF8000
078000
078000
078000
07FF80
07FFC0
0787E0
0780F0
078070
078070
078070
078070
0780F0
0787E0
07FFC0
07FF00
ENDCHAR
STARTCHAR 042B
ENCODING 1067
SWIDTH 1000 0
DWIDTH 25 0
BBX 21 18 2 0
BITMAP
F00038
F00038
F00038
F00038
F00038
F00038
FFF038
FFF838
F0FC38
F01E38
F00E38
F00E38
F00E38
F00E38
F01E38
F0FC38
FFF838
FFE038
ENDCHAR
STARTCHAR 042C
ENCODING 1068
SWIDTH 720 0
DWIDTH 18 0
BBX 15 18 2 0
BITMAP
F000
F000
F000
F000
F000
F000
FFF0
FFF8
F0FC
F01E
F00E
F00E
F00E
F00E
F01E
F0FC
FFF8
FFE0
ENDCHAR
STARTCHAR 042D
ENCODING 1069
SWIDTH 720 0
DWIDTH 18 0
BBX 16 18 1 0
BITMAP
1FC0
7FF0
FFF8
F07C
401E
001E
000E
0FFF
0FFF
0FFF
000E
000E
001E
401C
F07C
FFF8
7FF0
1FC0
ENDCHAR
STARTCHAR 042E
ENCODING 1070
SWIDTH 1120 0
DWIDTH 28 0
BBX 24 18 2 0
BITMAP
F00FE0
F03FF8
F07FFC
F0F83E
F1E00E
F1C00F
F1C007
FFC007
FFC007
FFC007
F1C007
F1C007
F1E00F
F0F01E
F0F83E
F07FFC
F03FF8
F00FC0
ENDCHAR
STARTCHAR 042F
ENCODING 1071
SWIDTH 720 0
DWIDTH 18 0
BBX 15 18 1 0
BITMAP
0FFE
1FFE
3FFE
780E
700E
F00E
F00E
F00E
F00E
780E
7FFE
3FFE
0FFE
1E0E
1C0E
380E
780E
700E
ENDCHAR
STARTCHAR 0430
ENCODING 1072
SWIDTH 600 0
DWIDTH 15 0
BBX 12 14 1 0
BITMAP
1F80
7FE0
7FE0
40F0
0070
0070
3FF0
7FF0
F070
E070
E070
F1F0
7FF0
3F70
ENDCHAR
STARTCHAR 0431
ENCODING 1073
SWIDTH 680 0
DWIDTH 17 0
BBX 15 20 1 0
BITMAP
000C
00FC
07FC
1FF0
3E00
3800
7000
73E0
6FF8
FFFC
F83C
F01E
F01E
700E
701E
701C
783C
3FF8
1FF0
07E0
ENDCHAR
STARTCHAR 0432
ENCODING 1074
SWIDTH 600 0
DWIDTH 15 0
BBX 12 14 2 0
BITMAP
FFC0
FFE0
E1F0
E070
E070
E0E0
FFC0
FFE0
E070
E070
E070
E0F0
FFE0
FFC0
ENDCHAR
STARTCHAR 0433
ENCODING 1075
SWIDTH 520 0
DWIDTH 13 0
BBX 10 14 2 0
BITMAP
FFC0
FFC0
FFC0
E000
E000
E000
E000
E000
E000
E000
E000
E000
E000
E000
ENDCHAR
STARTCHAR 0434
ENCODING 1076
SWIDTH 680 0
DWIDTH 17 0
BBX 16 17 0 -3
BITMAP
1FFC
1FFC
1FFC
1C1C
1C1C
1C1C
1C1C
1C1C
1C1C
1C1C
381C
FFFF
FFFF
FFFF
E007
E007
E007
ENDCHAR
STARTCHAR 0435
ENCODING 1077
SWIDTH 640 0
DWIDTH 16 0
BBX 14 14 1 0
BITMAP
0FC0
3FE0
7FF0
7078
F038
E018
FFFC
FFFC
E000
F000
7830
7FF0
3FF0
0FC0
ENDCHAR
STARTCHAR 0436
ENCODING 1078
SWIDTH 880 0
DWIDTH 22 0
BBX 20 14 1 0
BITMAP
E0F070
F0F0F0
70F0E0
38F1C0
38F1C0
1CF380
1FFF80
1FFF80
1FFF80
3CF3C0
78F1E0
70F1E0
F0F0F0
E0F070
ENDCHAR
STARTCHAR 0437
ENCODING 1079
SWIDTH 560 0
DWIDTH 14 0
BBX 12 14 1 0
BITMAP
3F80
FFC0
7FE0
00E0
00E0
01E0
1FC0
1FC0
00E0
00F0
80F0
FFE0
FFC0
3F00
ENDCHAR
STARTCHAR 0438
ENCODING 1080
SWIDTH 720 0
DWIDTH 18 0
BBX 13 14 2 0
BITMAP
E038
E078
E078
E0F8
E1F8
E3F8
E7B8
E738
EE38
FE38
FC38
F838
F038
E038
ENDCHAR
STARTCHAR 0439
ENCODING 1081
SWIDTH 720 0
DWIDTH 18 0
BBX 13 19 2 0
BITMAP
3860
18E0
1FC0
0700
0000
E038
E078
E078
E0F8
E1F8
E3F8
E7B8
E738
EE38
FE38
FC38
F838
F038
E038
ENDCHAR
STARTCHAR 043A
ENCODING 1082
SWIDTH 600 0
DWIDTH 15 0
BBX 13 14 2 0
BITMAP
E078
E070
E0E0
E1E0
E1C0
E380
FF80
FF80
FF80
E3C0
E1E0
E0F0
E070
E078
ENDCHAR
STARTCHAR 043B
ENCODING 1083
SWIDTH 640 0
DWIDTH 16 0
BBX 14 14 0 0
BITMAP
1FFC
1FFC
1FFC
1C1C
1C1C
1C1C
1C1C
1C1C
1C1C
1C1C
381C
F81C
F81C
F01C
ENDCHAR
STARTCHAR 043C
ENCODING 1084
SWIDTH 800 0
DWIDTH 20 0
BBX 16 14 2 0
BITMAP
F007
F00F
F80F
F81F
FC1F
FC3F
EE77
E677
E7E7
E3C7
E3C7
E187
E187
E007
ENDCHAR
STARTCHAR 043D
ENCODING 1085
SWIDTH 680 0
DWIDTH 17 0
BBX 13 14 2 0
BITMAP
E038
E038
E038
E038
E038
E038
FFF8
FFF8
FFF8
E038
E038
E038
E038
E038
ENDCHAR
STARTCHAR 043E
ENCODING 1086
SWIDTH 640 0
DWIDTH 16 0
BBX 14 14 1 0
BITMAP
0FC0
1FF0
7FF8
7878
F03C
E01C
E01C
E01C
E01C
F03C
7838
7FF8
3FF0
0FC0
ENDCHAR
STARTCHAR 043F
ENCODING 1087
SWIDTH 680 0
DWIDTH 17 0
BBX 13 14 2 0
BITMAP
FFF8
FFF8
FFF8
E038
E038
E038
E038
E038
E038
E038
E038
E038
E038
E038
ENDCHAR
STARTCHAR 0440
ENCODING 1088
SWIDTH 680 0
DWIDTH 17 0
BBX 14 19 2 -5
BITMAP
E7C0
FFF0
FFF8
F83C
F03C
E01C
E01C
E01C
E01C
F03C
F83C
FFF8
EFF0
E7C0
E000
E000
E000
E000
E000
ENDCHAR
STARTCHAR 0441
ENCODING 1089
SWIDTH 600 0
DWIDTH 15 0
BBX 13 14 1 0
BITMAP
0FC0
1FF0
7FF8
7830
F020
E000
E000
E000
E000
F020
7830
7FF0
3FF0
0FC0
ENDCHAR
STARTCHAR 0442
ENCODING 1090
SWIDTH 520 0
DWIDTH 13 0
BBX 13 14 0 0
BITMAP
FFF8
FFF8
FFF8
0700
0700
0700
0700
0700
0700
0700
0700
0700
0700
0700
ENDCHAR
STARTCHAR 0443
ENCODING 1091
SWIDTH 600 0
DWIDTH 15 0
BBX 14 19 0 -5
BITMAP
E01C
701C
701C
7838
3838
3C70
1C70
1C70
0EE0
0EE0
0FC0
07C0
0780
0380
0380
0700
FF00
FE00
7C00
ENDCHAR
STARTCHAR 0444
ENCODING 1092
SWIDTH 840 0
DWIDTH 21 0
BBX 19 24 1 -5
BITMAP
00E000
00E000
00E000
00E000
00E000
07FC00
1FFF00
3FFF80
78E3C0
F0E1C0
E0E1E0
E0E0E0
E0E0E0
E0E1E0
F0E1C0
78E3C0
3FFF80
1FFF00
07FC00
00E000
00E000
00E000
00E000
00E000
ENDCHAR
STARTCHAR 0445
ENCODING 1093
SWIDTH 560 0
DWIDTH 14 0
BBX 14 14 0 0
BITMAP
7038
7878
3C70
1CE0
0FC0
0FC0
0780
0780
0FC0
1FE0
1CE0
3870
7878
F03C
ENDCHAR
STARTCHAR 0446
ENCODING 1094
SWIDTH 680 0
DWIDTH 17 0
BBX 15 17 2 -3
BITMAP
E038
E038
E038
E038
E038
E038
E038
E038
E038
E038
E038
FFFE
FFFE
FFFE
000E
000E
000E
ENDCHAR
STARTCHAR 0447
ENCODING 1095
SWIDTH 640 0
DWIDTH 16 0
BBX 12 14 1 0
BITMAP
E070
E070
E070
E070
E070
E070
F070
7FF0
3FF0
0070
0070
0070
0070
0070
ENDCHAR
STARTCHAR 0448
ENCODING 1096
SWIDTH 960 0
DWIDTH 24 0
BBX 20 14 2 0
BITMAP
E0F070
E0F070
E0F070
E0F070
E0F070
E0F070
E0F070
E0F070
E0F070
E0F070
E0F070
FFFFF0
FFFFF0
FFFFF0
ENDCHAR
STARTCHAR 0449
ENCODING 1097
SWIDTH 960 0
DWIDTH 24 0
BBX 22 17 2 -3
BITMAP
E0F070
E0F070
E0F070
E0F070
E0F070
E0F070
E0F070
E0F070
E0F070
E0F070
E0F070
FFFFFC
FFFFFC
FFFFFC
00001C
00001C
00001C
ENDCHAR
STARTCHAR 044A
ENCODING 1098
SWIDTH 680 0
DWIDTH 17 0
BBX 16 14 0 0
BITMAP
FE00
FE00
FE00
0E00
0E00
0FFC
0FFE
0E0F
0E07
0E07
0E0F
0E1E
0FFE
0FF8
ENDCHAR
STARTCHAR 044B
ENCODING 1099
SWIDTH 840 0
DWIDTH 21 0
BBX 17 14 2 0
BITMAP
E00380
E00380
E00380
E00380
E00380
FFC380
FFE380
E0F380
E07380
E07380
E0F380
E1E380
FFE380
FF8380
ENDCHAR
STARTCHAR 044C
ENCODING 1100
SWIDTH 600 0
DWIDTH 15 0
BBX 12 14 2 0
BITMAP
E000
E000
E000
E000
E000
FFC0
FFE0
E0F0
E070
E070
E070
E1F0
FFE0
FF80
ENDCHAR
STARTCHAR 044D
ENCODING 1101
SWIDTH 600 0
DWIDTH 15 0
BBX 13 14 1 0
BITMAP
3F00
FFC0
FFE0
40F0
0070
0070
1FF8
1FF8
0070
0070
40F0
FFE0
FFC0
3F00
ENDCHAR
STARTCHAR 044E
ENCODING 1102
SWIDTH 880 0
DWIDTH 22 0
BBX 19 14 2 0
BITMAP
E03E00
E0FF80
E1FFC0
E3C1E0
E380E0
FF80E0
FF00E0
FF80E0
E380E0
E381E0
E3C1C0
E1FFC0
E0FF80
E03E00
ENDCHAR
STARTCHAR 044F
ENCODING 1103
SWIDTH 600 0
DWIDTH 15 0
BBX 12 14 1 0
BITMAP
1FF0
3FF0
7FF0
F030
E030
E030
F030
7830
7FF0
1FF0
3C30
3830
7030
F030
ENDCHAR
STARTCHAR 0450
ENCODING 1104
SWIDTH 640 0
DWIDTH 16 0
BBX 14 19 1 0
BITMAP
3C00
0E00
0700
0000
0000
0FC0
3FE0
7FF0
7078
F038
E018
FFFC
FFFC
E000
F000
7830
7FF0
3FF0
0FC0
ENDCHAR
STARTCHAR 0451
ENCODING 1105
SWIDTH 640 0
DWIDTH 16 0
BBX 14 19 1 0
BITMAP
18C0
1CE0
18C0
0000
0000
0FC0
3FE0
7FF0
7078
F038
E018
FFFC
FFFC
E000
F000
7830
7FF0
3FF0
0FC0
ENDCHAR
STARTCHAR 0452
ENCODING 1106
SWIDTH 680 0
DWIDTH 17 0
BBX 15 24 0 -5
BITMAP
3800
3800
FFE0
FFE0
3800
39F0
3FFC
3FFC
3E1E
3C0E
380E
380E
380E
380E
380E
380E
380E
380E
380E
000E
000E
00FE
00FC
00F8
ENDCHAR
STARTCHAR 0453
ENCODING 1107
SWIDTH 520 0
DWIDTH 13 0
BBX 10 19 2 0
BITMAP
03C0
0700
0E00
0000
0000
FFC0
FFC0
FFC0
E000
E000
E000
E000
E000
E000
E000
E000
E000
E000
E000
ENDCHAR
STARTCHAR 0454
ENCODING 1108
SWIDTH 600 0
DWIDTH 15 0
BBX 13 14 1 0
BITMAP
0FC0
1FF0
3FF8
7010
F000
E000
FF80
FF80
E000
F000
7010
7EF8
1FF0
0FC0
ENDCHAR
STARTCHAR 0455
ENCODING 1109
SWIDTH 560 0
DWIDTH 14 0
BBX 12 14 1 0
BITMAP
1FC0
3FE0
7FE0
F000
E000
F800
7F80
3FE0
03E0
00F0
40F0
FFE0
FFC0
3F80
ENDCHAR
STARTCHAR 0456
ENCODING 1110
SWIDTH 280 0
DWIDTH 7 0
BBX 4 20 2 0
BITMAP
E0
F0
F0
60
00
00
E0
E0
E0
E0
E0
E0
E0
E0
E0
E0
E0
E0
E0
E0
ENDCHAR
STARTCHAR 0457
ENCODING 1111
SWIDTH 280 0
DWIDTH 7 0
BBX 7 19 0 0
BITMAP
6E
EE
6E
00
00
38
38
38
38
38
38
38
38
38
38
38
38
38
38
ENDCHAR
STARTCHAR 0458
ENCODING 1112
SWIDTH 280 0
DWIDTH 7 0
BBX 8 25 -2 -5
BITMAP
0E
0F
0F
06
00
00
0E
0E
0E
0E
0E
0E
0E
0E
0E
0E
0E
0E
0E
0E
0E
0E
FE
FC
F8
ENDCHAR
STARTCHAR 0459
ENCODING 1113
SWIDTH 960 0
DWIDTH 24 0
BBX 23 14 0 0
BITMAP
1FFC00
1FFC00
1FFC00
1C1C00
1C1C00
1C1FF8
1C1FFC
1C1C1E
1C1C0E
1C1C0E
381C0E
F81C3E
F81FFC
F01FF0
ENDCHAR
STARTCHAR 045A
ENCODING 1114
SWIDTH 960 0
DWIDTH 24 0
BBX 21 14 2 0
BITMAP
E03800
E03800
E03800
E03800
E03800
FFFFC0
FFFFF0
FFFFF8
E03838
E03838
E03838
E03878
E03FF0
E03FE0
ENDCHAR
STARTCHAR 045B
ENCODING 1115
SWIDTH 680 0
DWIDTH 17 0
BBX 16 19 -1 0
BITMAP
1C00
1C00
FFF0
FFF0
1C00
1CF8
1FFE
1FFE
1F0F
1E07
1C07
1C07
1C07
1C07
1C07
1C07
1C07
1C07
1C07
ENDCHAR
STARTCHAR 045C
ENCODING 1116
SWIDTH 600 0
DWIDTH 15 0
BBX 13 19 2 0
BITMAP
01C0
0380
0700
0800
0000
E078
E070
E0E0
E1E0
E1C0
E380
FF80
FF80
FF80
E3C0
E1E0
E0F0
E070
E078
ENDCHAR
STARTCHAR 045D
ENCODING 1117
SWIDTH 720 0
DWIDTH 18 0
BBX 13 19 2 0
BITMAP
3C00
0E00
0700
0000
0000
E038
E078
E078
E0F8
E1F8
E3F8
E7B8
E738
EE38
FE38
FC38
F838
F038
E038
ENDCHAR
STARTCHAR 045E
ENCODING 1118
SWIDTH 600 0
DWIDTH 15 0
BBX 14 24 0 -5
BITMAP
1860
1C60
0FC0
0300
0000
E01C
701C
701C
7838
3838
3C70
1C70
1C70
0EE0
0EE0
0FC0
07C0
0780
0380
0380
0700
FF00
FE00
7C00
ENDCHAR
STARTCHAR 045F
ENCODING 1119
SWIDTH 640 0
DWIDTH 16 0
BBX 12 17 2 -3
BITMAP
E070
E070
E070
E070
E070
E070
E070
E070
E070
E070
E070
FFF0
FFF0
FFF0
0700
0700
0700
ENDCHAR
STARTCHAR 0462
ENCODING 1122
SWIDTH 840 0
DWIDTH 21 0
BBX 20 19 0 0
BITMAP
070000
070000
070000
FFF800
FFF800
070000
070000
07FF00
07FFC0
0707E0
0700E0
0700F0
0700F0
0700F0
0700E0
0700E0
0707E0
07FFC0
07FF00
ENDCHAR
STARTCHAR 0463
ENCODING 1123
SWIDTH 640 0
DWIDTH 16 0
BBX 15 19 0 0
BITMAP
1C00
1C00
1C00
1C00
1C00
FFE0
FFE0
1C00
1C00
1C00
1FF8
1FFC
1C1E
1C0E
1C0E
1C0E
1C3E
1FFC
1FF0
ENDCHAR
STARTCHAR 046A
ENCODING 1130
SWIDTH 920 0
DWIDTH 23 0
BBX 21 18 1 0
BITMAP
3FFFE0
3FFFE0
3800E0
1C01C0
0E0380
070700
038E00
01DC00
07FF00
0FFFC0
1E73C0
3C71E0
3870F0
707070
707070
F07078
E07038
E07038
ENDCHAR
STARTCHAR 046B
ENCODING 1131
SWIDTH 720 0
DWIDTH 18 0
BBX 18 14 0 0
BITMAP
3FFF00
3FFF00
1C0700
0E0E00
071C00
03B800
0FFC00
1FFE00
3CCF00
38C780
30C380
70C380
70C1C0
E0C1C0
ENDCHAR
STARTCHAR 0472
ENCODING 1138
SWIDTH 840 0
DWIDTH 21 0
BBX 19 18 1 0
BITMAP
03F800
0FFE00
1FFF00
3E0F80
7803C0
7001C0
F001E0
F000E0
FFFFE0
FFFFE0
F000E0
F001E0
7801C0
7803C0
3E0F80
1FFF00
0FFE00
03F800
ENDCHAR
STARTCHAR 0473
ENCODING 1139
SWIDTH 640 0
DWIDTH 16 0
BBX 14 14 1 0
BITMAP
0FC0
1FF0
3CF8
703C
F01C
E01C
FFFC
FFFC
E01C
F01C
703C
7EF8
1FF0
0FC0
ENDCHAR
STARTCHAR 0474
ENCODING 1140
SWIDTH 760 0
DWIDTH 19 0
BBX 19 18 0 0
BITMAP
F001E0
7003E0
7807E0
380780
3C0F00
3C0E00
1C1E00
1E1C00
0E1C00
0F3C00
0F3800
073800
07F800
03F000
03F000
03F000
01E000
01E000
ENDCHAR
STARTCHAR 0475
ENCODING 1141
SWIDTH 640 0
DWIDTH 16 0
BBX 15 14 0 0
BITMAP
F00E
701E
703E
7838
3878
3C70
1C70
1CE0
0EE0
0EE0
0FC0
07C0
07C0
0380
ENDCHAR
STARTCHAR 048A
ENCODING 1162
SWIDTH 840 0
DWIDTH 21 0
BBX 19 27 2 -4
BITMAP
0C1800
0E3800
07F000
03C000
000000
F00700
F00F00
F01F00
F01F00
F03F00
F07F00
F0F700
F0E700
F1E700
F3C700
F78700
F70700
FF0700
FE0700
FC0700
F807E0
F807C0
F007C0
0001C0
000180
000380
000380
ENDCHAR
STARTCHAR 048B
ENCODING 1163
SWIDTH 720 0
DWIDTH 18 0
BBX 15 22 2 -3
BITMAP
3060
18E0
1FC0
0200
0000
E038
E078
E078
E0F8
E1F8
E3F8
E7B8
E738
EE38
FE38
FC38
F83E
F03E
E03E
000E
000C
000C
ENDCHAR
STARTCHAR 048C
ENCODING 1164
SWIDTH 760 0
DWIDTH 19 0
BBX 17 19 1 0
BITMAP
380000
380000
380000
FFE000
FFE000
380000
380000
3FF800
3FFE00
383F00
380700
380780
380780
380780
380780
380700
383F00
3FFE00
3FF800
ENDCHAR
STARTCHAR 048D
ENCODING 1165
SWIDTH 640 0
DWIDTH 16 0
BBX 15 14 0 0
BITMAP
1C00
FFE0
FFE0
1FE0
1C00
1FF8
1FFC
1C3E
1C0E
1C0E
1C0E
1C3C
1FFC
1FF0
ENDCHAR
STARTCHAR 048E
ENCODING 1166
SWIDTH 720 0
DWIDTH 18 0
BBX 15 18 2 0
BITMAP
FFE0
FFF8
FFFC
F03E
F01E
F00E
F18E
F18E
F1DE
F0FC
FFFC
FFF8
FFF8
F01C
F00C
F004
F000
F000
ENDCHAR
STARTCHAR 048F
ENCODING 1167
SWIDTH 720 0
DWIDTH 18 0
BBX 14 19 2 -5
BITMAP
E7C0
EFF0
FFF8
F83C
F01C
E01C
E01C
E01C
E0DC
F0DC
F8FC
FFF8
EFF8
E7DC
E008
E000
E000
E000
E000
ENDCHAR
STARTCHAR 0490
ENCODING 1168
SWIDTH 600 0
DWIDTH 15 0
BBX 12 22 2 0
BITMAP
0070
0070
0070
0070
FFF0
FFF0
FFF0
F000
F000
F000
F000
F000
F000
F000
F000
F000
F000
F000
F000
F000
F000
F000
ENDCHAR
STARTCHAR 0491
ENCODING 1169
SWIDTH 480 0
DWIDTH 12 0
BBX 10 17 2 0
BITMAP
01C0
01C0
01C0
FFC0
FFC0
FFC0
E000
E000
E000
E000
E000
E000
E000
E000
E000
E000
E000
ENDCHAR
STARTCHAR 0492
ENCODING 1170
SWIDTH 640 0
DWIDTH 16 0
BBX 14 18 1 0
BITMAP
3FFC
3FFC
3FFC
3800
3800
3800
3800
3800
3800
FFF8
FFF8
3800
3800
3800
3800
3800
3800
3800
ENDCHAR
STARTCHAR 0493
ENCODING 1171
SWIDTH 520 0
DWIDTH 13 0
BBX 12 14 1 0
BITMAP
3FF0
3FF0
3FF0
3800
3800
3800
3800
FFC0
FFC0
3800
3800
3800
3800
3800
ENDCHAR
STARTCHAR 0494
ENCODING 1172
SWIDTH 720 0
DWIDTH 18 0
BBX 15 22 2 -4
BITMAP
FFF8
FFF8
FFF8
F000
F000
F000
F000
F000
F7E0
FFF8
FFF8
F03C
F01C
F01E
F01E
F01E
F01C
F01C
007C
03F8
03F0
0380
ENDCHAR
STARTCHAR 0495
ENCODING 1173
SWIDTH 600 0
DWIDTH 15 0
BBX 13 19 2 -5
BITMAP
FFC0
FFC0
FFC0
E000
E000
E000
E200
FFE0
FFF0
F0F0
E078
E038
E038
E038
0078
00F0
07F0
07E0
0F80
ENDCHAR
STARTCHAR 0496
ENCODING 1174
SWIDTH 1080 0
DWIDTH 27 0
BBX 26 22 1 -4
BITMAP
F01C0700
701C0F00
781C0E00
381C1E00
3C1C1C00
1C1C3800
1E1C3800
0E1C7000
07FFF000
07FFF000
0FFFF000
1E1C7800
1E1C3C00
3C1C3C00
381C1E00
781C0FC0
F01C0FC0
E01C07C0
000001C0
000001C0
000001C0
000001C0
ENDCHAR
STARTCHAR 0497
ENCODING 1175
SWIDTH 920 0
DWIDTH 23 0
BBX 22 17 1 -3
BITMAP
E0F070
F0F0F0
70F0E0
38F1C0
38F1C0
1CF380
1FFF80
1FFF80
1FFF80
3CF3C0
78F1E0
70F1FC
F0F0FC
E0F07C
00001C
00001C
00001C
ENDCHAR
STARTCHAR 0498
ENCODING 1176
SWIDTH 640 0
DWIDTH 16 0
BBX 14 21 1 -3
BITMAP
1F80
FFE0
7FF8
4078
0038
0038
0038
1FF0
1FE0
1FF0
0078
003C
001C
003C
C07C
FFF8
FFF0
1FC0
0700
0700
0700
ENDCHAR
STARTCHAR 0499
ENCODING 1177
SWIDTH 560 0
DWIDTH 14 0
BBX 12 17 1 -3
BITMAP
3F80
FFC0
7FE0
00E0
00E0
00E0
1FC0
1FC0
01E0
00F0
00F0
E1E0
FFE0
7F80
0E00
0E00
0E00
ENDCHAR
STARTCHAR 049A
ENCODING 1178
SWIDTH 760 0
DWIDTH 19 0
BBX 17 22 2 -4
BITMAP
F00E00
F01C00
F03C00
F03800
F07800
F07000
F0E000
F1E000
FFC000
FFC000
FFC000
F1E000
F0F000
F07800
F07800
F03F80
F01F80
F00F80
000380
000380
000380
000380
ENDCHAR
STARTCHAR 049B
ENCODING 1179
SWIDTH 600 0
DWIDTH 15 0
BBX 14 17 2 -3
BITMAP
E078
E070
E0E0
E1E0
E1C0
E380
FF80
FF80
FF80
E3C0
E1E0
E0FC
E07C
E07C
001C
001C
001C
ENDCHAR
STARTCHAR 049C
ENCODING 1180
SWIDTH 760 0
DWIDTH 19 0
BBX 16 18 2 0
BITMAP
F00F
F00E
F01E
F03C
F638
F678
F670
FFE0
FFE0
FFF0
F6F0
F678
F638
F63C
F01C
F01E
F00F
F00F
ENDCHAR
STARTCHAR 049D
ENCODING 1181
SWIDTH 640 0
DWIDTH 16 0
BBX 13 14 2 0
BITMAP
E038
E070
E070
ECE0
ECE0
EDC0
FF80
FF80
FFC0
EDE0
ECE0
E0F0
E078
E038
ENDCHAR
STARTCHAR 049E
ENCODING 1182
SWIDTH 760 0
DWIDTH 19 0
BBX 17 18 1 0
BITMAP
380780
380700
FF8E00
FF9E00
383C00
383800
387000
3FF000
3FE000
3FF000
387000
387800
383C00
381C00
381E00
380F00
380700
380780
ENDCHAR
STARTCHAR 049F
ENCODING 1183
SWIDTH 600 0
DWIDTH 15 0
BBX 15 19 0 0
BITMAP
3800
3800
FF80
FF80
3800
381E
381C
3838
3878
3870
38E0
3FC0
3FE0
3FE0
38F0
3878
3838
383C
381E
ENDCHAR
STARTCHAR 04A0
ENCODING 1184
SWIDTH 840 0
DWIDTH 21 0
BBX 20 18 0 0
BITMAP
FF8070
FF80E0
FF81E0
0781C0
078380
078780
078700
07FE00
07FE00
07FE00
078F00
078780
078780
0783C0
0781C0
0781E0
0780F0
078070
ENDCHAR
STARTCHAR 04A1
ENCODING 1185
SWIDTH 680 0
DWIDTH 17 0
BBX 17 14 0 0
BITMAP
FE0780
FE0700
FE0E00
0E1C00
0E3C00
0FF800
0FF000
0FF800
0E3C00
0E1C00
0E1E00
0E0F00
0E0700
0E0780
ENDCHAR
STARTCHAR 04A2
ENCODING 1186
SWIDTH 840 0
DWIDTH 21 0
BBX 19 22 2 -4
BITMAP
F00700
F00700
F00700
F00700
F00700
F00700
F00700
FFFF00
FFFF00
FFFF00
F00700
F00700
F00700
F00700
F00700
F007E0
F007E0
F007E0
0000E0
0000E0
0000E0
0000E0
ENDCHAR
STARTCHAR 04A3
ENCODING 1187
SWIDTH 720 0
DWIDTH 18 0
BBX 15 17 2 -3
BITMAP
E038
E038
E038
E038
E038
E038
FFF8
FFF8
FFF8
E038
E038
E03E
E03E
E03E
000E
000E
000E
ENDCHAR
STARTCHAR 04A4
ENCODING 1188
SWIDTH 1080 0
DWIDTH 27 0
BBX 25 18 2 0
BITMAP
F007FF80
F007FF80
F007FF80
F0070000
F0070000
F0070000
F0070000
FFFF0000
FFFF0000
FFFF0000
F0070000
F0070000
F0070000
F0070000
F0070000
F0070000
F0070000
F0070000
ENDCHAR
STARTCHAR 04A5
ENCODING 1189
SWIDTH 880 0
DWIDTH 22 0
BBX 20 14 2 0
BITMAP
E03FF0
E03FF0
E03FF0
E03800
E03800
FFF800
FFF800
FFF800
E03800
E03800
E03800
E03800
E03800
E03800
ENDCHAR
STARTCHAR 04A6
ENCODING 1190
SWIDTH 1200 0
DWIDTH 30 0
BBX 27 22 2 -4
BITMAP
FFFF0000
FFFF0000
FFFF0000
F0070000
F0070000
F0070000
F0070000
F0070000
F0077E00
F007FF80
F007FFC0
F00703C0
F00701E0
F00701E0
F00700E0
F00700E0
F00701E0
F00701C0
000003C0
00001F80
00003F00
00003C00
ENDCHAR
STARTCHAR 04A7
ENCODING 1191
SWIDTH 1000 0
DWIDTH 25 0
BBX 22 19 2 -5
BITMAP
FFF800
FFF800
FFF800
E07800
E07800
E07800
E07900
E07FF0
E07FF8
E0787C
E0783C
E0781C
E0781C
E0781C
00001C
00003C
0003F8
0003F0
0003C0
ENDCHAR
STARTCHAR 04A8
ENCODING 1192
SWIDTH 960 0
DWIDTH 24 0
BBX 22 18 1 0
BITMAP
080FC0
1E1FE0
3C3FF0
387878
70F038
70E03C
F0E03C
F0E03C
F0E03C
F0E038
F0E038
70F038
787070
3878F0
3E3DE0
1F9FC0
0FFFFC
01FFFC
ENDCHAR
STARTCHAR 04A9
ENCODING 1193
SWIDTH 800 0
DWIDTH 20 0
BBX 18 14 1 0
BITMAP
103E00
3CFF00
79FF80
71C3C0
F1C1C0
E381C0
E381C0
E1C1C0
F1C380
71C380
78E700
3E7E00
1FFFC0
07FFC0
ENDCHAR
STARTCHAR 04AA
ENCODING 1194
SWIDTH 720 0
DWIDTH 18 0
BBX 16 21 1 -3
BITMAP
03F8
0FFE
1FFF
3E0F
7802
7000
7000
F000
E000
E000
F000
F000
7000
7802
3E07
1FFF
0FFE
03F8
00E0
00E0
00E0
ENDCHAR
STARTCHAR 04AB
ENCODING 1195
SWIDTH 600 0
DWIDTH 15 0
BBX 13 17 1 -3
BITMAP
0FC0
1FF0
3FF8
7870
F020
E000
E000
E000
E000
F000
7030
7CF8
3FF0
0FE0
0700
0700
0700
ENDCHAR
STARTCHAR 04AC
ENCODING 1196
SWIDTH 640 0
DWIDTH 16 0
BBX 15 22 0 -4
BITMAP
FFFE
FFFE
FFFE
0380
0380
0380
0380
0380
0380
0380
0380
0380
0380
0380
0380
03F0
03F0
03F0
0070
0070
0070
0070
ENDCHAR
STARTCHAR 04AD
ENCODING 1197
SWIDTH 520 0
DWIDTH 13 0
BBX 13 17 0 -3
BITMAP
FFF8
FFF8
FFF8
0700
0700
0700
0700
0700
0700
0700
0700
07C0
07C0
07C0
01C0
01C0
01C0
ENDCHAR
STARTCHAR 04AE
ENCODING 1198
SWIDTH 680 0
DWIDTH 17 0
BBX 17 18 0 0
BITMAP
F00380
700700
380F00
3C0E00
1C1C00
1E1C00
0E3800
0F7800
07F000
03E000
03E000
01C000
01C000
01C000
01C000
01C000
01C000
01C000
ENDCHAR
STARTCHAR 04AF
ENCODING 1199
SWIDTH 600 0
DWIDTH 15 0
BBX 15 19 0 -5
BITMAP
F00E
701C
701C
7838
3838
3C70
1C70
1C70
0EE0
0EE0
0FC0
07C0
07C0
0380
0380
0380
0380
0380
0380
ENDCHAR
STARTCHAR 04B0
ENCODING 1200
SWIDTH 680 0
DWIDTH 17 0
BBX 17 18 0 0
BITMAP
F00380
700700
380F00
3C0E00
1C1C00
1E3C00
0F3800
077000
07F000
03E000
1FFC00
1FFC00
01C000
01C000
01C000
01C000
01C000
01C000
ENDCHAR
STARTCHAR 04B1
ENCODING 1201
SWIDTH 600 0
DWIDTH 15 0
BBX 15 19 0 -5
BITMAP
F00E
701C
701C
7838
3838
3838
1C70
1C70
1EE0
0EE0
0FC0
07C0
07C0
3FF8
3FF8
0380
0380
0380
0380
ENDCHAR
STARTCHAR 04B2
ENCODING 1202
SWIDTH 720 0
DWIDTH 18 0
BBX 17 22 1 -4
BITMAP
F01E00
781C00
783C00
3C7800
1E7000
1EF000
0FE000
07C000
07C000
07C000
0FE000
0FF000
1EF000
3C7800
3C3C00
783F80
F01F80
E00F80
000380
000380
000380
000380
ENDCHAR
STARTCHAR 04B3
ENCODING 1203
SWIDTH 560 0
DWIDTH 14 0
BBX 15 17 0 -3
BITMAP
7038
7878
3C70
1CE0
0FC0
0FC0
0780
0780
0FC0
1FE0
1CE0
387E
787E
F03E
000E
000E
000E
ENDCHAR
STARTCHAR 04B4
ENCODING 1204
SWIDTH 1000 0
DWIDTH 25 0
BBX 24 22 0 -4
BITMAP
FFFC38
FFFC38
FFFC38
038038
038038
038038
038038
038038
038038
038038
038038
038038
038038
038038
038038
03FFFF
03FFFF
03FFFF
000007
000007
000007
000007
ENDCHAR
STARTCHAR 04B5
ENCODING 1205
SWIDTH 800 0
DWIDTH 20 0
BBX 19 17 0 -3
BITMAP
FFE380
FFE380
FFE380
070380
070380
070380
070380
070380
070380
070380
070380
07FFE0
07FFE0
07FFE0
0000E0
0000E0
0000E0
ENDCHAR
STARTCHAR 04B6
ENCODING 1206
SWIDTH 760 0
DWIDTH 19 0
BBX 18 22 1 -4
BITMAP
E00E00
E00E00
E00E00
E00E00
E00E00
E00E00
F00E00
F00E00
781E00
7FFE00
3FFE00
0FEE00
000E00
000E00
000E00
000FC0
000FC0
000FC0
0001C0
0001C0
0001C0
0001C0
ENDCHAR
STARTCHAR 04B7
ENCODING 1207
SWIDTH 640 0
DWIDTH 16 0
BBX 14 17 1 -3
BITMAP
E070
E070
E070
E070
E070
E070
F070
FFF0
7FF0
3F70
0070
007C
007C
007C
000C
000C
000C
ENDCHAR
STARTCHAR 04B8
ENCODING 1208
SWIDTH 760 0
DWIDTH 19 0
BBX 15 18 1 0
BITMAP
E00E
E00E
E00E
E00E
E00E
E00E
F38E
F38E
7B8E
7FFE
3FFE
1FEE
038E
038E
038E
000E
000E
000E
ENDCHAR
STARTCHAR 04B9
ENCODING 1209
SWIDTH 640 0
DWIDTH 16 0
BBX 12 14 1 0
BITMAP
E070
E070
E070
E070
E670
F670
FFF0
7FF0
3F70
0670
0670
0670
0070
0070
ENDCHAR
STARTCHAR 04BA
ENCODING 1210
SWIDTH 760 0
DWIDTH 19 0
BBX 15 18 2 0
BITMAP
F000
F000
F000
F000
F000
F000
F7F0
FFF8
FFFC
F01E
F00E
F00E
F00E
F00E
F00E
F00E
F00E
F00E
ENDCHAR
STARTCHAR 04BB
ENCODING 1211
SWIDTH 680 0
DWIDTH 17 0
BBX 13 19 2 0
BITMAP
E000
E000
E000
E000
E000
E7C0
FFF0
FFF0
F878
F038
E038
E038
E038
E038
E038
E038
E038
E038
E038
ENDCHAR
STARTCHAR 04BC
ENCODING 1212
SWIDTH 1000 0
DWIDTH 25 0
BBX 23 18 1 0
BITMAP
001F80
007FE0
00FFF8
01E078
E3C03C
E3801C
E7801E
E7800E
FFFFFE
7FFFFE
3FFFFE
078000
078000
03C000
01E078
01FFF8
007FF0
001F80
ENDCHAR
STARTCHAR 04BD
ENCODING 1213
SWIDTH 800 0
DWIDTH 20 0
BBX 18 14 1 0
BITMAP
00FC00
03FF00
07FF80
C70380
CF03C0
EE01C0
FFFFC0
7FFFC0
0E0000
0F0000
078100
07FF80
03FF00
00FC00
ENDCHAR
STARTCHAR 04BE
ENCODING 1214
SWIDTH 1000 0
DWIDTH 25 0
BBX 23 21 1 -3
BITMAP
001F80
007FE0
00FFF8
01E078
E3C03C
E3801C
E7801E
E7800E
FFFFFE
7FFFFE
3FFFFE
078000
078000
03C010
03F078
01FFF8
007FE0
001F80
000700
000700
000700
ENDCHAR
STARTCHAR 04BF
ENCODING 1215
SWIDTH 800 0
DWIDTH 20 0
BBX 18 17 1 -3
BITMAP
00FC00
03FF00
07FF00
C70380
CF03C0
CE01C0
FFFFC0
7FFFC0
0E0000
0F0000
070100
07C780
03FF00
00FC00
003800
003800
003800
ENDCHAR
STARTCHAR 04C0
ENCODING 1216
SWIDTH 320 0
DWIDTH 8 0
BBX 4 18 2 0
BITMAP
F0
F0
F0
F0
F0
F0
F0
F0
F0
F0
F0
F0
F0
F0
F0
F0
F0
F0
ENDCHAR
STARTCHAR 04C1
ENCODING 1217
SWIDTH 1040 0
DWIDTH 26 0
BBX 25 23 1 0
BITMAP
00C38000
00E38000
007F0000
003C0000
00000000
F01C0700
701C0F00
781C0E00
381C1C00
1C1C3C00
1C1C3800
0E1C7800
0FFFF000
07FFF000
0FFFF000
0E1C7800
1E1C3800
1C1C3C00
3C1C1C00
781C1E00
781C0E00
F01C0F00
E01C0780
ENDCHAR
STARTCHAR 04C2
ENCODING 1218
SWIDTH 880 0
DWIDTH 22 0
BBX 20 19 1 0
BITMAP
030C00
039C00
01F800
00E000
000000
E0F070
F0F0F0
70F0E0
38F1C0
38F1C0
1CF380
1FFF80
1FFF80
1FFF80
3CF3C0
78F1E0
70F1E0
F0F0F0
E0F070
ENDCHAR
STARTCHAR 04C3
ENCODING 1219
SWIDTH 720 0
DWIDTH 18 0
BBX 16 23 2 -5
BITMAP
F00E
F01C
F03C
F038
F070
F0F0
F1E0
FFC0
FFC0
FFE0
F1E0
F0F0
F078
F03C
F01C
F01E
F00E
F00F
000F
000F
007E
00FE
0078
ENDCHAR
STARTCHAR 04C4
ENCODING 1220
SWIDTH 600 0
DWIDTH 15 0
BBX 13 19 2 -5
BITMAP
E078
E070
E0E0
E1E0
E1C0
E380
FF80
FF80
FFC0
E1E0
E0E0
E070
E078
E038
0038
0038
03F8
03F0
03E0
ENDCHAR
STARTCHAR 04C6
ENCODING 1222
SWIDTH 680 0
DWIDTH 17 0
BBX 16 17 0 -3
BITMAP
1FFC
1FFC
1FFC
1C1C
1C1C
1C1C
1C1C
1C1C
1C1C
1C1C
381C
F81F
F81F
F01F
0006
0006
000E
ENDCHAR
STARTCHAR 04C7
ENCODING 1223
SWIDTH 800 0
DWIDTH 20 0
BBX 16 23 2 -5
BITMAP
F007
F007
F007
F007
F007
F007
F007
F007
FFFF
FFFF
FFFF
F007
F007
F007
F007
F007
F007
F007
0007
000F
007F
00FE
007C
ENDCHAR
STARTCHAR 04C8
ENCODING 1224
SWIDTH 680 0
DWIDTH 17 0
BBX 13 19 2 -5
BITMAP
E038
E038
E038
E038
E038
E038
FFF8
FFF8
FFF8
E038
E038
E038
E038
E038
0038
0038
03F8
03F0
03E0
ENDCHAR
STARTCHAR 04C9
ENCODING 1225
SWIDTH 840 0
DWIDTH 21 0
BBX 19 22 2 -4
BITMAP
F00700
F00700
F00700
F00700
F00700
F00700
F00700
FFFF00
FFFF00
FFFF00
F00700
F00700
F00700
F00700
F00700
F007E0
F007C0
F007C0
0001C0
000180
000380
000380
ENDCHAR
STARTCHAR 04CA
ENCODING 1226
SWIDTH 720 0
DWIDTH 18 0
BBX 15 17 2 -3
BITMAP
E038
E038
E038
E038
E038
E038
FFF8
FFF8
FFF8
E038
E038
E03E
E03E
E03E
000C
001C
001C
ENDCHAR
STARTCHAR 04CB
ENCODING 1227
SWIDTH 720 0
DWIDTH 18 0
BBX 15 22 1 -4
BITMAP
E00E
E00E
E00E
E00E
E00E
E00E
F00E
F00E
781E
7FFE
3FFE
07CE
000E
000E
000E
007E
007E
007E
0070
0070
0070
0070
ENDCHAR
STARTCHAR 04CC
ENCODING 1228
SWIDTH 600 0
DWIDTH 15 0
BBX 12 17 1 -3
BITMAP
E070
E070
E070
E070
E070
E070
FFF0
7FF0
3F70
0070
0070
01F0
01F0
01F0
01C0
01C0
01C0
ENDCHAR
STARTCHAR 04CD
ENCODING 1229
SWIDTH 1000 0
DWIDTH 25 0
BBX 22 22 2 -4
BITMAP
E00070
F000F0
F801F0
F801F0
FC03F0
FC03F0
FE07F0
FE07F0
F70EF0
F79EF0
F39CF0
F1F8F0
F1F8F0
F0F0F0
F0F0F0
F060FC
F000FC
F000FC
00001C
000018
000038
000038
ENDCHAR
STARTCHAR 04CE
ENCODING 1230
SWIDTH 840 0
DWIDTH 21 0
BBX 18 17 2 -3
BITMAP
F00700
F00F00
F80F00
F81F00
FC1F00
FC3F00
EE7700
EE7700
E7E700
E3E700
E3C700
E187C0
E187C0
E007C0
0001C0
000180
000380
ENDCHAR
STARTCHAR 04CF
ENCODING 1231
SWIDTH 280 0
DWIDTH 7 0
BBX 3 19 2 0
BITMAP
E0
E0
E0
E0
E0
E0
E0
E0
E0
E0
E0
E0
E0
E0
E0
E0
E0
E0
E0
ENDCHAR
STARTCHAR 04D0
ENCODING 1232
SWIDTH 760 0
DWIDTH 19 0
BBX 19 23 0 0
BITMAP
060C00
071C00
03F800
00E000
000000
00F000
01F000
01F000
01F800
03B800
039C00
071C00
071E00
0E0E00
0E0E00
1E0700
1FFF00
1FFF80
3FFF80
3803C0
7801C0
7001E0
F000E0
ENDCHAR
STARTCHAR 04D1
ENCODING 1233
SWIDTH 600 0
DWIDTH 15 0
BBX 12 19 1 0
BITMAP
30E0
38C0
1FC0
0700
0000
1F80
7FE0
7FE0
40F0
0070
0070
3FF0
7FF0
F070
E070
E070
F1F0
7FF0
3F70
ENDCHAR
STARTCHAR 04D2
ENCODING 1234
SWIDTH 760 0
DWIDTH 19 0
BBX 19 23 0 0
BITMAP
031800
039C00
031800
000000
000000
00F000
01F000
01F000
01F800
03B800
039C00
071C00
071E00
0E0E00
0E0E00
1E0700
1FFF00
1FFF80
3FFF80
3803C0
7801C0
7001E0
F000E0
ENDCHAR
STARTCHAR 04D3
ENCODING 1235
SWIDTH 600 0
DWIDTH 15 0
BBX 12 19 1 0
BITMAP
18C0
39C0
18C0
0000
0000
1F80
7FE0
7FE0
40F0
0070
0070
3FF0
7FF0
F070
E070
E070
F1F0
7FF0
3F70
ENDCHAR
STARTCHAR 04D4
ENCODING 1236
SWIDTH 1080 0
DWIDTH 27 0
BBX 26 18 0 0
BITMAP
003FFF80
007FFF80
007FFF80
00EF0000
00EF0000
01CF0000
01CF0000
038FFF00
078FFF00
070FFF00
0F0F0000
0FFF0000
1FFF0000
1FFF0000
380F0000
380FFFC0
700FFFC0
F00FFFC0
ENDCHAR
STARTCHAR 04D5
ENCODING 1237
SWIDTH 1000 0
DWIDTH 25 0
BBX 23 14 1 0
BITMAP
1F87E0
7FEFF0
7FFFF8
40F81C
00781C
00700E
3FFFFE
7FFFFE
F07000
E07800
E07C18
F1FFFC
7FCFF8
1F07E0
ENDCHAR
STARTCHAR 04D6
ENCODING 1238
SWIDTH 680 0
DWIDTH 17 0
BBX 14 23 2 0
BITMAP
3860
1860
1FE0
0700
0000
FFF8
FFF8
FFF8
F000
F000
F000
F000
FFF0
FFF0
FFF0
F000
F000
F000
F000
F000
FFFC
FFFC
FFFC
ENDCHAR
STARTCHAR 04D7
ENCODING 1239
SWIDTH 640 0
DWIDTH 16 0
BBX 14 19 1 0
BITMAP
1860
18E0
1FC0
0700
0000
0FC0
3FE0
7FF0
7078
F038
E018
FFFC
FFFC
E000
F000
7830
7FF0
3FF0
0FC0
ENDCHAR
STARTCHAR 04D8
ENCODING 1240
SWIDTH 840 0
DWIDTH 21 0
BBX 18 18 1 0
BITMAP
03F000
1FFC00
3FFF00
3C0F80
100780
0003C0
0001C0
0001C0
FFFFC0
FFFFC0
E001C0
F001C0
7003C0
780780
3C0F80
1FFF00
0FFC00
03F000
ENDCHAR
STARTCHAR 04D9
ENCODING 1241
SWIDTH 640 0
DWIDTH 16 0
BBX 14 14 1 0
BITMAP
0FC0
3FE0
7FF8
3078
003C
001C
FFFC
FFFC
E01C
703C
7038
3FF8
1FF0
0FC0
ENDCHAR
STARTCHAR 04DA
ENCODING 1242
SWIDTH 840 0
DWIDTH 21 0
BBX 18 22 1 0
BITMAP
031800
073800
031800
000000
03F000
1FFC00
3FFF00
3C0F80
100780
0003C0
0001C0
0001C0
FFFFC0
FFFFC0
E001C0
F001C0
7003C0
780780
3C0F80
1FFF00
0FFC00
03F000
ENDCHAR
STARTCHAR 04DB
ENCODING 1243
SWIDTH 640 0
DWIDTH 16 0
BBX 14 19 1 0
BITMAP
0CE0
1CE0
0CE0
0000
0000
0FC0
3FE0
7FF8
3078
003C
001C
FFFC
FFFC
E01C
703C
7038
3FF8
1FF0
0FC0
ENDCHAR
STARTCHAR 04DC
ENCODING 1244
SWIDTH 1040 0
DWIDTH 26 0
BBX 25 23 1 0
BITMAP
00630000
00E70000
00670000
00000000
00000000
F01C0700
701C0F00
781C0E00
381C1C00
1C1C3C00
1C1C3800
0E1C7800
0FFFF000
07FFF000
0FFFF000
0E1C7800
1E1C3800
1C1C3C00
3C1C1C00
781C1E00
781C0E00
F01C0F00
E01C0780
ENDCHAR
STARTCHAR 04DD
ENCODING 1245
SWIDTH 880 0
DWIDTH 22 0
BBX 20 19 1 0
BITMAP
039C00
039C00
039C00
000000
000000
E0F070
F0F0F0
70F0E0
38F1C0
38F1C0
1CF380
1FFF80
1FFF80
1FFF80
3CF3C0
78F1E0
70F1E0
F0F0F0
E0F070
ENDCHAR
STARTCHAR 04DE
ENCODING 1246
SWIDTH 640 0
DWIDTH 16 0
BBX 14 22 1 0
BITMAP
1CE0
1CE0
1CE0
0000
1F80
FFE0
7FF8
4078
0038
0038
0038
1FF0
1FE0
1FF0
0078
003C
001C
003C
C07C
FFF8
FFF0
1FC0
ENDCHAR
STARTCHAR 04DF
ENCODING 1247
SWIDTH 560 0
DWIDTH 14 0
BBX 12 19 1 0
BITMAP
3180
39C0
3180
0000
0000
3F80
FFC0
7FE0
00E0
00E0
01E0
1FC0
1FC0
00E0
00F0
80F0
FFE0
FFC0
3F00
ENDCHAR
STARTCHAR 04E0
ENCODING 1248
SWIDTH 640 0
DWIDTH 16 0
BBX 14 18 1 0
BITMAP
FFF8
FFF8
FFF8
00F0
01E0
03C0
0380
0780
07F0
07F8
0078
003C
003C
003C
E078
FFF8
FFF0
1FC0
ENDCHAR
STARTCHAR 04E1
ENCODING 1249
SWIDTH 560 0
DWIDTH 14 0
BBX 13 19 0 -5
BITMAP
FFF0
FFF0
FFF0
00E0
01C0
0380
0780
0700
0FC0
0FF0
01F0
0078
0078
0038
0078
E0F0
FFF0
FFE0
3F80
ENDCHAR
STARTCHAR 04E2
ENCODING 1250
SWIDTH 840 0
DWIDTH 21 0
BBX 16 22 2 0
BITMAP
0FF8
0FF8
0000
0000
F007
F00F
F01F
F03F
F03F
F07F
F0F7
F0E7
F1C7
F3C7
F787
F707
FF07
FE07
FC07
F807
F807
F007
ENDCHAR
STARTCHAR 04E3
ENCODING 1251
SWIDTH 720 0
DWIDTH 18 0
BBX 13 18 2 0
BITMAP
3FE0
3FE0
0000
0000
E038
E078
E078
E0F8
E1F8
E3F8
E7B8
E738
EE38
FE38
FC38
F838
F038
E038
ENDCHAR
STARTCHAR 04E4
ENCODING 1252
SWIDTH 840 0
DWIDTH 21 0
BBX 16 23 2 0
BITMAP
0630
0E70
0630
0000
0000
F007
F00F
F01F
F03F
F03F
F07F
F0F7
F0E7
F1C7
F3C7
F787
F707
FF07
FE07
FC07
F807
F807
F007
ENDCHAR
STARTCHAR 04E5
ENCODING 1253
SWIDTH 720 0
DWIDTH 18 0
BBX 13 19 2 0
BITMAP
18C0
1DC0
18C0
0000
0000
E038
E078
E078
E0F8
E1F8
E3F8
E7B8
E738
EE38
FE38
FC38
F838
F038
E038
ENDCHAR
STARTCHAR 04E6
ENCODING 1254
SWIDTH 840 0
DWIDTH 21 0
BBX 19 22 1 0
BITMAP
031800
03B800
031800
000000
03F800
0FFE00
1FFF00
3E0F80
7803C0
7001C0
F001E0
F000E0
E000E0
E000E0
F000E0
F001E0
7001C0
7803C0
3E0780
1FFF00
0FFE00
03F800
ENDCHAR
STARTCHAR 04E7
ENCODING 1255
SWIDTH 640 0
DWIDTH 16 0
BBX 14 19 1 0
BITMAP
1CE0
1CE0
1CE0
0000
0000
0FC0
1FF0
7FF8
7878
F03C
E01C
E01C
E01C
E01C
F03C
7838
7FF8
3FF0
0FC0
ENDCHAR
STARTCHAR 04E8
ENCODING 1256
SWIDTH 840 0
DWIDTH 21 0
BBX 19 18 1 0
BITMAP
03F800
0FFE00
1FFF00
3E0F80
7803C0
7001C0
F001E0
F000E0
FFFFE0
FFFFE0
F000E0
F001E0
7801C0
7803C0
3E0F80
1FFF00
0FFE00
03F800
ENDCHAR
STARTCHAR 04E9
ENCODING 1257
SWIDTH 640 0
DWIDTH 16 0
BBX 14 14 1 0
BITMAP
0FC0
1FF0
3CF8
703C
F01C
E01C
FFFC
FFFC
E01C
F01C
703C
7EF8
1FF0
0FC0
ENDCHAR
STARTCHAR 04EA
ENCODING 1258
SWIDTH 840 0
DWIDTH 21 0
BBX 19 22 1 0
BITMAP
031800
03B800
031800
000000
03F800
0FFE00
1FFF00
3E0F80
7803C0
7001C0
F001E0
F000E0
FFFFE0
FFFFE0
F000E0
F001E0
7801C0
7803C0
3E0F80
1FFF00
0FFE00
03F800
ENDCHAR
STARTCHAR 04EB
ENCODING 1259
SWIDTH 640 0
DWIDTH 16 0
BBX 14 19 1 0
BITMAP
0C60
1CE0
0CE0
0000
0000
0FC0
1FF0
3CF8
703C
F01C
E01C
FFFC
FFFC
E01C
F01C
703C
7EF8
1FF0
0FC0
ENDCHAR
STARTCHAR 04EC
ENCODING 1260
SWIDTH 720 0
DWIDTH 18 0
BBX 16 22 1 0
BITMAP
0CE0
1CE0
0CE0
0000
1FC0
7FF0
FFF8
F07C
401E
001E
000E
0FFF
0FFF
0FFF
000E
000E
001E
401C
F07C
FFF8
7FF0
1FC0
ENDCHAR
STARTCHAR 04ED
ENCODING 1261
SWIDTH 600 0
DWIDTH 15 0
BBX 13 19 1 0
BITMAP
3180
39C0
3180
0000
0000
3F00
FFC0
FFE0
40F0
0070
0070
1FF8
1FF8
0070
0070
40F0
FFE0
FFC0
3F00
ENDCHAR
STARTCHAR 04EE
ENCODING 1262
SWIDTH 720 0
DWIDTH 18 0
BBX 16 22 1 0
BITMAP
1FF0
1FF0
0000
0000
E007
F007
700E
781E
381C
3C3C
1C38
1E70
0E70
0FE0
07E0
07C0
03C0
0380
0780
7F00
7E00
7C00
ENDCHAR
STARTCHAR 04EF
ENCODING 1263
SWIDTH 600 0
DWIDTH 15 0
BBX 14 23 0 -5
BITMAP
1FE0
1FE0
0000
0000
E01C
701C
701C
7838
3838
3C70
1C70
1C70
0EE0
0EE0
0FC0
07C0
0780
0380
0380
0700
FF00
FE00
7C00
ENDCHAR
STARTCHAR 04F0
ENCODING 1264
SWIDTH 720 0
DWIDTH 18 0
BBX 16 23 1 0
BITMAP
0C60
0E70
0C60
0000
0000
E007
F007
700E
781E
381C
3C3C
1C38
1E70
0E70
0FE0
07E0
07C0
03C0
0380
0780
7F00
7E00
7C00
ENDCHAR
STARTCHAR 04F1
ENCODING 1265
SWIDTH 600 0
DWIDTH 15 0
BBX 14 24 0 -5
BITMAP
1CE0
1CE0
1CE0
0000
0000
E01C
701C
701C
7838
3838
3C70
1C70
1C70
0EE0
0EE0
0FC0
07C0
0780
0380
0380
0700
FF00
FE00
7C00
ENDCHAR
STARTCHAR 04F2
ENCODING 1266
SWIDTH 720 0
DWIDTH 18 0
BBX 16 23 1 0
BITMAP
039C
0738
0670
0000
0000
E007
F007
700E
781E
381C
3C3C
1C38
1E70
0E70
0FE0
07E0
07C0
03C0
0380
0780
7F00
7E00
7C00
ENDCHAR
STARTCHAR 04F3
ENCODING 1267
SWIDTH 600 0
DWIDTH 15 0
BBX 14 24 0 -5
BITMAP
0738
0670
0E60
0000
0000
E01C
701C
701C
7838
3838
3C70
1C70
1C70
0EE0
0EE0
0FC0
07C0
0780
0380
0380
0700
FF00
FE00
7C00
ENDCHAR
STARTCHAR 04F4
ENCODING 1268
SWIDTH 760 0
DWIDTH 19 0
BBX 15 23 1 0
BITMAP
0C60
0E70
0C60
0000
0000
E00E
E00E
E00E
E00E
E00E
E00E
F00E
F00E
781E
7FFE
3FFE
0FEE
000E
000E
000E
000E
000E
000E
ENDCHAR
STARTCHAR 04F5
ENCODING 1269
SWIDTH 640 0
DWIDTH 16 0
BBX 12 19 1 0
BITMAP
19C0
39C0
19C0
0000
0000
E070
E070
E070
E070
E070
E070
F070
7FF0
3FF0
0070
0070
0070
0070
0070
ENDCHAR
STARTCHAR 04F6
ENCODING 1270
SWIDTH 600 0
DWIDTH 15 0
BBX 12 22 2 -4
BITMAP
FFF0
FFF0
FFF0
F000
F000
F000
F000
F000
F000
F000
F000
F000
F000
F000
F000
FC00
FC00
FC00
1C00
1C00
1C00
1C00
ENDCHAR
STARTCHAR 04F7
ENCODING 1271
SWIDTH 520 0
DWIDTH 13 0
BBX 10 17 2 -3
BITMAP
FFC0
FFC0
FFC0
E000
E000
E000
E000
E000
E000
E000
E000
F800
F800
F800
3800
3800
3800
ENDCHAR
STARTCHAR 04F8
ENCODING 1272
SWIDTH 1000 0
DWIDTH 25 0
BBX 21 23 2 0
BITMAP
018C00
01CE00
018C00
000000
000000
F00038
F00038
F00038
F00038
F00038
F00038
FFF038
FFF838
F0FC38
F01E38
F00E38
F00E38
F00E38
F00E38
F01E38
F0FC38
FFF838
FFE038
ENDCHAR
STARTCHAR 04F9
ENCODING 1273
SWIDTH 840 0
DWIDTH 21 0
BBX 17 19 2 0
BITMAP
063000
073800
063000
000000
000000
E00380
E00380
E00380
E00380
E00380
FFC380
FFE380
E0F380
E07380
E07380
E0F380
E1E380
FFE380
FF8380
ENDCHAR
STARTCHAR 04FA
ENCODING 1274
SWIDTH 640 0
DWIDTH 16 0
BBX 14 23 1 -5
BITMAP
3FFC
3FFC
3FFC
3800
3800
3800
3800
3800
3800
FFF8
FFF8
3800
3800
3800
3800
3F00
3F00
3F00
0700
0F00
7E00
FE00
7800
ENDCHAR
STARTCHAR 04FB
ENCODING 1275
SWIDTH 520 0
DWIDTH 13 0
BBX 11 19 1 -5
BITMAP
3FE0
3FE0
3FE0
3800
3800
3800
FFC0
FFC0
3800
3800
3800
3800
3E00
3E00
0E00
0E00
FE00
FC00
F800
ENDCHAR
STARTCHAR 04FC
ENCODING 1276
SWIDTH 680 0
DWIDTH 17 0
BBX 16 23 1 -5
BITMAP
F00E
701E
783C
3C38
1C78
1EF0
0FE0
07C0
03C0
07C0
07E0
0EF0
1E78
3C78
383C
781E
F01E
E00F
000F
000F
007E
00FE
0078
ENDCHAR
STARTCHAR 04FD
ENCODING 1277
SWIDTH 560 0
DWIDTH 14 0
BBX 13 19 1 -5
BITMAP
E070
F0F0
78E0
39C0
1FC0
1F80
0F00
0F80
1FC0
3DC0
39E0
70F0
F070
E078
0038
0038
03F8
03F0
03E0
ENDCHAR
STARTCHAR 04FE
ENCODING 1278
SWIDTH 720 0
DWIDTH 18 0
BBX 16 18 1 0
BITMAP
F00E
781E
383C
3C38
1E78
0EF0
0FE0
07E0
7FFC
7FFC
07E0
0FF0
1EF0
1C78
3C3C
781C
701E
F00F
ENDCHAR
STARTCHAR 04FF
ENCODING 1279
SWIDTH 600 0
DWIDTH 15 0
BBX 13 14 1 0
BITMAP
F078
7070
78E0
3DE0
1FC0
1F80
7FF0
7FF0
1F80
1DC0
39E0
78E0
F070
E078
ENDCHAR
STARTCHAR 0510
ENCODING 1296
SWIDTH 640 0
DWIDTH 16 0
BBX 14 18 1 0
BITMAP
07F0
1FFC
3FFC
7808
7000
7000
7800
3FE0
1FE0
3FE0
7800
F000
F000
F000
780C
7FFC
3FFC
0FE0
ENDCHAR
STARTCHAR 0511
ENCODING 1297
SWIDTH 560 0
DWIDTH 14 0
BBX 12 14 1 0
BITMAP
1FC0
3FF0
7FE0
7000
7000
7800
3F80
7F80
F000
E000
F000
7FF0
7FF0
1FC0
ENDCHAR
STARTCHAR 0512
ENCODING 1298
SWIDTH 800 0
DWIDTH 20 0
BBX 17 23 0 -5
BITMAP
0FFF80
0FFF80
0FFF80
0E0380
0E0380
0E0380
0E0380
0E0380
0E0380
0E0380
0E0380
0E0380
0E0380
1C0380
1C0380
FC0380
F80380
F00380
000380
000380
003F80
003F00
003E00
ENDCHAR
STARTCHAR 0513
ENCODING 1299
SWIDTH 640 0
DWIDTH 16 0
BBX 14 19 0 -5
BITMAP
1FFC
1FFC
1FFC
1C1C
1C1C
1C1C
1C1C
1C1C
1C1C
1C1C
381C
F81C
F81C
F01C
001C
001C
01FC
01F8
01F0
ENDCHAR
STARTCHAR 051A
ENCODING 1306
SWIDTH 840 0
DWIDTH 21 0
BBX 19 22 1 -4
BITMAP
03F800
0FFE00
1FFF00
3E0F80
7803C0
7001C0
7001E0
F001E0
E000E0
E000E0
F000E0
F001E0
7001C0
7803C0
3C0780
1FFF80
0FFE00
07FC00
007820
003FE0
001FE0
0007C0
ENDCHAR
STARTCHAR 051B
ENCODING 1307
SWIDTH 680 0
DWIDTH 17 0
BBX 14 19 1 -5
BITMAP
0F9C
3FFC
7FFC
783C
F03C
E01C
E01C
E01C
E01C
F03C
783C
7FFC
3FFC
0F9C
001C
001C
001C
001C
001C
ENDCHAR
STARTCHAR 051C
ENCODING 1308
SWIDTH 1120 0
DWIDTH 28 0
BBX 26 18 1 0
BITMAP
E01E01C0
E01E01C0
F01E0380
F03F0380
703F0380
783F0700
78770700
38738700
38738E00
3CE38E00
1CE1CE00
1CE1DE00
1FC1DC00
0FC0FC00
0FC0FC00
0F80F800
07807800
07807800
ENDCHAR
STARTCHAR 051D
ENCODING 1309
SWIDTH 960 0
DWIDTH 24 0
BBX 23 14 0 0
BITMAP
F03C0E
703C0E
703C0E
787E1C
387E1C
387E1C
3CE738
1CE738
1CC738
0FC3F0
0FC3F0
0F83E0
0781E0
0781E0
ENDCHAR
STARTCHAR 0524
ENCODING 1316
SWIDTH 840 0
DWIDTH 21 0
BBX 19 22 2 -4
BITMAP
FFFF00
FFFF00
FFFF00
F00700
F00700
F00700
F00700
F00700
F00700
F00700
F00700
F00700
F00700
F00700
F00700
F007E0
F007E0
F007E0
0000E0
0000E0
0000E0
0000E0
ENDCHAR
STARTCHAR 0525
ENCODING 1317
SWIDTH 680 0
DWIDTH 17 0
BBX 15 17 2 -3
BITMAP
FFF8
FFF8
FFF8
E038
E038
E038
E038
E038
E038
E038
E038
E03E
E03E
E03E
000E
000E
000E
ENDCHAR
STARTCHAR 0526
ENCODING 1318
SWIDTH 800 0
DWIDTH 20 0
BBX 18 22 2 -4
BITMAP
F00000
F00000
F00000
F00000
F00000
F00000
F7F000
FFF800
FFFC00
F01E00
F00E00
F00E00
F00E00
F00E00
F00E00
F00FC0
F00FC0
F00FC0
0001C0
0001C0
0001C0
0001C0
ENDCHAR
STARTCHAR 0527
ENCODING 1319
SWIDTH 720 0
DWIDTH 18 0
BBX 15 22 2 -3
BITMAP
E000
E000
E000
E000
E000
E7C0
EFF0
FFF8
F878
F038
E038
E038
E038
E038
E038
E038
E03E
E03E
E03E
000E
000E
000E
ENDCHAR
STARTCHAR 0528
ENCODING 1320
SWIDTH 800 0
DWIDTH 20 0
BBX 20 23 -2 -5
BITMAP
0F0070
0F0070
0F0070
0F0070
0F0070
0F0070
0F0070
0F0070
0FFFF0
0FFFF0
0FFFF0
0F0070
0F0070
0F0070
0F0070
0F0070
0F0070
0F0070
0F0000
0F0000
7E0000
FE0000
780000
ENDCHAR
STARTCHAR 0529
ENCODING 1321
SWIDTH 680 0
DWIDTH 17 0
BBX 17 19 -2 -5
BITMAP
0E0380
0E0380
0E0380
0E0380
0E0380
0E0380
0FFF80
0FFF80
0FFF80
0E0380
0E0380
0E0380
0E0380
0E0380
0E0000
0E0000
FE0000
FC0000
F80000
ENDCHAR
STARTCHAR 052E
ENCODING 1326
SWIDTH 840 0
DWIDTH 21 0
BBX 20 22 0 -4
BITMAP
0FFF80
0FFF80
0FFF80
0E0380
0E0380
0E0380
0E0380
0E0380
0E0380
0E0380
0E0380
0E0380
0E0380
1E0380
1C0380
7C03F0
F803F0
F003F0
000070
000070
000070
000070
ENDCHAR
STARTCHAR 052F
ENCODING 1327
SWIDTH 680 0
DWIDTH 17 0
BBX 16 17 0 -3
BITMAP
1FFC
1FFC
1FFC
1C1C
1C1C
1C1C
1C1C
1C1C
1C1C
1C1C
381C
F81F
F81F
F01F
0007
0007
0007
ENDCHAR
STARTCHAR 1E08
ENCODING 7688
SWIDTH 720 0
DWIDTH 18 0
BBX 16 28 1 -6
BITMAP
003C
0070
00E0
0000
03F8
0FFE
1FFF
3E0F
7802
7000
F000
F000
E000
E000
F000
F000
7000
7802
3E0F
1FFF
0FFE
03F8
00C0
00E0
0070
0070
03E0
0180
ENDCHAR
STARTCHAR 1E09
ENCODING 7689
SWIDTH 600 0
DWIDTH 15 0
BBX 13 25 1 -6
BITMAP
01E0
03C0
0700
0000
0000
0FC0
1FF0
7FF8
7830
F020
E000
E000
E000
E000
F020
7830
7FF0
3FF0
0FC0
0200
0700
0180
0180
0F80
0600
ENDCHAR
STARTCHAR 1E0C
ENCODING 7692
SWIDTH 840 0
DWIDTH 21 0
BBX 18 23 2 -5
BITMAP
FFE000
FFFC00
FFFE00
F01F00
F00780
F00780
F00380
F00380
F003C0
F003C0
F00380
F00380
F00780
F00700
F01F00
FFFE00
FFFC00
FFE000
000000
000000
038000
038000
038000
ENDCHAR
STARTCHAR 1E0D
ENCODING 7693
SWIDTH 680 0
DWIDTH 17 0
BBX 14 24 1 -5
BITMAP
001C
001C
001C
001C
001C
0F9C
3FFC
7FFC
787C
F03C
E01C
E01C
E01C
E01C
F03C
783C
7FFC
3FFC
0F9C
0000
0000
0180
0380
0180
ENDCHAR
STARTCHAR 1E0E
ENCODING 7694
SWIDTH 840 0
DWIDTH 21 0
BBX 18 23 2 -5
BITMAP
FFE000
FFFC00
FFFE00
F01F00
F00780
F00780
F00380
F00380
F003C0
F003C0
F00380
F00380
F00780
F00700
F01F00
FFFE00
FFFC00
FFE000
000000
000000
000000
1FF000
1FF000
ENDCHAR
STARTCHAR 1E0F
ENCODING 7695
SWIDTH 680 0
DWIDTH 17 0
BBX 14 23 1 -4
BITMAP
001C
001C
001C
001C
001C
0F9C
3FFC
7FFC
787C
F03C
E01C
E01C
E01C
E01C
F03C
783C
7FFC
3FFC
0F9C
0000
0000
0FF0
0FF0
ENDCHAR
STARTCHAR 1E14
ENCODING 7700
SWIDTH 680 0
DWIDTH 17 0
BBX 13 26 2 0
BITMAP
1C00
0E00
0300
0000
3FE0
3FE0
0000
0000
FFF8
FFF8
FFF8
F000
F000
F000
F000
FFF0
FFF0
FFF0
F000
F000
F000
F000
F000
FFF8
FFF8
FFF8
ENDCHAR
STARTCHAR 1E15
ENCODING 7701
SWIDTH 640 0
DWIDTH 16 0
BBX 14 22 1 0
BITMAP
1C00
0E00
0300
0000
3FE0
3FE0
0000
0000
0FC0
3FE0
7FF0
7078
F038
E018
FFFC
FFFC
E000
F000
7830
7FF0
3FF0
0FC0
ENDCHAR
STARTCHAR 1E16
ENCODING 7702
SWIDTH 680 0
DWIDTH 17 0
BBX 13 26 2 0
BITMAP
01C0
0380
0700
0000
3FE0
3FE0
0000
0000
FFF8
FFF8
FFF8
F000
F000
F000
F000
FFF0
FFF0
FFF0
F000
F000
F000
F000
F000
FFF8
FFF8
FFF8
ENDCHAR
STARTCHAR 1E17
ENCODING 7703
SWIDTH 640 0
DWIDTH 16 0
BBX 14 22 1 0
BITMAP
01C0
0380
0700
0000
3FE0
3FE0
0000
0000
0FC0
3FE0
7FF0
7078
F038
E018
FFFC
FFFC
E000
F000
7830
7FF0
3FF0
0FC0
ENDCHAR
STARTCHAR 1E1C
ENCODING 7708
SWIDTH 680 0
DWIDTH 17 0
BBX 13 29 2 -6
BITMAP
3860
18E0
1FC0
0700
0000
FFF8
FFF8
FFF8
F000
F000
F000
F000
FFF0
FFF0
FFF0
F000
F000
F000
F000
F000
FFF8
FFF8
FFF8
0300
0380
01C0
01C0
0F80
0600
ENDCHAR
STARTCHAR 1E1D
ENCODING 7709
SWIDTH 640 0
DWIDTH 16 0
BBX 14 25 1 -6
BITMAP
3860
18E0
0FC0
0200
0000
0FC0
3FE0
7FF0
7078
F038
E018
FFFC
FFFC
E000
F000
7830
7FF0
3FF0
0FC0
0200
0780
0180
0180
0F80
0600
ENDCHAR
STARTCHAR 1E20
ENCODING 7712
SWIDTH 760 0
DWIDTH 19 0
BBX 16 22 1 0
BITMAP
07FC
07FC
0000
0000
03F8
0FFE
1FFF
3E07
7802
7000
F000
F000
E000
E007
F007
F007
7007
7807
3E07
1FFF
0FFE
03F8
ENDCHAR
STARTCHAR 1E21
ENCODING 7713
SWIDTH 680 0
DWIDTH 17 0
BBX 14 23 1 -5
BITMAP
1FF0
1FF0
0000
0000
0F9C
3FFC
7FFC
783C
F01C
E01C
E01C
E01C
F01C
783C
7FFC
3FFC
0F9C
001C
001C
603C
7FF8
7FF0
1FC0
ENDCHAR
STARTCHAR 1E24
ENCODING 7716
SWIDTH 800 0
DWIDTH 20 0
BBX 16 23 2 -5
BITMAP
F007
F007
F007
F007
F007
F007
F007
FFFF
FFFF
FFFF
F007
F007
F007
F007
F007
F007
F007
F007
0000
0000
0180
01C0
0180
ENDCHAR
STARTCHAR 1E25
ENCODING 7717
SWIDTH 680 0
DWIDTH 17 0
BBX 13 24 2 -5
BITMAP
E000
E000
E000
E000
E000
E7C0
FFF0
FFF0
F878
F038
E038
E038
E038
E038
E038
E038
E038
E038
E038
0000
0000
0300
0700
0700
ENDCHAR
STARTCHAR 1E2A
ENCODING 7722
SWIDTH 800 0
DWIDTH 20 0
BBX 16 24 2 -6
BITMAP
F007
F007
F007
F007
F007
F007
F007
FFFF
FFFF
FFFF
F007
F007
F007
F007
F007
F007
F007
F007
0000
0000
0C30
0C30
07E0
0180
ENDCHAR
STARTCHAR 1E2B
ENCODING 7723
SWIDTH 680 0
DWIDTH 17 0
BBX 13 25 2 -6
BITMAP
E000
E000
E000
E000
E000
E7C0
FFF0
FFF0
F878
F038
E038
E038
E038
E038
E038
E038
E038
E038
E038
0000
0000
3060
18E0
1FC0
0200
ENDCHAR
STARTCHAR 1E2E
ENCODING 7726
SWIDTH 320 0
DWIDTH 8 0
BBX 8 26 0 0
BITMAP
0F
1C
38
00
66
E7
66
00
3C
3C
3C
3C
3C
3C
3C
3C
3C
3C
3C
3C
3C
3C
3C
3C
3C
3C
ENDCHAR
STARTCHAR 1E2F
ENCODING 7727
SWIDTH 280 0
DWIDTH 7 0
BBX 7 23 0 0
BITMAP
0E
1C
38
00
C6
E6
C6
00
00
38
38
38
38
38
38
38
38
38
38
38
38
38
38
ENDCHAR
STARTCHAR 1E36
ENCODING 7734
SWIDTH 600 0
DWIDTH 15 0
BBX 13 23 2 -5
BITMAP
F000
F000
F000
F000
F000
F000
F000
F000
F000
F000
F000
F000
F000
F000
F000
FFF8
FFF8
FFF8
0000
0000
0300
0700
0300
ENDCHAR
STARTCHAR 1E37
ENCODING 7735
SWIDTH 280 0
DWIDTH 7 0
BBX 3 24 2 -5
BITMAP
E0
E0
E0
E0
E0
E0
E0
E0
E0
E0
E0
E0
E0
E0
E0
E0
E0
E0
E0
00
00
60
E0
E0
ENDCHAR
STARTCHAR 1E3A
ENCODING 7738
SWIDTH 600 0
DWIDTH 15 0
BBX 13 23 2 -5
BITMAP
F000
F000
F000
F000
F000
F000
F000
F000
F000
F000
F000
F000
F000
F000
F000
FFF8
FFF8
FFF8
0000
0000
0000
1FE0
1FE0
ENDCHAR
STARTCHAR 1E3B
ENCODING 7739
SWIDTH 280 0
DWIDTH 7 0
BBX 9 24 -1 -5
BITMAP
1C00
1C00
1C00
1C00
1C00
1C00
1C00
1C00
1C00
1C00
1C00
1C00
1C00
1C00
1C00
1C00
1C00
1C00
1C00
0000
0000
0000
FF80
FF80
ENDCHAR
STARTCHAR 1E42
ENCODING 7746
SWIDTH 960 0
DWIDTH 24 0
BBX 19 23 2 -5
BITMAP
E000E0
F000E0
F001E0
F801E0
FC03E0
FC03E0
EE07E0
EE07E0
E70EE0
E79CE0
E39CE0
E1F8E0
E1F8E0
E0F0E0
E0E0E0
E060E0
E000E0
E000E0
000000
000000
006000
00E000
006000
ENDCHAR
STARTCHAR 1E43
ENCODING 7747
SWIDTH 1040 0
DWIDTH 26 0
BBX 22 19 2 -5
BITMAP
E7C3E0
FFE7F8
FFFFFC
F07C3C
F0781C
E0381C
E0381C
E0381C
E0381C
E0381C
E0381C
E0381C
E0381C
E0381C
000000
000000
003000
003800
003000
ENDCHAR
STARTCHAR 1E44
ENCODING 7748
SWIDTH 800 0
DWIDTH 20 0
BBX 16 23 2 0
BITMAP
0180
03C0
03C0
0000
0000
E007
F007
F807
FC07
FE07
FE07
FF07
F787
F3C7
F3E7
F1E7
F0F7
F07F
F03F
F03F
F01F
F00F
F007
ENDCHAR
STARTCHAR 1E45
ENCODING 7749
SWIDTH 680 0
DWIDTH 17 0
BBX 13 20 2 0
BITMAP
0200
0700
0700
0700
0000
0000
E7C0
FFF0
FFF0
F878
F038
E038
E038
E038
E038
E038
E038
E038
E038
E038
ENDCHAR
STARTCHAR 1E46
ENCODING 7750
SWIDTH 800 0
DWIDTH 20 0
BBX 16 23 2 -5
BITMAP
E007
F007
F807
FC07
FE07
FE07
FF07
F787
F3C7
F3E7
F1E7
F0F7
F07F
F03F
F03F
F01F
F00F
F007
0000
0000
0180
01C0
0180
ENDCHAR
STARTCHAR 1E47
ENCODING 7751
SWIDTH 680 0
DWIDTH 17 0
BBX 13 19 2 -5
BITMAP
E7C0
FFF0
FFF0
F878
F038
E038
E038
E038
E038
E038
E038
E038
E038
E038
0000
0000
0300
0700
0700
ENDCHAR
STARTCHAR 1E48
ENCODING 7752
SWIDTH 800 0
DWIDTH 20 0
BBX 16 23 2 -5
BITMAP
E007
F007
F807
FC07
FE07
FE07
FF07
F787
F3C7
F3E7
F1E7
F0F7
F07F
F03F
F03F
F01F
F00F
F007
0000
0000
0000
0FF0
0FF0
ENDCHAR
STARTCHAR 1E49
ENCODING 7753
SWIDTH 680 0
DWIDTH 17 0
BBX 13 19 2 -5
BITMAP
E7C0
FFF0
FFF0
F878
F038
E038
E038
E038
E038
E038
E038
E038
E038
E038
0000
0000
0000
3FE0
3FE0
ENDCHAR
STARTCHAR 1E4C
ENCODING 7756
SWIDTH 840 0
DWIDTH 21 0
BBX 19 26 1 0
BITMAP
003800
007000
00E000
000000
03CC00
07FC00
063000
000000
03F800
0FFE00
1FFF00
3E0F80
7803C0
7001C0
F001E0
F001E0
E000E0
E000E0
F000E0
F001E0
7001C0
7803C0
3E0F80
1FFF00
0FFE00
03F800
ENDCHAR
STARTCHAR 1E4D
ENCODING 7757
SWIDTH 640 0
DWIDTH 16 0
BBX 14 22 1 0
BITMAP
01E0
0380
0300
0800
1FE0
11C0
0000
0000
0FC0
1FF0
7FF8
7878
F03C
E01C
E01C
E01C
E01C
F03C
7838
7FF8
3FF0
0FC0
ENDCHAR
STARTCHAR 1E4E
ENCODING 7758
SWIDTH 840 0
DWIDTH 21 0
BBX 19 26 1 0
BITMAP
031800
03B800
031800
000000
03CC00
07FC00
063000
000000
03F800
0FFE00
1FFF00
3E0F80
7803C0
7001C0
F001E0
F001E0
E000E0
E000E0
F000E0
F001E0
7001C0
7803C0
3E0F80
1FFF00
0FFE00
03F800
ENDCHAR
STARTCHAR 1E4F
ENCODING 7759
SWIDTH 640 0
DWIDTH 16 0
BBX 14 23 1 0
BITMAP
0CC0
1CE0
0CC0
0000
0E20
1FE0
11C0
0000
0000
0FC0
1FF0
7FF8
7878
F03C
E01C
E01C
E01C
E01C
F03C
7838
7FF8
3FF0
0FC0
ENDCHAR
STARTCHAR 1E50
ENCODING 7760
SWIDTH 840 0
DWIDTH 21 0
BBX 19 26 1 0
BITMAP
038000
01C000
00E000
000000
07FC00
07FC00
000000
000000
03F800
0FFE00
1FFF00
3E0F80
7803C0
7001C0
F001E0
F001E0
E000E0
E000E0
F000E0
F001E0
7001C0
7803C0
3E0F80
1FFF00
0FFE00
03F800
ENDCHAR
STARTCHAR 1E51
ENCODING 7761
SWIDTH 640 0
DWIDTH 16 0
BBX 14 22 1 0
BITMAP
1E00
0700
0380
0000
1FE0
1FE0
0000
0000
0FC0
1FF0
7FF8
7878
F03C
E01C
E01C
E01C
E01C
F03C
7838
7FF8
3FF0
0FC0
ENDCHAR
STARTCHAR 1E52
ENCODING 7762
SWIDTH 840 0
DWIDTH 21 0
BBX 19 26 1 0
BITMAP
003800
007000
00E000
000000
07FC00
07FC00
000000
000000
03F800
0FFE00
1FFF00
3E0F80
7803C0
7001C0
F001E0
F001E0
E000E0
E000E0
F000E0
F001E0
7001C0
7803C0
3E0F80
1FFF00
0FFE00
03F800
ENDCHAR
STARTCHAR 1E53
ENCODING 7763
SWIDTH 640 0
DWIDTH 16 0
BBX 14 22 1 0
BITMAP
01E0
0380
0300
0000
1FE0
1FE0
0000
0000
0FC0
1FF0
7FF8
7878
F03C
E01C
E01C
E01C
E01C
F03C
7838
7FF8
3FF0
0FC0
ENDCHAR
STARTCHAR 1E5A
ENCODING 7770
SWIDTH 720 0
DWIDTH 18 0
BBX 15 23 2 -5
BITMAP
FFE0
FFF8
FFFC
F03C
F01E
F00E
F00E
F00E
F01E
F03C
FFFC
FFF0
FFF0
F070
F078
F03C
F01C
F01E
0000
0000
0300
0380
0300
ENDCHAR
STARTCHAR 1E5B
ENCODING 7771
SWIDTH 440 0
DWIDTH 11 0
BBX 8 19 2 -5
BITMAP
E7
FF
FF
F8
F0
E0
E0
E0
E0
E0
E0
E0
E0
E0
00
00
60
E0
E0
ENDCHAR
STARTCHAR 1E5E
ENCODING 7774
SWIDTH 720 0
DWIDTH 18 0
BBX 15 23 2 -5
BITMAP
FFE0
FFF8
FFFC
F03C
F01E
F00E
F00E
F00E
F01E
F03C
FFFC
FFF0
FFF0
F070
F078
F03C
F01C
F01E
0000
0000
0000
1FF0
1FF0
ENDCHAR
STARTCHAR 1E5F
ENCODING 7775
SWIDTH 440 0
DWIDTH 11 0
BBX 11 19 -1 -5
BITMAP
1CE0
1FE0
1FE0
1F00
1E00
1C00
1C00
1C00
1C00
1C00
1C00
1C00
1C00
1C00
0000
0000
0000
FF80
FF80
ENDCHAR
STARTCHAR 1E60
ENCODING 7776
SWIDTH 640 0
DWIDTH 16 0
BBX 14 23 1 0
BITMAP
0300
0780
0780
0000
0000
0FE0
3FF8
7FF8
7010
F000
F000
F000
7C00
7FC0
1FF0
03F8
007C
003C
001C
603C
FFF8
7FF0
1FC0
ENDCHAR
STARTCHAR 1E61
ENCODING 7777
SWIDTH 520 0
DWIDTH 13 0
BBX 11 20 1 0
BITMAP
0400
0E00
0E00
0E00
0000
0000
1F80
7FE0
FFC0
E040
E000
F000
7F80
3FC0
03E0
00E0
00E0
FFE0
FFC0
3F00
ENDCHAR
STARTCHAR 1E62
ENCODING 7778
SWIDTH 640 0
DWIDTH 16 0
BBX 14 23 1 -5
BITMAP
0FE0
3FF8
7FF8
7010
F000
F000
F000
7C00
7FC0
1FF0
03F8
007C
003C
001C
603C
FFF8
7FF0
1FC0
0000
0000
0300
0380
0300
ENDCHAR
STARTCHAR 1E63
ENCODING 7779
SWIDTH 520 0
DWIDTH 13 0
BBX 11 19 1 -5
BITMAP
1F80
7FE0
FFC0
E040
E000
F000
7F80
3FC0
03E0
00E0
00E0
FFE0
FFC0
3F00
0000
0000
0C00
0E00
0C00
ENDCHAR
STARTCHAR 1E64
ENCODING 7780
SWIDTH 640 0
DWIDTH 16 0
BBX 14 26 1 0
BITMAP
0300
0380
0300
0000
00E0
0180
0300
0000
0FE0
3FF8
7FF8
7010
F000
F000
F000
7C00
7FC0
1FF0
03F8
007C
003C
001C
603C
FFF8
7FF0
1FC0
ENDCHAR
STARTCHAR 1E65
ENCODING 7781
SWIDTH 520 0
DWIDTH 13 0
BBX 11 23 1 0
BITMAP
0C00
0E00
0C00
0000
0380
0700
0C00
0000
0000
1F80
7FE0
FFC0
E040
E000
F000
7F80
3FC0
03E0
00E0
00E0
FFE0
FFC0
3F00
ENDCHAR
STARTCHAR 1E66
ENCODING 7782
SWIDTH 640 0
DWIDTH 16 0
BBX 14 26 1 0
BITMAP
0300
0380
0300
0000
1CE0
0FC0
0780
0000
0FE0
3FF8
7FF8
7010
F000
F000
F000
7C00
7FC0
1FF0
03F8
007C
003C
001C
603C
FFF8
7FF0
1FC0
ENDCHAR
STARTCHAR 1E67
ENCODING 7783
SWIDTH 520 0
DWIDTH 13 0
BBX 11 22 1 0
BITMAP
0C00
0E00
0C00
0000
71C0
3F00
0E00
0000
1F80
7FE0
FFC0
E040
E000
F000
7F80
3FC0
03E0
00E0
00E0
FFE0
FFC0
3F00
ENDCHAR
STARTCHAR 1E68
ENCODING 7784
SWIDTH 640 0
DWIDTH 16 0
BBX 14 28 1 -5
BITMAP
0300
0780
0780
0000
0000
0FE0
3FF8
7FF8
7010
F000
F000
F000
7C00
7FC0
1FF0
03F8
007C
003C
001C
603C
FFF8
7FF0
1FC0
0000
0000
0300
0380
0300
ENDCHAR
STARTCHAR 1E69
ENCODING 7785
SWIDTH 520 0
DWIDTH 13 0
BBX 11 25 1 -5
BITMAP
0400
0E00
0E00
0E00
0000
0000
1F80
7FE0
FFC0
E040
E000
F000
7F80
3FC0
03E0
00E0
00E0
FFE0
FFC0
3F00
0000
0000
0C00
0E00
0C00
ENDCHAR
STARTCHAR 1E6C
ENCODING 7788
SWIDTH 600 0
DWIDTH 15 0
BBX 15 23 0 -5
BITMAP
FFFE
FFFE
FFFE
0380
0380
0380
0380
0380
0380
0380
0380
0380
0380
0380
0380
0380
0380
0380
0000
0000
0380
0380
0380
ENDCHAR
STARTCHAR 1E6D
ENCODING 7789
SWIDTH 440 0
DWIDTH 11 0
BBX 10 22 0 -5
BITMAP
3C00
3C00
3C00
3C00
FF80
FF80
3C00
3C00
3C00
3C00
3C00
3C00
3C00
1C00
1F80
1FC0
0780
0000
0000
0700
0700
0700
ENDCHAR
STARTCHAR 1E6E
ENCODING 7790
SWIDTH 600 0
DWIDTH 15 0
BBX 15 23 0 -5
BITMAP
FFFE
FFFE
FFFE
0380
0380
0380
0380
0380
0380
0380
0380
0380
0380
0380
0380
0380
0380
0380
0000
0000
0000
1FF0
1FF0
ENDCHAR
STARTCHAR 1E6F
ENCODING 7791
SWIDTH 440 0
DWIDTH 11 0
BBX 11 21 0 -4
BITMAP
3C00
3C00
3C00
3C00
FF80
FF80
3C00
3C00
3C00
3C00
3C00
3C00
3C00
1C00
1F80
1FC0
0780
0000
0000
3FE0
3FE0
ENDCHAR
STARTCHAR 1E78
ENCODING 7800
SWIDTH 800 0
DWIDTH 20 0
BBX 16 26 2 0
BITMAP
00F0
01C0
0380
0000
0F30
0FF0
1860
0000
E00F
E00F
E00F
E00F
E00F
E00F
E00F
E00F
E00F
E00F
E00F
F00E
F00E
700E
781E
3FFC
1FF8
07E0
ENDCHAR
STARTCHAR 1E79
ENCODING 7801
SWIDTH 680 0
DWIDTH 17 0
BBX 13 23 2 0
BITMAP
01C0
0380
0700
0000
1E60
3FE0
31C0
0000
0000
E038
E038
E038
E038
E038
E038
E038
E038
E038
E078
F078
7FF8
7FF8
1F38
ENDCHAR
STARTCHAR 1E7A
ENCODING 7802
SWIDTH 800 0
DWIDTH 20 0
BBX 16 26 2 0
BITMAP
0E60
0E70
0660
0000
0FF0
0FF0
0000
0000
E00F
E00F
E00F
E00F
E00F
E00F
E00F
E00F
E00F
E00F
E00F
F00E
F00E
700E
781E
3FFC
1FF8
07E0
ENDCHAR
STARTCHAR 1E7B
ENCODING 7803
SWIDTH 680 0
DWIDTH 17 0
BBX 13 23 2 0
BITMAP
18C0
1DC0
18C0
0000
0000
3FE0
3FE0
0000
0000
E038
E038
E038
E038
E038
E038
E038
E038
E038
E078
F078
7FF8
7FF8
1F38
ENDCHAR
STARTCHAR 1E80
ENCODING 7808
SWIDTH 1160 0
DWIDTH 29 0
BBX 27 23 1 0
BITMAP
00780000
003C0000
000C0000
00020000
00000000
E00E00E0
F01E01C0
F01F01C0
701F01C0
703F0380
783B8380
383B8380
38738700
3C71C700
1C71C700
1CE1CF00
1EE0EE00
0EE0EE00
0FC0FE00
0FC07C00
07C07C00
07807C00
07807800
ENDCHAR
STARTCHAR 1E81
ENCODING 7809
SWIDTH 920 0
DWIDTH 23 0
BBX 23 19 0 0
BITMAP
01E000
00F000
003800
000000
000000
E0380E
70380C
707C1C
707C1C
387C18
38EE38
38EE38
1CC630
1DC770
1DC770
0F83E0
0F83E0
0F83C0
0701C0
ENDCHAR
STARTCHAR 1E82
ENCODING 7810
SWIDTH 1160 0
DWIDTH 29 0
BBX 27 23 1 0
BITMAP
0003C000
00070000
000E0000
00000000
00000000
E00E00E0
F01E01C0
F01F01C0
701F01C0
703F0380
783B8380
383B8380
38738700
3C71C700
1C71C700
1CE1CF00
1EE0EE00
0EE0EE00
0FC0FE00
0FC07C00
07C07C00
07807C00
07807800
ENDCHAR
STARTCHAR 1E83
ENCODING 7811
SWIDTH 920 0
DWIDTH 23 0
BBX 23 19 0 0
BITMAP
000F00
001C00
003800
000000
000000
E0380E
70380C
707C1C
707C1C
387C18
38EE38
38EE38
1CC630
1DC770
1DC770
0F83E0
0F83E0
0F83C0
0701C0
ENDCHAR
STARTCHAR 1E84
ENCODING 7812
SWIDTH 1160 0
DWIDTH 29 0
BBX 27 23 1 0
BITMAP
00318000
00738000
00318000
00000000
00000000
E00E00E0
F01E01C0
F01F01C0
701F01C0
703F0380
783B8380
383B8380
38738700
3C71C700
1C71C700
1CE1CF00
1EE0EE00
0EE0EE00
0FC0FE00
0FC07C00
07C07C00
07807C00
07807800
ENDCHAR
STARTCHAR 1E85
ENCODING 7813
SWIDTH 920 0
DWIDTH 23 0
BBX 23 19 0 0
BITMAP
00C600
01CE00
00C600
000000
000000
E0380E
70380C
707C1C
707C1C
387C18
38EE38
38EE38
1CC630
1DC770
1DC770
0F83E0
0F83E0
0F83C0
0701C0
ENDCHAR
STARTCHAR 1E8E
ENCODING 7822
SWIDTH 680 0
DWIDTH 17 0
BBX 16 23 0 0
BITMAP
01C0
01C0
01C0
0080
0000
F007
7007
780E
381E
3C1C
1C3C
0E38
0F70
0770
07E0
03E0
01C0
01C0
01C0
01C0
01C0
01C0
01C0
ENDCHAR
STARTCHAR 1E8F
ENCODING 7823
SWIDTH 560 0
DWIDTH 14 0
BBX 14 24 0 -4
BITMAP
0780
0780
0300
0000
0000
E01C
F01C
7018
7838
3838
3870
1C70
1CE0
1EE0
0EE0
0FC0
07C0
0780
0780
0780
0700
FF00
FE00
7800
ENDCHAR
STARTCHAR 1E92
ENCODING 7826
SWIDTH 680 0
DWIDTH 17 0
BBX 15 23 1 -5
BITMAP
FFFE
FFFE
FFFC
003C
0078
00F0
01E0
01C0
03C0
0780
0F00
1E00
1C00
3C00
7800
FFFE
FFFE
FFFE
0000
0000
0180
0380
0380
ENDCHAR
STARTCHAR 1E93
ENCODING 7827
SWIDTH 520 0
DWIDTH 13 0
BBX 11 19 1 -5
BITMAP
FFE0
FFE0
01E0
03C0
0380
0780
0F00
1E00
1C00
3800
7800
F000
FFE0
FFE0
0000
0000
0600
0E00
0600
ENDCHAR
STARTCHAR 1E97
ENCODING 7831
SWIDTH 440 0
DWIDTH 11 0
BBX 10 22 0 0
BITMAP
E700
E700
E700
0000
0000
3C00
3C00
3C00
3C00
FF80
FF80
3C00
3C00
3C00
3C00
3C00
3C00
3C00
1C00
1F80
1FC0
0780
ENDCHAR
STARTCHAR 1E9E
ENCODING 7838
SWIDTH 760 0
DWIDTH 19 0
BBX 16 18 2 0
BITMAP
07F0
1FFC
3FFC
781C
703C
F038
F070
E0F0
E1FC
E1FE
E00F
E007
E007
E007
E00F
E1FE
E3FC
E1F8
ENDCHAR
STARTCHAR 1EA0
ENCODING 7840
SWIDTH 760 0
DWIDTH 19 0
BBX 19 23 0 -5
BITMAP
00E000
01F000
01F000
03F000
03B800
073800
071C00
0F1C00
0E0E00
0E0E00
1C0F00
1FFF00
3FFF00
3FFF80
780380
7003C0
7001C0
E001E0
000000
000000
00C000
00E000
00C000
ENDCHAR
STARTCHAR 1EA1
ENCODING 7841
SWIDTH 600 0
DWIDTH 15 0
BBX 12 19 1 -5
BITMAP
1F80
7FE0
7FF0
40F0
0070
0070
3FF0
7FF0
F070
E070
E070
F1F0
7FF0
1F70
0000
0000
0600
0700
0600
ENDCHAR
STARTCHAR 1EA2
ENCODING 7842
SWIDTH 760 0
DWIDTH 19 0
BBX 19 25 0 0
BITMAP
00C000
01F000
003000
003000
007000
002000
000000
00E000
01F000
01F000
03F000
03B800
073800
071C00
0F1C00
0E0E00
0E0E00
1C0F00
1FFF00
3FFF00
3FFF80
780380
7003C0
7001C0
E001E0
ENDCHAR
STARTCHAR 1EA3
ENCODING 7843
SWIDTH 600 0
DWIDTH 15 0
BBX 12 21 1 0
BITMAP
0F00
0F80
0180
0180
0300
0000
0000
1F80
7FE0
7FF0
40F0
0070
0070
3FF0
7FF0
F070
E070
E070
F1F0
7FF0
1F70
ENDCHAR
STARTCHAR 1EA4
ENCODING 7844
SWIDTH 760 0
DWIDTH 19 0
BBX 19 25 0 0
BITMAP
0003C0
000300
000600
01E000
03B800
061C00
000000
00E000
01F000
01F000
03F000
03B800
073800
071C00
0F1C00
0E0E00
0E0E00
1C0F00
1FFF00
3FFF00
3FFF80
780380
7003C0
7001C0
E001E0
ENDCHAR
STARTCHAR 1EA5
ENCODING 7845
SWIDTH 600 0
DWIDTH 15 0
BBX 15 21 1 0
BITMAP
000E
001C
0038
0F00
1DC0
38E0
0000
1F80
7FE0
7FF0
40F0
0070
0070
3FF0
7FF0
F070
E070
E070
F1F0
7FF0
1F70
ENDCHAR
STARTCHAR 1EA6
ENCODING 7846
SWIDTH 760 0
DWIDTH 19 0
BBX 19 25 0 0
BITMAP
003C00
000C00
000600
01E000
03B800
061C00
000000
00E000
01F000
01F000
03F000
03B800
073800
071C00
0F1C00
0E0E00
0E0E00
1C0F00
1FFF00
3FFF00
3FFF80
780380
7003C0
7001C0
E001E0
ENDCHAR
STARTCHAR 1EA7
ENCODING 7847
SWIDTH 600 0
DWIDTH 15 0
BBX 13 21 1 0
BITMAP
01E0
0070
0038
0F00
1DC0
38E0
0000
1F80
7FE0
7FF0
40F0
0070
0070
3FF0
7FF0
F070
E070
E070
F1F0
7FF0
1F70
ENDCHAR
STARTCHAR 1EA8
ENCODING 7848
SWIDTH 760 0
DWIDTH 19 0
BBX 19 25 0 0
BITMAP
001E00
000600
000600
01E400
03B800
061C00
000000
00E000
01F000
01F000
03F000
03B800
073800
071C00
0F1C00
0E0E00
0E0E00
1C0F00
1FFF00
3FFF00
3FFF80
780380
7003C0
7001C0
E001E0
ENDCHAR
STARTCHAR 1EA9
ENCODING 7849
SWIDTH 600 0
DWIDTH 15 0
BBX 12 21 1 0
BITMAP
00F0
0010
0030
0F20
1DC0
38E0
0000
1F80
7FE0
7FF0
40F0
0070
0070
3FF0
7FF0
F070
E070
E070
F1F0
7FF0
1F70
ENDCHAR
STARTCHAR 1EAA
ENCODING 7850
SWIDTH 760 0
DWIDTH 19 0
BBX 19 26 0 0
BITMAP
038C00
07FC00
067800
000000
01E000
03B800
061C00
000000
00E000
01F000
01F000
03F000
03B800
073800
071C00
0F1C00
0E0E00
0E0E00
1C0F00
1FFF00
3FFF00
3FFF80
780380
7003C0
7001C0
E001E0
ENDCHAR
STARTCHAR 1EAB
ENCODING 7851
SWIDTH 600 0
DWIDTH 15 0
BBX 12 22 1 0
BITMAP
1C60
3FE0
33C0
0000
0F00
1DC0
38E0
0000
1F80
7FE0
7FF0
40F0
0070
0070
3FF0
7FF0
F070
E070
E070
F1F0
7FF0
1F70
ENDCHAR
STARTCHAR 1EAC
ENCODING 7852
SWIDTH 760 0
DWIDTH 19 0
BBX 19 28 0 -5
BITMAP
01E000
03F000
073800
000400
000000
00E000
01F000
01F000
03F000
03B800
073800
071C00
0F1C00
0E0E00
0E0E00
1C0F00
1FFF00
3FFF00
3FFF80
780380
7003C0
7001C0
E001E0
000000
000000
00C000
00E000
00C000
ENDCHAR
STARTCHAR 1EAD
ENCODING 7853
SWIDTH 600 0
DWIDTH 15 0
BBX 12 24 1 -5
BITMAP
0F00
0F80
19C0
2020
0000
1F80
7FE0
7FF0
40F0
0070
0070
3FF0
7FF0
F070
E070
E070
F1F0
7FF0
1F70
0000
0000
0600
0700
0600
ENDCHAR
STARTCHAR 1EAE
ENCODING 7854
SWIDTH 760 0
DWIDTH 19 0
BBX 19 26 0 0
BITMAP
003800
007000
00C000
000000
071800
03F800
00C000
000000
00E000
01F000
01F000
03F000
03B800
073800
071C00
0F1C00
0E0E00
0E0E00
1C0F00
1FFF00
3FFF00
3FFF80
780380
7003C0
7001C0
E001E0
ENDCHAR
STARTCHAR 1EAF
ENCODING 7855
SWIDTH 600 0
DWIDTH 15 0
BBX 12 22 1 0
BITMAP
01C0
0380
0700
0000
3060
1FC0
0F80
0000
1F80
7FE0
7FF0
40F0
0070
0070
3FF0
7FF0
F070
E070
E070
F1F0
7FF0
1F70
ENDCHAR
STARTCHAR 1EB0
ENCODING 7856
SWIDTH 760 0
DWIDTH 19 0
BBX 19 26 0 0
BITMAP
038000
01C000
00E000
000000
071800
03F800
00C000
000000
00E000
01F000
01F000
03F000
03B800
073800
071C00
0F1C00
0E0E00
0E0E00
1C0F00
1FFF00
3FFF00
3FFF80
780380
7003C0
7001C0
E001E0
ENDCHAR
STARTCHAR 1EB1
ENCODING 7857
SWIDTH 600 0
DWIDTH 15 0
BBX 12 22 1 0
BITMAP
1C00
0E00
0700
0000
3060
1FC0
0F80
0000
1F80
7FE0
7FF0
40F0
0070
0070
3FF0
7FF0
F070
E070
E070
F1F0
7FF0
1F70
ENDCHAR
STARTCHAR 1EB2
ENCODING 7858
SWIDTH 760 0
DWIDTH 19 0
BBX 19 26 0 0
BITMAP
01E000
002000
002000
006000
071C00
03F800
00C000
000000
00E000
01F000
01F000
03F000
03B800
073800
071C00
0F1C00
0E0E00
0E0E00
1C0F00
1FFF00
3FFF00
3FFF80
780380
7003C0
7001C0
E001E0
ENDCHAR
STARTCHAR 1EB3
ENCODING 7859
SWIDTH 600 0
DWIDTH 15 0
BBX 12 22 1 0
BITMAP
0700
0180
0100
0300
3060
1FC0
0F80
0000
1F80
7FE0
7FF0
40F0
0070
0070
3FF0
7FF0
F070
E070
E070
F1F0
7FF0
1F70
ENDCHAR
STARTCHAR 1EB4
ENCODING 7860
SWIDTH 760 0
DWIDTH 19 0
BBX 19 26 0 0
BITMAP
038C00
07FC00
067800
000000
071800
03F800
00C000
000000
00E000
01F000
01F000
03F000
03B800
073800
071C00
0F1C00
0E0E00
0E0E00
1C0F00
1FFF00
3FFF00
3FFF80
780380
7003C0
7001C0
E001E0
ENDCHAR
STARTCHAR 1EB5
ENCODING 7861
SWIDTH 600 0
DWIDTH 15 0
BBX 12 22 1 0
BITMAP
1C60
3FE0
33C0
0000
3060
1FC0
0F80
0000
1F80
7FE0
7FF0
40F0
0070
0070
3FF0
7FF0
F070
E070
E070
F1F0
7FF0
1F70
ENDCHAR
STARTCHAR 1EB6
ENCODING 7862
SWIDTH 760 0
DWIDTH 19 0
BBX 19 28 0 -5
BITMAP
060C00
071800
03F800
00E000
000000
00E000
01F000
01F000
03F000
03B800
073800
071C00
0F1C00
0E0E00
0E0E00
1C0F00
1FFF00
3FFF00
3FFF80
780380
7003C0
7001C0
E001E0
000000
000000
00C000
00E000
00C000
ENDCHAR
STARTCHAR 1EB7
ENCODING 7863
SWIDTH 600 0
DWIDTH 15 0
BBX 12 24 1 -5
BITMAP
3060
38C0
1FC0
0200
0000
1F80
7FE0
7FF0
40F0
0070
0070
3FF0
7FF0
F070
E070
E070
F1F0
7FF0
1F70
0000
0000
0600
0700
0600
ENDCHAR
STARTCHAR 1EB8
ENCODING 7864
SWIDTH 680 0
DWIDTH 17 0
BBX 13 23 2 -5
BITMAP
FFF8
FFF8
FFF8
F000
F000
F000
F000
FFF0
FFF0
FFF0
F000
F000
F000
F000
F000
FFF8
FFF8
FFF8
0000
0000
0300
0700
0300
ENDCHAR
STARTCHAR 1EB9
ENCODING 7865
SWIDTH 640 0
DWIDTH 16 0
BBX 14 19 1 -5
BITMAP
0FC0
3FE0
7FF0
7078
F038
E018
FFFC
FFFC
E000
F000
7830
7FF0
3FF0
0FC0
0000
0000
0300
0700
0300
ENDCHAR
STARTCHAR 1EBA
ENCODING 7866
SWIDTH 680 0
DWIDTH 17 0
BBX 13 25 2 0
BITMAP
0300
0F80
01C0
0080
0180
0100
0000
FFF8
FFF8
FFF8
F000
F000
F000
F000
FFF0
FFF0
FFF0
F000
F000
F000
F000
F000
FFF8
FFF8
FFF8
ENDCHAR
STARTCHAR 1EBB
ENCODING 7867
SWIDTH 640 0
DWIDTH 16 0
BBX 14 21 1 0
BITMAP
0780
0780
00C0
0080
0380
0100
0000
0FC0
3FE0
7FF0
7078
F038
E018
FFFC
FFFC
E000
F000
7830
7FF0
3FF0
0FC0
ENDCHAR
STARTCHAR 1EBC
ENCODING 7868
SWIDTH 680 0
DWIDTH 17 0
BBX 13 23 2 0
BITMAP
0C00
1E60
33E0
00C0
0000
FFF8
FFF8
FFF8
F000
F000
F000
F000
FFF0
FFF0
FFF0
F000
F000
F000
F000
F000
FFF8
FFF8
FFF8
ENDCHAR
STARTCHAR 1EBD
ENCODING 7869
SWIDTH 640 0
DWIDTH 16 0
BBX 14 19 1 0
BITMAP
0C00
1E60
33E0
0000
0000
0FC0
3FE0
7FF0
7078
F038
E018
FFFC
FFFC
E000
F000
7830
7FF0
3FF0
0FC0
ENDCHAR
STARTCHAR 1EBE
ENCODING 7870
SWIDTH 680 0
DWIDTH 17 0
BBX 15 25 2 0
BITMAP
000E
001C
0038
0780
1DC0
3860
0000
FFF8
FFF8
FFF8
F000
F000
F000
F000
FFF0
FFF0
FFF0
F000
F000
F000
F000
F000
FFF8
FFF8
FFF8
ENDCHAR
STARTCHAR 1EBF
ENCODING 7871
SWIDTH 640 0
DWIDTH 16 0
BBX 15 21 1 0
BITMAP
000E
001C
0038
0780
1DC0
3860
0000
0FC0
3FE0
7FF0
7078
F038
E018
FFFC
FFFC
E000
F000
7830
7FF0
3FF0
0FC0
ENDCHAR
STARTCHAR 1EC0
ENCODING 7872
SWIDTH 680 0
DWIDTH 17 0
BBX 13 25 2 0
BITMAP
00E0
0070
0038
0780
1DC0
3860
0000
FFF8
FFF8
FFF8
F000
F000
F000
F000
FFF0
FFF0
FFF0
F000
F000
F000
F000
F000
FFF8
FFF8
FFF8
ENDCHAR
STARTCHAR 1EC1
ENCODING 7873
SWIDTH 640 0
DWIDTH 16 0
BBX 14 21 1 0
BITMAP
00E0
0070
0038
0780
1DC0
3860
0000
0FC0
3FE0
7FF0
7078
F038
E018
FFFC
FFFC
E000
F000
7830
7FF0
3FF0
0FC0
ENDCHAR
STARTCHAR 1EC2
ENCODING 7874
SWIDTH 680 0
DWIDTH 17 0
BBX 13 25 2 0
BITMAP
0070
0010
0010
07A0
1DC0
3860
0000
FFF8
FFF8
FFF8
F000
F000
F000
F000
FFF0
FFF0
FFF0
F000
F000
F000
F000
F000
FFF8
FFF8
FFF8
ENDCHAR
STARTCHAR 1EC3
ENCODING 7875
SWIDTH 640 0
DWIDTH 16 0
BBX 14 21 1 0
BITMAP
0070
0010
0010
07A0
1DC0
3860
0000
0FC0
3FE0
7FF0
7078
F038
E018
FFFC
FFFC
E000
F000
7830
7FF0
3FF0
0FC0
ENDCHAR
STARTCHAR 1EC4
ENCODING 7876
SWIDTH 680 0
DWIDTH 17 0
BBX 13 26 2 0
BITMAP
1E60
1FE0
31C0
0000
0780
1DC0
3860
0000
FFF8
FFF8
FFF8
F000
F000
F000
F000
FFF0
FFF0
FFF0
F000
F000
F000
F000
F000
FFF8
FFF8
FFF8
ENDCHAR
STARTCHAR 1EC5
ENCODING 7877
SWIDTH 640 0
DWIDTH 16 0
BBX 14 22 1 0
BITMAP
1E60
1FE0
31C0
0000
0780
1DC0
3860
0000
0FC0
3FE0
7FF0
7078
F038
E018
FFFC
FFFC
E000
F000
7830
7FF0
3FF0
0FC0
ENDCHAR
STARTCHAR 1EC6
ENCODING 7878
SWIDTH 680 0
DWIDTH 17 0
BBX 13 28 2 -5
BITMAP
0780
0FC0
1CE0
2000
0000
FFF8
FFF8
FFF8
F000
F000
F000
F000
FFF0
FFF0
FFF0
F000
F000
F000
F000
F000
FFF8
FFF8
FFF8
0000
0000
0300
0700
0300
ENDCHAR
STARTCHAR 1EC7
ENCODING 7879
SWIDTH 640 0
DWIDTH 16 0
BBX 14 24 1 -5
BITMAP
0780
0FC0
1CE0
2000
0000
0FC0
3FE0
7FF0
7078
F038
E018
FFFC
FFFC
E000
F000
7830
7FF0
3FF0
0FC0
0000
0000
0300
0700
0300
ENDCHAR
STARTCHAR 1EC8
ENCODING 7880
SWIDTH 320 0
DWIDTH 8 0
BBX 5 25 2 0
BITMAP
60
F0
18
18
30
20
00
F0
F0
F0
F0
F0
F0
F0
F0
F0
F0
F0
F0
F0
F0
F0
F0
F0
F0
ENDCHAR
STARTCHAR 1EC9
ENCODING 7881
SWIDTH 280 0
DWIDTH 7 0
BBX 5 21 1 0
BITMAP
70
F8
18
18
38
00
00
70
70
70
70
70
70
70
70
70
70
70
70
70
70
ENDCHAR
STARTCHAR 1ECA
ENCODING 7882
SWIDTH 320 0
DWIDTH 8 0
BBX 4 23 2 -5
BITMAP
F0
F0
F0
F0
F0
F0
F0
F0
F0
F0
F0
F0
F0
F0
F0
F0
F0
F0
00
00
60
E0
60
ENDCHAR
STARTCHAR 1ECB
ENCODING 7883
SWIDTH 280 0
DWIDTH 7 0
BBX 4 25 2 -5
BITMAP
E0
F0
E0
60
00
00
E0
E0
E0
E0
E0
E0
E0
E0
E0
E0
E0
E0
E0
E0
00
00
60
E0
E0
ENDCHAR
STARTCHAR 1ECC
ENCODING 7884
SWIDTH 840 0
DWIDTH 21 0
BBX 19 23 1 -5
BITMAP
03F800
0FFE00
1FFF00
3E0F80
7803C0
7001C0
F001E0
F001E0
E000E0
E000E0
F000E0
F001E0
7001C0
7803C0
3E0F80
1FFF00
0FFE00
03F800
000000
000000
00E000
00E000
00E000
ENDCHAR
STARTCHAR 1ECD
ENCODING 7885
SWIDTH 640 0
DWIDTH 16 0
BBX 14 19 1 -5
BITMAP
0FC0
1FF0
7FF8
7878
F03C
E01C
E01C
E01C
E01C
F03C
7838
7FF8
3FF0
0FC0
0000
0000
0300
0380
0300
ENDCHAR
STARTCHAR 1ECE
ENCODING 7886
SWIDTH 840 0
DWIDTH 21 0
BBX 19 25 1 0
BITMAP
00E000
01F000
003000
003000
003000
002000
000000
03F800
0FFE00
1FFF00
3E0F80
7803C0
7001C0
F001E0
F001E0
E000E0
E000E0
F000E0
F001E0
7001C0
7803C0
3E0F80
1FFF00
0FFE00
03F800
ENDCHAR
STARTCHAR 1ECF
ENCODING 7887
SWIDTH 640 0
DWIDTH 16 0
BBX 14 21 1 0
BITMAP
0780
07C0
00C0
00C0
0180
0000
0000
0FC0
1FF0
7FF8
7878
F03C
E01C
E01C
E01C
E01C
F03C
7838
7FF8
3FF0
0FC0
ENDCHAR
STARTCHAR 1ED0
ENCODING 7888
SWIDTH 840 0
DWIDTH 21 0
BBX 19 24 1 0
BITMAP
0001C0
000300
01F600
03B800
071C00
000000
03F800
0FFE00
1FFF00
3E0F80
7803C0
7001C0
F001E0
F001E0
E000E0
E000E0
F000E0
F001E0
7001C0
7803C0
3E0F80
1FFF00
0FFE00
03F800
ENDCHAR
STARTCHAR 1ED1
ENCODING 7889
SWIDTH 640 0
DWIDTH 16 0
BBX 15 21 1 0
BITMAP
000E
001C
0038
0780
0FC0
3870
0000
0FC0
1FF0
7FF8
7878
F03C
E01C
E01C
E01C
E01C
F03C
7838
7FF8
3FF0
0FC0
ENDCHAR
STARTCHAR 1ED2
ENCODING 7890
SWIDTH 840 0
DWIDTH 21 0
BBX 19 24 1 0
BITMAP
001C00
000E00
01F700
03B800
071C00
000000
03F800
0FFE00
1FFF00
3E0F80
7803C0
7001C0
F001E0
F001E0
E000E0
E000E0
F000E0
F001E0
7001C0
7803C0
3E0F80
1FFF00
0FFE00
03F800
ENDCHAR
STARTCHAR 1ED3
ENCODING 7891
SWIDTH 640 0
DWIDTH 16 0
BBX 14 21 1 0
BITMAP
00E0
0070
0018
0780
0FC0
3870
0000
0FC0
1FF0
7FF8
7878
F03C
E01C
E01C
E01C
E01C
F03C
7838
7FF8
3FF0
0FC0
ENDCHAR
STARTCHAR 1ED4
ENCODING 7892
SWIDTH 840 0
DWIDTH 21 0
BBX 19 25 1 0
BITMAP
001E00
000600
000200
01F400
03B800
071C00
000000
03F800
0FFE00
1FFF00
3E0F80
7803C0
7001C0
F001E0
F001E0
E000E0
E000E0
F000E0
F001E0
7001C0
7803C0
3E0F80
1FFF00
0FFE00
03F800
ENDCHAR
STARTCHAR 1ED5
ENCODING 7893
SWIDTH 640 0
DWIDTH 16 0
BBX 14 21 1 0
BITMAP
0070
0018
0018
0790
0FC0
3870
0000
0FC0
1FF0
7FF8
7878
F03C
E01C
E01C
E01C
E01C
F03C
7838
7FF8
3FF0
0FC0
ENDCHAR
STARTCHAR 1ED6
ENCODING 7894
SWIDTH 840 0
DWIDTH 21 0
BBX 19 26 1 0
BITMAP
018C00
03FC00
067800
000000
01F000
03B800
071C00
000000
03F800
0FFE00
1FFF00
3E0F80
7803C0
7001C0
F001E0
F001E0
E000E0
E000E0
F000E0
F001E0
7001C0
7803C0
3E0F80
1FFF00
0FFE00
03F800
ENDCHAR
STARTCHAR 1ED7
ENCODING 7895
SWIDTH 640 0
DWIDTH 16 0
BBX 14 22 1 0
BITMAP
0E20
1FE0
11C0
0000
0780
0FC0
3870
0000
0FC0
1FF0
7FF8
7878
F03C
E01C
E01C
E01C
E01C
F03C
7838
7FF8
3FF0
0FC0
ENDCHAR
STARTCHAR 1ED8
ENCODING 7896
SWIDTH 840 0
DWIDTH 21 0
BBX 19 27 1 -5
BITMAP
01F000
03B800
071C00
000000
03F800
0FFE00
1FFF00
3E0F80
7803C0
7001C0
F001E0
F001E0
E000E0
E000E0
F000E0
F001E0
7001C0
7803C0
3E0F80
1FFF00
0FFE00
03F800
000000
000000
00E000
00E000
00E000
ENDCHAR
STARTCHAR 1ED9
ENCODING 7897
SWIDTH 640 0
DWIDTH 16 0
BBX 14 24 1 -5
BITMAP
0780
0FC0
1CE0
0000
0000
0FC0
1FF0
7FF8
7878
F03C
E01C
E01C
E01C
E01C
F03C
7838
7FF8
3FF0
0FC0
0000
0000
0300
0380
0300
ENDCHAR
STARTCHAR 1EDA
ENCODING 7898
SWIDTH 840 0
DWIDTH 21 0
BBX 19 22 1 0
BITMAP
003C00
0070C0
00E060
0000E0
03FFC0
0FFF80
1FFF00
3E0F80
7803C0
7001C0
F001E0
F001E0
E000E0
E000E0
F000E0
F001E0
7001C0
7803C0
3E0F80
1FFF00
0FFE00
03F800
ENDCHAR
STARTCHAR 1EDB
ENCODING 7899
SWIDTH 640 0
DWIDTH 16 0
BBX 14 19 1 0
BITMAP
00E0
01C0
038C
040C
000C
0FF8
1FF0
7FF8
7878
F03C
E01C
E01C
E01C
E01C
F03C
7838
7FF8
3FF0
0FC0
ENDCHAR
STARTCHAR 1EDC
ENCODING 7900
SWIDTH 840 0
DWIDTH 21 0
BBX 19 22 1 0
BITMAP
078000
01C0C0
00E060
0000E0
03FFC0
0FFF80
1FFF00
3E0F80
7803C0
7001C0
F001E0
F001E0
E000E0
E000E0
F000E0
F001E0
7001C0
7803C0
3E0F80
1FFF00
0FFE00
03F800
ENDCHAR
STARTCHAR 1EDD
ENCODING 7901
SWIDTH 640 0
DWIDTH 16 0
BBX 14 19 1 0
BITMAP
1C00
0E00
070C
008C
000C
0FF8
1FF0
7FF8
7878
F03C
E01C
E01C
E01C
E01C
F03C
7838
7FF8
3FF0
0FC0
ENDCHAR
STARTCHAR 1EDE
ENCODING 7902
SWIDTH 840 0
DWIDTH 21 0
BBX 19 25 1 0
BITMAP
00E000
01F000
003000
003040
0030E0
002060
0000E0
03FFC0
0FFF80
1FFF00
3E0F80
7803C0
7001C0
F001E0
F001E0
E000E0
E000E0
F000E0
F001E0
7001C0
7803C0
3E0F80
1FFF00
0FFE00
03F800
ENDCHAR
STARTCHAR 1EDF
ENCODING 7903
SWIDTH 640 0
DWIDTH 16 0
BBX 14 21 1 0
BITMAP
0780
07C0
00C0
00C0
018C
000C
000C
0FF8
1FF0
7FF8
7878
F03C
E01C
E01C
E01C
E01C
F03C
7838
7FF8
3FF0
0FC0
ENDCHAR
STARTCHAR 1EE0
ENCODING 7904
SWIDTH 840 0
DWIDTH 21 0
BBX 19 23 1 0
BITMAP
010000
03CC40
067CE0
063860
0000E0
03FFC0
0FFF80
1FFF00
3E0F80
7803C0
7001C0
F001E0
F001E0
E000E0
E000E0
F000E0
F001E0
7001C0
7803C0
3E0F80
1FFF00
0FFE00
03F800
ENDCHAR
STARTCHAR 1EE1
ENCODING 7905
SWIDTH 640 0
DWIDTH 16 0
BBX 14 19 1 0
BITMAP
0E00
1F60
1BFC
01CC
000C
0FF8
1FF0
7FF8
7878
F03C
E01C
E01C
E01C
E01C
F03C
7838
7FF8
3FF0
0FC0
ENDCHAR
STARTCHAR 1EE2
ENCODING 7906
SWIDTH 840 0
DWIDTH 21 0
BBX 19 26 1 -4
BITMAP
0000E0
000060
0000E0
03FFC0
0FFF80
1FFF00
3E0F80
7803C0
7001C0
F001E0
F001E0
E000E0
E000E0
F000E0
F001E0
7001C0
7803C0
3E0F80
1FFF00
0FFE00
03F800
000000
000000
00E000
00E000
00E000
ENDCHAR
STARTCHAR 1EE3
ENCODING 7907
SWIDTH 640 0
DWIDTH 16 0
BBX 14 22 1 -4
BITMAP
000C
000C
000C
0FF8
1FF0
7FF8
7878
F03C
E01C
E01C
E01C
E01C
F03C
7838
7FF8
3FF0
0FC0
0000
0000
0300
0380
0300
ENDCHAR
STARTCHAR 1EE4
ENCODING 7908
SWIDTH 800 0
DWIDTH 20 0
BBX 16 23 2 -5
BITMAP
E00F
E00F
E00F
E00F
E00F
E00F
E00F
E00F
E00F
E00F
E00F
F00E
F00E
700E
781E
3FFC
1FF8
07E0
0000
0000
0180
0380
0180
ENDCHAR
STARTCHAR 1EE5
ENCODING 7909
SWIDTH 680 0
DWIDTH 17 0
BBX 13 19 2 -5
BITMAP
E038
E038
E038
E038
E038
E038
E038
E038
E038
E078
F078
7FF8
7FF8
1F38
0000
0000
0700
0700
0700
ENDCHAR
STARTCHAR 1EE6
ENCODING 7910
SWIDTH 800 0
DWIDTH 20 0
BBX 16 25 2 0
BITMAP
0180
03C0
0060
0060
00C0
0080
0000
E00F
E00F
E00F
E00F
E00F
E00F
E00F
E00F
E00F
E00F
E00F
F00E
F00E
700E
781E
3FFC
1FF8
07E0
ENDCHAR
STARTCHAR 1EE7
ENCODING 7911
SWIDTH 680 0
DWIDTH 17 0
BBX 13 21 2 0
BITMAP
0F00
0F80
0180
0180
0300
0000
0000
E038
E038
E038
E038
E038
E038
E038
E038
E038
E078
F078
7FF8
7FF8
1F38
ENDCHAR
STARTCHAR 1EE8
ENCODING 7912
SWIDTH 800 0
DWIDTH 20 0
BBX 18 23 2 0
BITMAP
007000
00E0C0
01C0C0
0200C0
0000C0
E00FC0
E00F80
E00F00
E00F00
E00F00
E00F00
E00F00
E00F00
E00F00
E00F00
E00F00
F00E00
F00E00
700E00
781E00
3FFC00
1FF800
07E000
ENDCHAR
STARTCHAR 1EE9
ENCODING 7913
SWIDTH 680 0
DWIDTH 17 0
BBX 15 19 2 0
BITMAP
01E0
0382
0706
0006
0006
E03E
E03C
E038
E038
E038
E038
E038
E038
E038
E078
F078
7FF8
7FF8
1F38
ENDCHAR
STARTCHAR 1EEA
ENCODING 7914
SWIDTH 800 0
DWIDTH 20 0
BBX 18 23 2 0
BITMAP
0E0000
0700C0
0380C0
0000C0
0000C0
E00FC0
E00F80
E00F00
E00F00
E00F00
E00F00
E00F00
E00F00
E00F00
E00F00
E00F00
F00E00
F00E00
700E00
781E00
3FFC00
1FF800
07E000
ENDCHAR
STARTCHAR 1EEB
ENCODING 7915
SWIDTH 680 0
DWIDTH 17 0
BBX 15 19 2 0
BITMAP
3C00
1E02
0706
0006
0006
E03E
E03C
E038
E038
E038
E038
E038
E038
E038
E078
F078
7FF8
7FF8
1F38
ENDCHAR
STARTCHAR 1EEC
ENCODING 7916
SWIDTH 800 0
DWIDTH 20 0
BBX 18 25 2 0
BITMAP
018000
03C000
006000
0060C0
00C0C0
0080C0
0000C0
E00FC0
E00F80
E00F00
E00F00
E00F00
E00F00
E00F00
E00F00
E00F00
E00F00
E00F00
F00E00
F00E00
700E00
781E00
3FFC00
1FF800
07E000
ENDCHAR
STARTCHAR 1EED
ENCODING 7917
SWIDTH 680 0
DWIDTH 17 0
BBX 15 21 2 0
BITMAP
0F00
0F80
0180
0182
0306
0006
0006
E03E
E03C
E038
E038
E038
E038
E038
E038
E038
E078
F078
7FF8
7FF8
1F38
ENDCHAR
STARTCHAR 1EEE
ENCODING 7918
SWIDTH 800 0
DWIDTH 20 0
BBX 18 23 2 0
BITMAP
060000
0FB040
09F0C0
0060C0
0000C0
E00FC0
E00F80
E00F00
E00F00
E00F00
E00F00
E00F00
E00F00
E00F00
E00F00
E00F00
F00E00
F00E00
700E00
781E00
3FFC00
1FF800
07E000
ENDCHAR
STARTCHAR 1EEF
ENCODING 7919
SWIDTH 680 0
DWIDTH 17 0
BBX 15 19 2 0
BITMAP
1800
3E60
33C6
0006
0006
E03E
E03C
E038
E038
E038
E038
E038
E038
E038
E078
F078
7FF8
7FF8
1F38
ENDCHAR
STARTCHAR 1EF0
ENCODING 7920
SWIDTH 800 0
DWIDTH 20 0
BBX 18 27 2 -5
BITMAP
0000C0
0000C0
0000C0
0000C0
E00FC0
E00F80
E00F00
E00F00
E00F00
E00F00
E00F00
E00F00
E00F00
E00F00
E00F00
F00E00
F00E00
700E00
781E00
3FFC00
1FF800
07E000
000000
000000
018000
038000
018000
ENDCHAR
STARTCHAR 1EF1
ENCODING 7921
SWIDTH 680 0
DWIDTH 17 0
BBX 15 23 2 -5
BITMAP
0006
0006
0006
0006
E03E
E03C
E038
E038
E038
E038
E038
E038
E038
E078
F078
7FF8
7FF8
1F38
0000
0000
0700
0700
0700
ENDCHAR
STARTCHAR 1EF2
ENCODING 7922
SWIDTH 680 0
DWIDTH 17 0
BBX 16 23 0 0
BITMAP
0E00
0700
0380
0040
0000
F007
7007
780E
381E
3C1C
1C3C
0E38
0F70
0770
07E0
03E0
01C0
01C0
01C0
01C0
01C0
01C0
01C0
ENDCHAR
STARTCHAR 1EF3
ENCODING 7923
SWIDTH 560 0
DWIDTH 14 0
BBX 14 24 0 -5
BITMAP
1C00
0E00
0700
0000
0000
E01C
F01C
7018
7838
3838
3870
1C70
1CE0
1EE0
0EE0
0FC0
07C0
0780
0780
0780
0700
FF00
FE00
7800
ENDCHAR
STARTCHAR 1EF4
ENCODING 7924
SWIDTH 680 0
DWIDTH 17 0
BBX 16 23 0 -5
BITMAP
F007
7007
780E
381E
3C1C
1C3C
0E38
0F70
0770
07E0
03E0
01C0
01C0
01C0
01C0
01C0
01C0
01C0
0000
0000
0180
01C0
0180
ENDCHAR
STARTCHAR 1EF5
ENCODING 7925
SWIDTH 560 0
DWIDTH 14 0
BBX 14 19 0 -5
BITMAP
E01C
F01C
7018
7838
3838
3870
1C70
1CE0
1EE0
0EE0
0FC0
07C0
0780
0780
0780
0700
FF30
FE70
7830
ENDCHAR
STARTCHAR 1EF6
ENCODING 7926
SWIDTH 680 0
DWIDTH 17 0
BBX 16 25 0 0
BITMAP
0180
03E0
0060
0060
00E0
0040
0000
F007
7007
780E
381E
3C1C
1C3C
0E38
0F70
0770
07E0
03E0
01C0
01C0
01C0
01C0
01C0
01C0
01C0
ENDCHAR
STARTCHAR 1EF7
ENCODING 7927
SWIDTH 560 0
DWIDTH 14 0
BBX 14 26 0 -5
BITMAP
0780
07C0
00C0
00C0
0180
0000
0000
E01C
F01C
7018
7838
3838
3870
1C70
1CE0
1EE0
0EE0
0FC0
07C0
0780
0780
0780
0700
FF00
FE00
7800
ENDCHAR
STARTCHAR 1EF8
ENCODING 7928
SWIDTH 680 0
DWIDTH 17 0
BBX 16 23 0 0
BITMAP
0600
0F98
0CF0
0020
0000
F007
7007
780E
381E
3C1C
1C3C
0E38
0F70
0770
07E0
03E0
01C0
01C0
01C0
01C0
01C0
01C0
01C0
ENDCHAR
STARTCHAR 1EF9
ENCODING 7929
SWIDTH 560 0
DWIDTH 14 0
BBX 14 24 0 -5
BITMAP
0C00
1F60
31E0
0000
0000
E01C
F01C
7018
7838
3838
3870
1C70
1CE0
1EE0
0EE0
0FC0
07C0
0780
0780
0780
0700
FF00
FE00
7800
ENDCHAR
STARTCHAR 2007
ENCODING 8199
SWIDTH 720 0
DWIDTH 18 0
BBX 0 0 0 0
BITMAP
ENDCHAR
STARTCHAR 2008
ENCODING 8200
SWIDTH 240 0
DWIDTH 6 0
BBX 0 0 0 0
BITMAP
ENDCHAR
STARTCHAR 2009
ENCODING 8201
SWIDTH 120 0
DWIDTH 3 0
BBX 0 0 0 0
BITMAP
ENDCHAR
STARTCHAR 200A
ENCODING 8202
SWIDTH 120 0
DWIDTH 3 0
BBX 0 0 0 0
BITMAP
ENDCHAR
STARTCHAR 200B
ENCODING 8203
SWIDTH 0 0
DWIDTH 0 0
BBX 0 0 0 0
BITMAP
ENDCHAR
STARTCHAR 2010
ENCODING 8208
SWIDTH 400 0
DWIDTH 10 0
BBX 7 3 1 5
BITMAP
FE
FE
FE
ENDCHAR
STARTCHAR 2012
ENCODING 8210
SWIDTH 720 0
DWIDTH 18 0
BBX 15 2 1 8
BITMAP
FFFE
FFFE
ENDCHAR
STARTCHAR 2013
ENCODING 8211
SWIDTH 520 0
DWIDTH 13 0
BBX 12 2 0 6
BITMAP
FFF0
FFF0
ENDCHAR
STARTCHAR 2014
ENCODING 8212
SWIDTH 1000 0
DWIDTH 25 0
BBX 25 2 0 6
BITMAP
FFFFFF80
FFFFFF80
ENDCHAR
STARTCHAR 2015
ENCODING 8213
SWIDTH 1000 0
DWIDTH 25 0
BBX 25 2 0 6
BITMAP
FFFFFF80
FFFFFF80
ENDCHAR
STARTCHAR 2018
ENCODING 8216
SWIDTH 240 0
DWIDTH 6 0
BBX 4 8 1 11
BITMAP
30
60
60
60
F0
F0
F0
60
ENDCHAR
STARTCHAR 2019
ENCODING 8217
SWIDTH 240 0
DWIDTH 6 0
BBX 4 8 1 11
BITMAP
60
F0
F0
70
60
60
60
C0
ENDCHAR
STARTCHAR 201A
ENCODING 8218
SWIDTH 240 0
DWIDTH 6 0
BBX 4 8 1 -4
BITMAP
60
F0
F0
70
60
60
60
C0
ENDCHAR
STARTCHAR 201C
ENCODING 8220
SWIDTH 440 0
DWIDTH 11 0
BBX 9 8 1 11
BITMAP
3180
6180
6380
6300
F380
F780
F780
6300
ENDCHAR
STARTCHAR 201D
ENCODING 8221
SWIDTH 440 0
DWIDTH 11 0
BBX 9 8 1 11
BITMAP
6380
F780
F780
7380
6380
6300
6300
C300
ENDCHAR
STARTCHAR 201E
ENCODING 8222
SWIDTH 440 0
DWIDTH 11 0
BBX 9 8 1 -4
BITMAP
6380
F780
F780
7380
6380
6300
6300
C300
ENDCHAR
STARTCHAR 2020
ENCODING 8224
SWIDTH 560 0
DWIDTH 14 0
BBX 13 23 1 -5
BITMAP
0700
0700
0700
0700
0700
0700
FFF8
FFF8
FFF8
0700
0700
0700
0700
0700
0700
0700
0700
0700
0700
0700
0700
0700
0700
ENDCHAR
STARTCHAR 2021
ENCODING 8225
SWIDTH 560 0
DWIDTH 14 0
BBX 13 23 1 -5
BITMAP
0700
0700
0700
0700
0700
0700
FFF8
FFF8
FFF8
0700
0700
0700
0700
0700
FFF8
FFF8
FFF8
0700
0700
0700
0700
0700
0700
ENDCHAR
STARTCHAR 2022
ENCODING 8226
SWIDTH 320 0
DWIDTH 8 0
BBX 6 5 1 4
BITMAP
78
7C
FC
7C
38
ENDCHAR
STARTCHAR 2026
ENCODING 8230
SWIDTH 760 0
DWIDTH 19 0
BBX 17 4 1 0
BITMAP
71C700
F3C780
F3C700
61C700
ENDCHAR
STARTCHAR 2030
ENCODING 8240
SWIDTH 1240 0
DWIDTH 31 0
BBX 29 18 1 0
BITMAP
3C038000
7E070000
C3060000
C30E0000
C30C0000
C3180000
C3380000
E7300000
7E6380C0
18E7C3F0
00CC6730
018C7618
03983618
03183618
061C7618
0E0C6638
0C0FE3F0
180781E0
ENDCHAR
STARTCHAR 2032
ENCODING 8242
SWIDTH 240 0
DWIDTH 6 0
BBX 3 7 1 11
BITMAP
E0
E0
E0
E0
60
60
60
ENDCHAR
STARTCHAR 2033
ENCODING 8243
SWIDTH 400 0
DWIDTH 10 0
BBX 8 7 1 11
BITMAP
E7
E7
E7
E7
67
67
67
ENDCHAR
STARTCHAR 2039
ENCODING 8249
SWIDTH 320 0
DWIDTH 8 0
BBX 6 10 1 2
BITMAP
1C
1C
38
70
60
E0
70
38
38
1C
ENDCHAR
STARTCHAR 203A
ENCODING 8250
SWIDTH 320 0
DWIDTH 8 0
BBX 6 10 1 2
BITMAP
E0
60
70
38
1C
1C
38
30
70
E0
ENDCHAR
STARTCHAR 2044
ENCODING 8260
SWIDTH 160 0
DWIDTH 4 0
BBX 14 18 -5 0
BITMAP
000C
0018
0038
0030
0060
00E0
00C0
0180
0380
0300
0600
0E00
0C00
1800
3800
3000
6000
E000
ENDCHAR
STARTCHAR 2052
ENCODING 8274
SWIDTH 560 0
DWIDTH 14 0
BBX 10 18 2 0
BITMAP
E180
E180
E380
0300
0700
0600
0600
0E00
0C00
0C00
1C00
1800
1800
3800
3000
31C0
71C0
61C0
ENDCHAR
STARTCHAR 2070
ENCODING 8304
SWIDTH 440 0
DWIDTH 11 0
BBX 9 11 1 8
BITMAP
3E00
7F00
E380
C180
C180
C180
C180
C180
E300
7F00
3C00
ENDCHAR
STARTCHAR 2074
ENCODING 8308
SWIDTH 440 0
DWIDTH 11 0
BBX 10 10 0 9
BITMAP
0600
0E00
1C00
1800
3300
7300
FFC0
FFC0
0300
0300
ENDCHAR
STARTCHAR 2075
ENCODING 8309
SWIDTH 440 0
DWIDTH 11 0
BBX 9 11 1 8
BITMAP
7F00
7F00
6000
6000
6000
7E00
FF00
0380
8380
FF00
7E00
ENDCHAR
STARTCHAR 2076
ENCODING 8310
SWIDTH 440 0
DWIDTH 11 0
BBX 9 12 1 7
BITMAP
1F00
3F00
7000
E000
C000
DE00
FF80
E180
C180
E380
7F00
0C00
ENDCHAR
STARTCHAR 2077
ENCODING 8311
SWIDTH 440 0
DWIDTH 11 0
BBX 9 10 1 9
BITMAP
FF80
FF80
C300
C700
0600
0E00
0C00
1C00
1800
3800
ENDCHAR
STARTCHAR 2078
ENCODING 8312
SWIDTH 440 0
DWIDTH 11 0
BBX 9 11 1 8
BITMAP
3E00
FF00
C380
C180
6300
7F00
FF80
C180
C180
FF80
3E00
ENDCHAR
STARTCHAR 2079
ENCODING 8313
SWIDTH 440 0
DWIDTH 11 0
BBX 9 11 1 8
BITMAP
3C00
FF00
C300
C380
C380
7F80
1180
0380
0700
FE00
7800
ENDCHAR
STARTCHAR 2080
ENCODING 8320
SWIDTH 440 0
DWIDTH 11 0
BBX 9 11 1 -3
BITMAP
3E00
7F00
E380
C180
C180
C180
C180
C180
E380
7F00
3E00
ENDCHAR
STARTCHAR 2081
ENCODING 8321
SWIDTH 440 0
DWIDTH 11 0
BBX 7 11 2 -3
BITMAP
F8
F8
18
18
18
18
18
18
18
FE
FE
ENDCHAR
STARTCHAR 2082
ENCODING 8322
SWIDTH 440 0
DWIDTH 11 0
BBX 9 11 1 -3
BITMAP
7C00
FF00
C300
0300
0300
0600
1C00
3800
7000
FF80
FF80
ENDCHAR
STARTCHAR 2083
ENCODING 8323
SWIDTH 440 0
DWIDTH 11 0
BBX 9 11 1 -3
BITMAP
FF00
FF00
0600
0C00
1C00
1F00
0380
0380
8380
FF00
7E00
ENDCHAR
STARTCHAR 2084
ENCODING 8324
SWIDTH 440 0
DWIDTH 11 0
BBX 10 11 0 -3
BITMAP
0600
0E00
1C00
1800
3300
7300
FFC0
FFC0
0300
0300
0300
ENDCHAR
STARTCHAR 2085
ENCODING 8325
SWIDTH 440 0
DWIDTH 11 0
BBX 9 11 1 -3
BITMAP
7F00
7F00
6000
6000
7C00
FF00
0380
0380
8380
FF00
7E00
ENDCHAR
STARTCHAR 2086
ENCODING 8326
SWIDTH 440 0
DWIDTH 11 0
BBX 9 11 1 -3
BITMAP
1F00
7F00
6000
C000
DE00
FF80
E180
C180
E180
7F00
3E00
ENDCHAR
STARTCHAR 2087
ENCODING 8327
SWIDTH 440 0
DWIDTH 11 0
BBX 9 11 1 -3
BITMAP
FF80
FF80
C380
C300
0700
0600
0E00
0C00
1C00
1800
3800
ENDCHAR
STARTCHAR 2088
ENCODING 8328
SWIDTH 440 0
DWIDTH 11 0
BBX 9 11 1 -3
BITMAP
3E00
FF00
C380
C180
FF00
7F00
C380
C180
C180
FF80
3E00
ENDCHAR
STARTCHAR 2089
ENCODING 8329
SWIDTH 440 0
DWIDTH 11 0
BBX 9 11 1 -3
BITMAP
3C00
FF00
C300
C380
C380
7F80
1180
0380
0700
FE00
FC00
ENDCHAR
STARTCHAR 20A1
ENCODING 8353
SWIDTH 720 0
DWIDTH 18 0
BBX 16 24 1 -3
BITMAP
0066
0064
004C
01FC
0FFE
1FFF
3F9F
799A
7198
F190
F330
E330
E330
F320
F660
7660
7E62
3E4F
1FFF
0FFE
0FF8
0C80
1980
1980
ENDCHAR
STARTCHAR 20A3
ENCODING 8355
SWIDTH 680 0
DWIDTH 17 0
BBX 15 18 1 0
BITMAP
3FFE
3FFE
3FFE
3800
3800
3800
3800
3800
3FFC
3FFC
3FFC
3800
3800
3800
FFE0
FFE0
3800
3800
ENDCHAR
STARTCHAR 20A4
ENCODING 8356
SWIDTH 640 0
DWIDTH 16 0
BBX 15 18 1 0
BITMAP
01FC
07FE
0FFE
1E04
1C00
3C00
FFF0
FFF0
3C00
3C00
FFF0
FFF0
3C00
3C00
3C00
FFFE
FFFE
FFFE
ENDCHAR
STARTCHAR 20A6
ENCODING 8358
SWIDTH 880 0
DWIDTH 22 0
BBX 21 18 1 0
BITMAP
3801C0
3C01C0
3E01C0
3F01C0
3F81C0
3F81C0
FFC1F8
FDE1F8
3CF1C0
3C79C0
FC79F8
FC3DF8
3C1FC0
3C0FC0
3C0FC0
3C07C0
3C03C0
3C01C0
ENDCHAR
STARTCHAR 20A7
ENCODING 8359
SWIDTH 1680 0
DWIDTH 42 0
BBX 39 18 2 0
BITMAP
FFE0000000
FFF81C0000
FFFC1C0000
F03C1C0000
F01E7F81F8
F00E7F87FC
F00E1F8FFC
F00E1C0E04
F01E1C0E00
F03C1C0F00
FFFC1C0FF8
FFF01C03FC
FF801C007E
F0001C000E
F0001C080E
F0001FCFFE
F0000FDFFC
F00007C3F0
ENDCHAR
STARTCHAR 20A9
ENCODING 8361
SWIDTH 1200 0
DWIDTH 30 0
BBX 29 18 1 0
BITMAP
F0070070
700F0070
700F80F0
780F80E0
381F80E0
381DC1E0
FFFFFFF8
FFFFFFF8
1C38E380
1E38E380
FFFFFFF8
FFFFFFF8
0FF07700
07E07700
07E03F00
07C03E00
03C03E00
03C01C00
ENDCHAR
STARTCHAR 20AB
ENCODING 8363
SWIDTH 680 0
DWIDTH 17 0
BBX 16 22 1 -3
BITMAP
001C
001C
03FF
001F
001C
0F9C
3FFC
7FFC
787C
F03C
E01C
E01C
E01C
E01C
F03C
783C
7FFC
3FFC
0F9C
0000
FFFC
FFFC
ENDCHAR
STARTCHAR 20AC
ENCODING 8364
SWIDTH 800 0
DWIDTH 20 0
BBX 18 18 1 0
BITMAP
00FE00
03FF80
07FFC0
0F81C0
1E0080
1C0000
FFF800
FFF800
3C0000
3C0000
FFF800
FFF800
1C0000
1E0080
0F81C0
07FFC0
03FF80
00FE00
ENDCHAR
STARTCHAR 20AD
ENCODING 8365
SWIDTH 680 0
DWIDTH 17 0
BBX 16 18 1 0
BITMAP
380F
380E
381C
383C
3878
38F0
39E0
39C0
FFFE
FFFE
39C0
39E0
38F0
3878
383C
381C
381E
380F
ENDCHAR
STARTCHAR 20AE
ENCODING 8366
SWIDTH 680 0
DWIDTH 17 0
BBX 15 18 1 0
BITMAP
FFFE
FFFE
FFFE
0380
0380
0398
03F8
03E0
0780
0F98
3BF8
23E0
0780
1F80
3B80
2380
0380
0380
ENDCHAR
STARTCHAR 20B1
ENCODING 8369
SWIDTH 840 0
DWIDTH 21 0
BBX 20 18 1 0
BITMAP
3FF800
3FFE00
3FFF00
3C0F00
FFFFF0
FFFFF0
3C0380
FFFFF0
FFFFF0
3C0F00
3FFF00
3FFC00
3FF000
3C0000
3C0000
3C0000
3C0000
3C0000
ENDCHAR
STARTCHAR 20B2
ENCODING 8370
SWIDTH 760 0
DWIDTH 19 0
BBX 16 24 1 -3
BITMAP
00C0
00C0
00C0
03F8
0FFE
1FFF
3EC7
78C2
70C0
F0C0
F0C0
E0C0
E0C7
F0C7
F0C7
70C7
78C7
3EC7
1FFF
0FFE
03F8
00C0
00C0
00C0
ENDCHAR
STARTCHAR 20B4
ENCODING 8372
SWIDTH 840 0
DWIDTH 21 0
BBX 17 18 2 0
BITMAP
07E000
3FF800
1FFC00
101E00
000E00
000E00
FFFF80
FFFF80
000000
000000
FFFF80
FFFF80
780000
780000
380600
3FFE00
1FFE00
07F000
ENDCHAR
STARTCHAR 20B5
ENCODING 8373
SWIDTH 720 0
DWIDTH 18 0
BBX 16 24 1 -3
BITMAP
00C0
00C0
00C0
03F8
0FFE
1FFF
3ECF
78C2
70C0
F0C0
F0C0
E0C0
E0C0
F0C0
F0C0
70C0
78C2
3EC7
1FFF
0FFE
03F8
00C0
00C0
00C0
ENDCHAR
STARTCHAR 20B8
ENCODING 8376
SWIDTH 720 0
DWIDTH 18 0
BBX 15 18 2 0
BITMAP
FFFE
FFFE
0000
FFFE
FFFE
0380
0380
0380
0380
0380
0380
0380
0380
0380
0380
0380
0380
0380
ENDCHAR
STARTCHAR 20B9
ENCODING 8377
SWIDTH 720 0
DWIDTH 18 0
BBX 16 18 1 0
BITMAP
FFFF
FFFF
0078
FFFF
FFFF
0038
0038
0038
0078
7FF0
7FE0
7FC0
01C0
01E0
00F0
0070
0078
0038
ENDCHAR
STARTCHAR 20BA
ENCODING 8378
SWIDTH 720 0
DWIDTH 18 0
BBX 16 18 1 0
BITMAP
3C00
3C30
3CF0
3DC0
3F10
3C30
7CE0
FFC0
BF00
3C07
7C07
FC07
BC0F
3C0E
3C3E
3FFC
3FF0
3FC0
ENDCHAR
STARTCHAR 20BC
ENCODING 8380
SWIDTH 920 0
DWIDTH 23 0
BBX 18 21 2 0
BITMAP
00C000
00C000
00C000
03F800
0FFE00
1FFF00
3CCF80
38C380
70C1C0
70C1C0
70C1C0
E0C1C0
E0C1C0
E0C1C0
E0C1C0
E0C1C0
E0C1C0
E0C1C0
E001C0
E001C0
E001C0
ENDCHAR
STARTCHAR 20BD
ENCODING 8381
SWIDTH 760 0
DWIDTH 19 0
BBX 17 18 1 0
BITMAP
3FF800
3FFE00
3FFF00
380F00
380780
380380
380380
380780
380700
3FFF00
3FFE00
3FF800
380000
380000
FFE000
FFE000
380000
380000
ENDCHAR
STARTCHAR 2113
ENCODING 8467
SWIDTH 480 0
DWIDTH 12 0
BBX 10 18 1 0
BITMAP
0780
0FC0
0CC0
18C0
18C0
1880
1980
3300
3300
3600
3C00
3800
7000
F000
7080
3180
3F00
1E00
ENDCHAR
STARTCHAR 2116
ENCODING 8470
SWIDTH 1200 0
DWIDTH 30 0
BBX 27 18 2 0
BITMAP
E0070F80
F0071FC0
F80738E0
FC073060
FE073060
FE0738E0
FF071FC0
F7870F80
F3C70000
F1E70000
F1E73FE0
F0F73FE0
F07F0000
F03F0000
F03F0000
F01F0000
F00F0000
F0070000
ENDCHAR
STARTCHAR 2122
ENCODING 8482
SWIDTH 1040 0
DWIDTH 26 0
BBX 24 10 0 8
BITMAP
FFD807
FFDC07
0C1E0F
0C1E1F
0C1B1F
0C1BB7
0C19F7
0C18E7
0C18C7
0C1807
ENDCHAR
STARTCHAR 2126
ENCODING 8486
SWIDTH 880 0
DWIDTH 22 0
BBX 22 18 0 0
BITMAP
00FC00
03FF80
0FFFC0
0F03E0
1E01F0
3C00F0
3C0070
380070
380078
380078
380070
3C0070
1C00F0
1E00E0
0F01E0
FF87FC
FF87FC
FF87FC
ENDCHAR
STARTCHAR 212A
ENCODING 8490
SWIDTH 720 0
DWIDTH 18 0
BBX 16 18 2 0
BITMAP
F00E
F01E
F03C
F078
F0F0
F1E0
F3C0
F780
FF80
FFC0
FFC0
F9E0
F0F0
F078
F03C
F03C
F01E
F00F
ENDCHAR
STARTCHAR 212B
ENCODING 8491
SWIDTH 760 0
DWIDTH 19 0
BBX 19 25 0 0
BITMAP
01E000
013000
031000
011000
01E000
000000
000000
00E000
01F000
01F000
03F000
03B800
073800
071C00
0F1C00
0E0E00
0E0E00
1C0F00
1FFF00
3FFF00
3FFF80
780380
7003C0
7001C0
E001E0
ENDCHAR
STARTCHAR 212E
ENCODING 8494
SWIDTH 880 0
DWIDTH 22 0
BBX 20 18 1 0
BITMAP
03F800
0C0600
180180
3000C0
7000E0
7000E0
F000E0
F000F0
F000F0
FFFF00
F00000
700000
700000
700000
3000C0
180180
040200
03FC00
ENDCHAR
STARTCHAR 2153
ENCODING 8531
SWIDTH 1040 0
DWIDTH 26 0
BBX 23 18 2 0
BITMAP
F801C0
F80180
180300
180700
180600
180E00
181C00
181BFC
183BFC
FE701C
FE6038
00E070
01C07C
01800E
038006
07030E
0603FC
0E01F8
ENDCHAR
STARTCHAR 2154
ENCODING 8532
SWIDTH 1040 0
DWIDTH 26 0
BBX 24 18 1 0
BITMAP
7C00E0
FF00C0
C30180
030380
070300
0E0700
1C0E00
380DFE
701DFE
FFB80E
FFB01C
007038
00E03E
00C007
01C003
038107
0301FE
0700FC
ENDCHAR
STARTCHAR 215B
ENCODING 8539
SWIDTH 1040 0
DWIDTH 26 0
BBX 23 18 2 0
BITMAP
F801C0
F80180
180300
180700
180600
180E00
181C00
1818F8
1839FE
FE7386
FE6386
00E1FC
01C1FC
01838E
038306
070306
0603FE
0E00F8
ENDCHAR
STARTCHAR 215C
ENCODING 8540
SWIDTH 1040 0
DWIDTH 26 0
BBX 24 18 1 0
BITMAP
FF00E0
FF00C0
060180
0C0380
1C0300
1F0700
038E00
038C7C
C39CFF
FF39C3
7C31C3
0070FE
00E0FE
00C1C7
01C183
038183
0301FF
07007C
ENDCHAR
STARTCHAR 215D
ENCODING 8541
SWIDTH 1040 0
DWIDTH 26 0
BBX 24 18 1 0
BITMAP
7F00E0
7F00C0
600180
600380
7E0300
FF0700
038E00
038C7C
C31CFF
FF39C3
7C31C3
0070FE
00E0FE
00C1C7
01C183
038183
0301FF
07007C
ENDCHAR
STARTCHAR 215E
ENCODING 8542
SWIDTH 1040 0
DWIDTH 26 0
BBX 24 18 1 0
BITMAP
FF80E0
FF80C0
C30180
C70380
060300
0E0700
0C0E00
1C0C7C
181CFF
3839C3
0031C3
0070FE
00E0FE
00C1C7
01C183
038183
0301FF
07007C
ENDCHAR
STARTCHAR 2190
ENCODING 8592
SWIDTH 600 0
DWIDTH 15 0
BBX 12 11 2 1
BITMAP
1C00
1800
3800
7000
7FF0
FFF0
7000
3800
3800
1C00
0C00
ENDCHAR
STARTCHAR 2191
ENCODING 8593
SWIDTH 600 0
DWIDTH 15 0
BBX 11 12 2 1
BITMAP
0400
0E00
3F80
7FC0
EFE0
CE60
0E00
0E00
0E00
0E00
0E00
0E00
ENDCHAR
STARTCHAR 2192
ENCODING 8594
SWIDTH 600 0
DWIDTH 15 0
BBX 12 11 1 1
BITMAP
0380
0180
01C0
00E0
FFE0
FFF0
00E0
01C0
01C0
0380
0300
ENDCHAR
STARTCHAR 2193
ENCODING 8595
SWIDTH 600 0
DWIDTH 15 0
BBX 11 12 2 1
BITMAP
0E00
0E00
0E00
0E00
0E00
0E00
8E20
EEE0
FFE0
3F80
1F00
0400
ENDCHAR
STARTCHAR 2194
ENCODING 8596
SWIDTH 760 0
DWIDTH 19 0
BBX 17 11 1 1
BITMAP
1C1C00
180E00
380600
700700
7FFF80
FFFF80
700700
380700
380E00
1C1C00
0E1C00
ENDCHAR
STARTCHAR 2195
ENCODING 8597
SWIDTH 600 0
DWIDTH 15 0
BBX 11 16 2 1
BITMAP
0400
1F00
3F80
FFE0
EEE0
8E20
0E00
0E00
0E00
0E00
8E20
EEE0
FFE0
3F80
1F00
0400
ENDCHAR
STARTCHAR 2196
ENCODING 8598
SWIDTH 600 0
DWIDTH 15 0
BBX 9 10 3 2
BITMAP
1F00
7F80
F000
F800
FC00
DE00
CF00
C780
8380
0100
ENDCHAR
STARTCHAR 2197
ENCODING 8599
SWIDTH 600 0
DWIDTH 15 0
BBX 10 10 3 2
BITMAP
7C00
7F80
0780
0F80
1F80
3DC0
78C0
F0C0
E080
4000
ENDCHAR
STARTCHAR 2198
ENCODING 8600
SWIDTH 600 0
DWIDTH 15 0
BBX 10 10 3 2
BITMAP
4000
E080
F0C0
78C0
3D80
1F80
0F80
0780
7F80
7E00
ENDCHAR
STARTCHAR 2199
ENCODING 8601
SWIDTH 600 0
DWIDTH 15 0
BBX 11 10 2 2
BITMAP
00C0
41E0
E3C0
6780
6F00
7E00
7C00
7E00
3F80
0380
ENDCHAR
STARTCHAR 2202
ENCODING 8706
SWIDTH 720 0
DWIDTH 18 0
BBX 14 19 2 0
BITMAP
1E00
7FC0
7FE0
01F0
0078
0038
003C
001C
3FDC
7FFC
F0FC
E03C
E03C
E038
E038
F078
7FF0
3FE0
1F80
ENDCHAR
STARTCHAR 2205
ENCODING 8709
SWIDTH 600 0
DWIDTH 15 0
BBX 12 12 1 2
BITMAP
0F90
1FE0
38E0
60F0
6130
6630
6C30
7870
38E0
7FC0
CF80
8000
ENDCHAR
STARTCHAR 2206
ENCODING 8710
SWIDTH 760 0
DWIDTH 19 0
BBX 19 18 0 0
BITMAP
00E000
01F000
01F000
03F000
03B800
073800
071C00
0F1C00
0E1E00
0E0E00
1C0F00
1C0700
380700
380380
780380
7FFFC0
7FFFC0
FFFFE0
ENDCHAR
STARTCHAR 220F
ENCODING 8719
SWIDTH 800 0
DWIDTH 20 0
BBX 16 23 2 -5
BITMAP
FFFF
FFFF
FFFF
F007
F007
F007
F007
F007
F007
F007
F007
F007
F007
F007
F007
F007
F007
F007
F007
F007
F007
F007
F007
ENDCHAR
STARTCHAR 2211
ENCODING 8721
SWIDTH 680 0
DWIDTH 17 0
BBX 15 23 1 -5
BITMAP
FFFE
FFFE
7FFE
7800
3C00
1E00
0F00
0780
0780
03C0
01E0
00E0
01E0
03C0
0780
0780
0F00
1E00
3C00
7800
FFFE
FFFE
FFFE
ENDCHAR
STARTCHAR 2212
ENCODING 8722
SWIDTH 600 0
DWIDTH 15 0
BBX 11 2 2 8
BITMAP
FFE0
FFE0
ENDCHAR
STARTCHAR 2215
ENCODING 8725
SWIDTH 360 0
DWIDTH 9 0
BBX 11 24 -1 -3
BITMAP
00E0
00E0
00E0
01C0
01C0
01C0
0380
0380
0300
0700
0700
0600
0E00
0E00
0C00
1C00
1C00
1800
3800
3800
7000
7000
7000
E000
ENDCHAR
STARTCHAR 2219
ENCODING 8729
SWIDTH 320 0
DWIDTH 8 0
BBX 4 4 2 7
BITMAP
E0
F0
F0
E0
ENDCHAR
STARTCHAR 221A
ENCODING 8730
SWIDTH 800 0
DWIDTH 20 0
BBX 18 24 2 -5
BITMAP
0001C0
0001C0
0001C0
000380
000380
000380
000700
000700
000700
F80E00
FC0E00
1C0E00
1C1C00
0E1C00
0E1C00
0E3800
073800
073800
077000
03F000
03F000
03E000
01E000
01E000
ENDCHAR
STARTCHAR 221E
ENCODING 8734
SWIDTH 920 0
DWIDTH 23 0
BBX 21 10 1 4
BITMAP
1F03C0
7F8FF0
73DE78
E0F838
E07018
C07018
E0F838
F1DC38
7FCFF0
3F07E0
ENDCHAR
STARTCHAR 222B
ENCODING 8747
SWIDTH 400 0
DWIDTH 10 0
BBX 12 24 -1 -5
BITMAP
01F0
03F0
07F0
0700
0700
0700
0700
0700
0700
0700
0700
0700
0700
0700
0700
0700
0700
0700
0700
0700
0F00
7E00
FE00
7800
ENDCHAR
STARTCHAR 2248
ENCODING 8776
SWIDTH 600 0
DWIDTH 15 0
BBX 12 10 1 4
BITMAP
3C30
7F30
67F0
E3E0
0000
0000
3C30
7F30
67F0
E3E0
ENDCHAR
STARTCHAR 2260
ENCODING 8800
SWIDTH 600 0
DWIDTH 15 0
BBX 11 14 2 2
BITMAP
00C0
01C0
0180
FFE0
FFE0
07E0
0600
0E00
1C00
FFE0
FFE0
3FE0
7000
6000
ENDCHAR
STARTCHAR 2264
ENCODING 8804
SWIDTH 600 0
DWIDTH 15 0
BBX 11 15 2 1
BITMAP
00E0
07E0
3F80
FE00
F000
F800
FE00
1FC0
03E0
0060
0000
0000
0000
FFE0
FFE0
ENDCHAR
STARTCHAR 2265
ENCODING 8805
SWIDTH 600 0
DWIDTH 15 0
BBX 11 15 2 1
BITMAP
E000
FC00
7F00
0FE0
01E0
03E0
1FC0
7F00
F800
C000
0000
0000
0000
FFE0
FFE0
ENDCHAR
STARTCHAR 25A0
ENCODING 9632
SWIDTH 600 0
DWIDTH 15 0
BBX 9 10 3 2
BITMAP
FF80
FF80
FF80
FF80
FF80
FF80
FF80
FF80
FF80
FF80
ENDCHAR
STARTCHAR 25A1
ENCODING 9633
SWIDTH 600 0
DWIDTH 15 0
BBX 9 10 3 2
BITMAP
FF80
FF80
8080
8080
8080
8080
8080
8080
FF80
FF80
ENDCHAR
STARTCHAR 25B2
ENCODING 9650
SWIDTH 600 0
DWIDTH 15 0
BBX 11 11 2 1
BITMAP
0400
0400
0E00
0E00
1F00
1F00
3F80
3F80
7FC0
7FC0
FFE0
ENDCHAR
STARTCHAR 25B3
ENCODING 9651
SWIDTH 600 0
DWIDTH 15 0
BBX 9 10 3 2
BITMAP
0800
0800
1C00
1400
3600
2200
6300
4100
C180
FF80
ENDCHAR
STARTCHAR 25B6
ENCODING 9654
SWIDTH 600 0
DWIDTH 15 0
BBX 10 10 3 1
BITMAP
8000
E000
F800
FE00
FF80
FFC0
FF00
FC00
F000
C000
ENDCHAR
STARTCHAR 25B7
ENCODING 9655
SWIDTH 600 0
DWIDTH 15 0
BBX 10 10 3 1
BITMAP
8000
E000
B800
8E00
8380
81C0
8700
9C00
F000
C000
ENDCHAR
STARTCHAR 25BC
ENCODING 9660
SWIDTH 600 0
DWIDTH 15 0
BBX 11 11 2 1
BITMAP
FFE0
7FC0
7FC0
3F80
3F80
1F00
1F00
0E00
0E00
0400
0400
ENDCHAR
STARTCHAR 25BD
ENCODING 9661
SWIDTH 600 0
DWIDTH 15 0
BBX 11 11 2 1
BITMAP
FFE0
4040
60C0
2080
3180
1300
1B00
0E00
0E00
0400
0400
ENDCHAR
STARTCHAR 25C0
ENCODING 9664
SWIDTH 600 0
DWIDTH 15 0
BBX 10 10 2 1
BITMAP
0040
01C0
07C0
1FC0
7FC0
FFC0
3FC0
0FC0
03C0
00C0
ENDCHAR
STARTCHAR 25C1
ENCODING 9665
SWIDTH 600 0
DWIDTH 15 0
BBX 10 10 2 1
BITMAP
0040
01C0
0740
1C40
7040
E040
3840
0E40
03C0
00C0
ENDCHAR
STARTCHAR 25C6
ENCODING 9670
SWIDTH 600 0
DWIDTH 15 0
BBX 13 14 1 0
BITMAP
0200
0700
0F80
1FC0
3FE0
7FF0
FFF8
FFF8
7FF0
3FE0
1FC0
0F80
0700
0200
ENDCHAR
STARTCHAR 25C7
ENCODING 9671
SWIDTH 600 0
DWIDTH 15 0
BBX 13 14 1 0
BITMAP
0200
0700
0F80
1DC0
38E0
7070
E038
C038
7070
38E0
1DC0
0F80
0700
0200
ENDCHAR
STARTCHAR 25CA
ENCODING 9674
SWIDTH 480 0
DWIDTH 12 0
BBX 10 16 1 0
BITMAP
0400
0C00
0E00
1F00
3300
3180
61C0
C0C0
C0C0
6180
3180
3B00
1E00
0E00
0C00
0400
ENDCHAR
STARTCHAR 27E8
ENCODING 10216
SWIDTH 360 0
DWIDTH 9 0
BBX 7 24 1 -5
BITMAP
0E
1C
1C
1C
38
38
38
70
70
70
E0
E0
E0
E0
70
70
70
38
38
38
1C
1C
1C
0E
ENDCHAR
STARTCHAR 27E9
ENCODING 10217
SWIDTH 360 0
DWIDTH 9 0
BBX 7 24 1 -5
BITMAP
E0
E0
70
70
70
38
38
38
1C
1C
1C
0E
0E
1C
1C
1C
38
38
38
70
70
70
E0
E0
ENDCHAR
STARTCHAR A78B
ENCODING 42891
SWIDTH 280 0
DWIDTH 7 0
BBX 3 10 2 8
BITMAP
E0
E0
E0
E0
E0
E0
E0
E0
E0
E0
ENDCHAR
STARTCHAR A78C
ENCODING 42892
SWIDTH 280 0
DWIDTH 7 0
BBX 3 9 2 8
BITMAP
E0
E0
E0
E0
E0
E0
E0
E0
E0
ENDCHAR
STARTCHAR FB01
ENCODING 64257
SWIDTH 720 0
DWIDTH 18 0
BBX 17 20 0 0
BITMAP
000300
07C780
1FC780
1F8700
1C0000
380000
FF8700
FF8700
3F8700
3C0700
3C0700
3C0700
3C0700
3C0700
3C0700
3C0700
3C0700
3C0700
3C0700
3C0700
ENDCHAR
STARTCHAR FB02
ENCODING 64258
SWIDTH 640 0
DWIDTH 16 0
BBX 14 19 0 0
BITMAP
07DC
0FDC
1F9C
1C1C
3C1C
381C
FF9C
FF9C
3C1C
3C1C
3C1C
3C1C
3C1C
3C1C
3C1C
3C1C
3C1C
3C1C
3C1C
ENDCHAR
ENDFONT
